<svg width="20" height="20" viewBox="0 0 20 20" fill="none" xmlns="http://www.w3.org/2000/svg">
<path fill-rule="evenodd" clip-rule="evenodd" d="M15.6659 5.78571C17.819 5.82328 19.0277 7.06549 19.0277 9.24784C19.0277 11.9022 17.1606 13.1469 15.0762 13.7295C14.6481 13.3532 14.0867 13.1249 13.4719 13.1249H12.4305V12.0833C12.4305 10.7409 11.3423 9.65272 9.99995 9.65272C8.65758 9.65272 7.56939 10.7409 7.56939 12.0833V13.1249H6.52772C6.00346 13.1249 5.51796 13.2909 5.12092 13.5732C2.92028 12.8863 0.972168 11.4958 0.972168 8.68613C0.972168 5.85131 2.56675 4.25672 5.40157 4.25672L5.45658 4.25692C6.07764 2.1347 7.80572 0.972168 10.438 0.972168C13.6462 0.972168 15.5113 2.6991 15.6659 5.78571Z" fill="white" fill-opacity="0.2"/>
<path d="M4.31708 13.2838C2.46706 12.5196 0.972168 11.1474 0.972168 8.68613C0.972168 5.85131 2.56675 4.25672 5.40157 4.25672L5.45658 4.25692C6.07764 2.1347 7.80572 0.972168 10.438 0.972168C13.6462 0.972168 15.5113 2.6991 15.6659 5.78571C17.819 5.82328 19.0277 7.06549 19.0277 9.24783C19.0277 11.5124 17.6687 12.7509 15.9752 13.4277" stroke="white" stroke-width="1.4" stroke-linecap="round" stroke-linejoin="round"/>
<path d="M5.35913 4.25903C6.99471 4.25903 8.45748 5.33709 8.91891 6.32202" stroke="white" stroke-width="1.4" stroke-linecap="round" stroke-linejoin="round"/>
<path d="M10 12.0833V19.0277" stroke="white" stroke-width="1.4" stroke-linecap="round" stroke-linejoin="round"/>
<path d="M6.52783 15.5555H13.4721" stroke="white" stroke-width="1.4" stroke-linecap="round" stroke-linejoin="round"/>
</svg>
