<svg width="458" height="458" viewBox="0 0 458 458" fill="none" xmlns="http://www.w3.org/2000/svg">
<path d="M155.268 321.681L188.965 372.889C193.551 380.323 201.645 384.781 210.266 384.781C211.054 384.781 211.851 384.742 212.648 384.665C220.672 383.899 227.839 379.314 231.896 372.352L256.995 323.328C258.688 321.276 274.194 304.107 274.868 302.896C277.854 297.629 275.212 292.889 274.179 292.559C273.765 287.406 270.434 286.91 269.791 286.864C269.722 286.856 269.692 286.856 269.692 286.856C269.348 282.408 264.731 281.467 264.731 281.467L273.574 266.153C274.776 264.085 274.439 261.467 272.763 259.759C272.113 259.109 271.347 258.649 270.528 258.396C268.568 257.806 266.347 258.351 264.916 260.019L246.03 280.4L235.608 284.271L228.179 300.655L211.684 334.285L186.961 296.874L155.268 321.681Z" fill="white"/>
<path d="M210.266 385.44C201.423 385.44 193.047 380.763 188.403 373.235L154.716 322.043C154.527 321.758 154.592 321.373 154.861 321.162L186.551 296.355C186.696 296.242 186.882 296.196 187.062 296.223C187.243 296.252 187.406 296.357 187.507 296.511L211.596 332.958L227.584 300.362L235.005 283.996C235.077 283.837 235.212 283.712 235.377 283.65L245.653 279.834L264.433 259.569C265.957 257.79 268.434 257.075 270.718 257.762C271.651 258.05 272.519 258.577 273.23 259.29C275.117 261.212 275.491 264.167 274.146 266.482L265.715 281.08C267.109 281.6 269.779 283.005 270.288 286.261C271.488 286.481 274.302 287.499 274.806 292.156C275.412 292.609 275.94 293.541 276.264 294.367C276.78 295.685 277.733 299.184 275.443 303.22C275.016 303.987 270.215 309.406 263.478 316.98C260.668 320.138 258.231 322.877 257.552 323.692L232.486 372.652C228.311 379.812 220.926 384.537 212.712 385.321C211.895 385.399 211.074 385.44 210.266 385.44ZM156.152 321.825L189.517 372.526C194.335 380.338 203.361 384.897 212.584 384.007C220.377 383.263 227.382 378.782 231.327 372.02L256.407 323.027C256.429 322.985 256.454 322.945 256.486 322.908C257.112 322.15 259.604 319.349 262.489 316.104C267.018 311.013 273.862 303.32 274.291 302.575C276.09 299.402 275.626 296.65 275.19 295.291C274.751 293.926 274.131 293.261 273.967 293.184C273.712 293.101 273.542 292.88 273.521 292.612C273.151 287.996 270.312 287.561 269.746 287.521C269.401 287.541 269.062 287.261 269.035 286.907C268.734 283.022 264.766 282.148 264.598 282.113C264.391 282.069 264.215 281.93 264.129 281.736C264.043 281.543 264.054 281.32 264.158 281.137L273.001 265.823C274.049 264.018 273.758 261.716 272.29 260.221C271.726 259.656 271.065 259.252 270.33 259.026C268.547 258.489 266.615 259.048 265.413 260.448L246.51 280.847C246.441 280.922 246.353 280.981 246.256 281.018L236.09 284.792L228.775 300.924L212.272 334.572C212.168 334.785 211.957 334.926 211.721 334.941C211.488 334.955 211.259 334.844 211.129 334.646L186.8 297.832L156.152 321.825Z" fill="#252F4A"/>
<path d="M261.166 302.035C261.166 302.035 258.176 311.748 267.397 307.785C267.397 307.785 270.216 306.796 274.873 302.901C277.856 297.634 275.218 292.882 274.181 292.565L261.166 302.035Z" fill="white"/>
<path d="M263.685 309.392C262.689 309.392 261.879 309.117 261.265 308.567C259.096 306.618 260.476 302.034 260.534 301.84C260.577 301.705 260.661 301.585 260.776 301.501L273.789 292.03C273.957 291.907 274.174 291.87 274.37 291.933C275.143 292.169 275.844 293.321 276.242 294.32C276.768 295.642 277.744 299.156 275.443 303.223C275.405 303.293 275.353 303.353 275.293 303.405C270.599 307.331 267.732 308.364 267.611 308.406C266.091 309.064 264.777 309.392 263.685 309.392ZM261.738 302.436C261.399 303.678 260.939 306.503 262.15 307.587C263.004 308.355 264.73 308.214 267.137 307.179C267.205 307.153 269.929 306.158 274.357 302.472C276.086 299.339 275.625 296.626 275.189 295.28C274.868 294.285 274.45 293.664 274.186 293.374L261.738 302.436Z" fill="#252F4A"/>
<path d="M255.647 296.374C255.69 296.37 255.733 296.374 255.769 296.368C259.972 296.13 269.689 286.858 269.689 286.858C269.348 282.401 264.731 281.465 264.731 281.465L253.45 289.938C250.684 292.008 252.186 296.487 255.647 296.374Z" fill="white"/>
<path d="M255.522 297.035C253.734 297.035 252.208 295.949 251.605 294.232C250.973 292.435 251.541 290.541 253.054 289.408L264.336 280.935C264.488 280.822 264.676 280.778 264.863 280.816C264.915 280.827 269.973 281.908 270.346 286.807C270.361 287.005 270.288 287.197 270.143 287.335C269.74 287.721 260.203 296.777 255.806 297.026C255.795 297.026 255.72 297.03 255.709 297.03L255.648 296.372L255.67 297.031C255.619 297.035 255.571 297.035 255.522 297.035ZM264.876 282.181L253.846 290.466C252.58 291.414 252.519 292.853 252.851 293.796C253.188 294.756 254.073 295.762 255.626 295.714C255.654 295.712 255.689 295.712 255.7 295.712C258.889 295.531 266.157 289.278 268.998 286.602C268.593 283.495 265.783 282.441 264.876 282.181Z" fill="#252F4A"/>
<path d="M257.766 301.421C262.286 304.938 274.181 292.565 274.181 292.565C273.763 287.404 270.438 286.907 269.799 286.867C269.797 286.865 253.285 297.934 257.766 301.421Z" fill="white"/>
<path d="M259.744 302.703C258.854 302.703 258.044 302.472 257.361 301.939C256.661 301.395 256.308 300.644 256.339 299.77C256.504 295.113 268.109 287.203 269.432 286.316C269.553 286.235 269.698 286.199 269.842 286.206C270.304 286.235 274.366 286.668 274.838 292.51C274.853 292.699 274.787 292.884 274.657 293.019C273.572 294.146 265.167 302.703 259.744 302.703ZM269.967 287.547C266.396 289.969 257.773 296.506 257.656 299.818C257.64 300.27 257.804 300.613 258.171 300.899C261.419 303.425 270.132 295.762 273.494 292.321C273.07 288.375 270.802 287.672 269.967 287.547Z" fill="#252F4A"/>
<path d="M229.819 297.264L236.738 281.727C237.652 278.081 241.285 275.808 244.964 276.583L257.103 279.136C258.347 279.398 259.069 280.701 258.634 281.893C257.574 284.799 254.664 286.602 251.59 286.259L245.484 285.578L246.294 289.04C248.381 292.164 247.893 294.276 245.739 298.42" fill="white"/>
<path d="M245.737 299.079C245.635 299.079 245.53 299.056 245.435 299.004C245.111 298.836 244.986 298.438 245.155 298.116C247.26 294.065 247.639 292.239 245.746 289.405C245.703 289.339 245.671 289.265 245.653 289.188L244.843 285.726C244.794 285.517 244.851 285.297 244.994 285.138C245.135 284.979 245.347 284.896 245.56 284.92L251.664 285.601C254.447 285.913 257.055 284.293 258.015 281.666C258.156 281.278 258.123 280.847 257.922 280.485C257.72 280.122 257.372 279.865 256.969 279.781L244.83 277.227C241.489 276.526 238.211 278.57 237.382 281.886C237.372 281.923 237.36 281.959 237.345 281.994L230.425 297.531C230.275 297.865 229.885 298.015 229.555 297.865C229.222 297.716 229.073 297.326 229.22 296.995L236.117 281.509C237.143 277.535 241.077 275.088 245.103 275.936L257.242 278.49C258.023 278.654 258.691 279.147 259.078 279.843C259.465 280.54 259.53 281.369 259.257 282.119C258.089 285.319 254.908 287.292 251.521 286.913L246.344 286.334L246.913 288.773C249.116 292.129 248.538 294.47 246.329 298.722C246.206 298.951 245.977 299.079 245.737 299.079Z" fill="#252F4A"/>
<path d="M133.652 267.172L150.649 265.629C159.62 264.876 171.145 268.374 176.469 275.636L197.863 304.819L152.127 332.406L129.416 302.304L133.652 267.172Z" fill="#FF5733"/>
<path d="M152.126 333.063C151.924 333.063 151.726 332.971 151.598 332.801L128.887 302.7C128.667 302.408 128.725 301.996 129.015 301.776C129.306 301.556 129.718 301.615 129.938 301.906L152.292 331.533L196.902 304.627L175.934 276.026C175.718 275.732 175.782 275.318 176.075 275.104C176.37 274.888 176.782 274.952 176.997 275.247L198.391 304.429C198.501 304.579 198.543 304.766 198.506 304.949C198.47 305.131 198.358 305.288 198.2 305.383L152.465 332.97C152.36 333.032 152.243 333.063 152.126 333.063Z" fill="#252F4A"/>
<path d="M70.2645 402.258L54.0989 306.81C50.5119 294.322 57.3306 281.208 69.6159 276.973C69.6159 276.973 96.986 269.606 106.511 268.351C114.857 267.252 139.531 266.811 139.531 266.811C150.803 267.602 160.062 276.024 161.916 287.171L179.769 402.258H70.2645Z" fill="#FF5733"/>
<path d="M179.688 402.412C179.369 402.412 179.089 402.179 179.038 401.855C173.353 365.823 166.91 324.984 161.264 287.269C161.21 286.908 161.458 286.572 161.819 286.519C162.181 286.461 162.515 286.713 162.57 287.074C168.216 324.784 174.657 365.621 180.344 401.649C180.401 402.008 180.155 402.347 179.794 402.404C179.756 402.41 179.723 402.412 179.688 402.412Z" fill="#252F4A"/>
<path d="M176.205 364.535H198.545C201.949 364.535 205.296 361.399 206.646 356.998L219.935 313.671C221.456 308.712 218.838 304.019 214.657 304.019H195.383C192.446 304.019 189.46 306.384 188.115 309.813L171.477 352.24C169.064 358.392 171.36 364.535 176.205 364.535Z" fill="#252F4A"/>
<path d="M198.543 365.194H176.205C174.231 365.194 172.505 364.262 171.351 362.567C169.537 359.907 169.352 355.859 170.865 351.998L187.503 309.571C188.938 305.913 192.179 303.359 195.385 303.359H214.659C216.586 303.359 218.305 304.247 219.497 305.86C221.058 307.97 221.458 310.964 220.567 313.865L207.278 357.192C205.831 361.904 202.24 365.194 198.543 365.194ZM195.383 304.678C192.706 304.678 189.971 306.889 188.729 310.053L172.091 352.48C170.753 355.886 170.891 359.554 172.439 361.824C173.355 363.166 174.657 363.875 176.204 363.875H198.543C201.615 363.875 204.757 360.902 206.014 356.806L219.303 313.479C220.071 310.975 219.745 308.421 218.433 306.644C217.497 305.376 216.154 304.678 214.655 304.678H195.383Z" fill="#252F4A"/>
<path d="M64.8291 339.532L92.7781 376.276C95.6287 380.024 99.2157 383.055 103.274 385.238C107.324 387.415 111.836 388.73 116.53 389.045C121.947 389.404 127.359 388.404 132.289 386.138L176.795 363.747C176.795 363.747 195.769 357.907 199.1 354.62C202.432 351.341 199.646 347.675 199.646 347.675C202.22 345.011 200.718 340.538 200.718 340.538C202.238 336.923 200.077 333.046 200.077 333.046L205.712 327.294C206.322 326.671 206.65 325.838 206.65 324.997C206.65 324.599 206.578 324.202 206.432 323.822C205.616 321.71 202.966 321.043 201.245 322.507C201.245 322.507 191.435 330.331 188.54 332.174C185.664 333.997 181.626 334.536 177.545 335.313L181.775 325.381C181.98 324.9 182.077 324.392 182.077 323.899C182.077 322.423 181.216 321.023 179.772 320.4C178.045 319.662 176.03 320.298 175.042 321.902L164.464 332.975L121.271 347.38L94.328 312.702L64.8291 339.532Z" fill="white"/>
<path d="M118.664 389.773C117.937 389.773 117.212 389.749 116.486 389.701C111.714 389.381 107.165 388.074 102.962 385.817C98.7432 383.548 95.1396 380.472 92.2542 376.674L64.3053 339.931C64.0982 339.658 64.133 339.274 64.3859 339.045L93.8829 312.213C94.0203 312.089 94.1998 312.026 94.383 312.045C94.5662 312.059 94.7348 312.153 94.8465 312.297L121.504 346.605L164.098 332.4L174.517 321.494C175.68 319.671 178.038 318.938 180.029 319.792C181.672 320.501 182.735 322.111 182.735 323.898C182.735 324.5 182.616 325.087 182.379 325.64L178.631 334.439C178.77 334.413 178.91 334.388 179.047 334.362C182.519 333.728 185.8 333.127 188.185 331.616C191.016 329.813 200.734 322.068 200.831 321.991C201.801 321.164 203.088 320.868 204.34 321.184C205.593 321.501 206.578 322.377 207.044 323.584C207.218 324.033 207.306 324.51 207.306 324.997C207.306 326.021 206.895 327.027 206.181 327.756L200.874 333.171C201.405 334.32 202.597 337.471 201.414 340.567C201.691 341.536 202.52 345.156 200.474 347.727C201.454 349.346 202.246 352.446 199.562 355.089C196.211 358.394 178.373 363.949 177.041 364.361L132.582 386.728C128.213 388.734 123.446 389.773 118.664 389.773ZM65.7196 339.613L93.304 375.875C96.0758 379.521 99.5364 382.476 103.587 384.654C107.623 386.821 111.992 388.076 116.574 388.384C121.863 388.736 127.198 387.75 132.014 385.535L176.501 363.154C176.534 363.137 176.568 363.123 176.603 363.112C176.792 363.053 195.46 357.282 198.638 354.146C201.504 351.323 199.219 348.199 199.12 348.067C198.926 347.807 198.948 347.444 199.173 347.212C201.443 344.863 200.108 340.783 200.095 340.741C200.044 340.589 200.051 340.424 200.111 340.276C201.485 337.011 199.521 333.397 199.501 333.36C199.36 333.105 199.402 332.787 199.606 332.578L205.241 326.825C205.717 326.34 205.99 325.669 205.99 324.99C205.99 324.665 205.932 324.35 205.816 324.053C205.505 323.249 204.851 322.668 204.017 322.456C203.18 322.243 202.328 322.443 201.672 323.002C201.255 323.335 191.785 330.883 188.894 332.722C186.291 334.373 182.889 334.994 179.287 335.652C178.75 335.751 178.21 335.85 177.668 335.952C177.429 335.998 177.184 335.908 177.03 335.718C176.878 335.527 176.841 335.269 176.937 335.045L181.167 325.114C181.332 324.731 181.416 324.308 181.416 323.89C181.416 322.632 180.668 321.498 179.509 320.998C178.093 320.391 176.411 320.924 175.601 322.24C175.577 322.278 175.548 322.315 175.517 322.35L164.939 333.422C164.866 333.499 164.774 333.558 164.671 333.593L121.478 347.998C121.213 348.086 120.92 347.998 120.749 347.776L94.242 313.662L65.7196 339.613Z" fill="#252F4A"/>
<path d="M74.689 275.635L71.4189 276.694C61.3575 279.953 53.1025 287.25 48.6325 296.835C44.0561 306.647 45.0784 318.158 51.3108 327.01L64.8273 349.648L102.654 314.697L74.689 275.635Z" fill="#FF5733"/>
<path d="M64.8288 350.307C64.7977 350.307 64.7665 350.306 64.7335 350.3C64.5375 350.273 64.3635 350.155 64.2627 349.985L50.7462 327.347C50.5594 327.034 50.6619 326.629 50.9734 326.442C51.2903 326.257 51.6915 326.358 51.8784 326.671L64.979 348.611L101.78 314.605L84.8123 290.907C84.5998 290.61 84.6675 290.198 84.9643 289.987C85.2611 289.775 85.6733 289.844 85.884 290.139L103.191 314.312C103.385 314.583 103.347 314.955 103.103 315.181L65.2758 350.132C65.1531 350.245 64.9937 350.307 64.8288 350.307Z" fill="#252F4A"/>
<path d="M188.432 338.999C188.112 338.999 187.83 338.764 187.78 338.437C187.727 338.076 187.974 337.74 188.335 337.687C196.449 336.478 199.527 332.673 199.556 332.635C199.78 332.349 200.196 332.298 200.481 332.521C200.767 332.745 200.82 333.157 200.597 333.444C200.463 333.617 197.213 337.696 188.528 338.992C188.498 338.997 188.465 338.999 188.432 338.999Z" fill="#252F4A"/>
<path d="M189.416 345.022C189.064 345.022 188.771 344.744 188.758 344.388C188.744 344.024 189.026 343.718 189.39 343.703C197.12 343.394 200.201 340.122 200.23 340.089C200.476 339.821 200.892 339.799 201.161 340.045C201.43 340.288 201.452 340.702 201.209 340.974C201.073 341.126 197.777 344.687 189.442 345.022C189.434 345.022 189.425 345.022 189.416 345.022Z" fill="#252F4A"/>
<path d="M189.416 351.566C189.101 351.566 188.823 351.339 188.768 351.018C188.705 350.659 188.947 350.319 189.304 350.256C195.573 349.174 199.287 347.116 199.324 347.096C199.639 346.918 200.042 347.03 200.221 347.347C200.401 347.664 200.287 348.067 199.97 348.245C199.813 348.335 196.039 350.43 189.528 351.555C189.491 351.563 189.453 351.566 189.416 351.566Z" fill="#252F4A"/>
<path d="M116.457 351.566C116.253 351.566 116.054 351.473 115.924 351.297C115.707 351.004 115.772 350.59 116.065 350.376L120.879 346.845C121.174 346.629 121.586 346.693 121.801 346.988C122.017 347.281 121.953 347.695 121.66 347.91L116.845 351.44C116.728 351.524 116.59 351.566 116.457 351.566Z" fill="#252F4A"/>
<path d="M129.33 267.459L123.807 241.996L96.2148 242.388L99.1699 267.926C99.3091 269.126 99.8129 270.253 100.626 271.145C103.887 274.721 114.201 279.184 123.383 277.229C132.587 275.271 129.33 267.459 129.33 267.459Z" fill="white"/>
<path d="M118.719 278.36C110.92 278.36 103.114 274.851 100.141 271.59C99.2339 270.597 98.6714 269.357 98.5157 268.003L95.5607 242.465C95.5387 242.28 95.5973 242.093 95.7201 241.954C95.8428 241.815 96.0205 241.732 96.2056 241.731L123.797 241.339C124.098 241.331 124.385 241.551 124.451 241.859L129.962 267.269C130.154 267.76 131.288 270.94 129.777 273.822C128.711 275.857 126.606 277.222 123.521 277.88C121.951 278.209 120.335 278.36 118.719 278.36ZM96.9548 243.037L99.8256 267.849C99.9502 268.927 100.397 269.912 101.115 270.7C104.415 274.318 114.681 278.405 123.248 276.583C125.93 276.011 127.734 274.875 128.61 273.203C129.933 270.68 128.733 267.74 128.72 267.71C128.705 267.674 128.692 267.635 128.683 267.597L123.275 242.661L96.9548 243.037Z" fill="#252F4A"/>
<path d="M97.2918 250.224C80.3751 238.854 77.7773 214.338 77.7773 214.338L114.17 187.906C115.066 188.344 129.297 200.686 137.805 225.001C144.814 245.032 131.796 257.7 108.903 254.939" fill="white"/>
<path d="M114.833 255.967C112.901 255.967 110.893 255.844 108.823 255.595C108.462 255.551 108.203 255.223 108.247 254.861C108.291 254.498 108.625 254.243 108.98 254.285C120.69 255.696 130.261 252.963 135.227 246.783C139.556 241.397 140.232 233.941 137.18 225.219C129.506 203.284 116.757 190.666 114.185 188.713L78.481 214.645C78.8987 217.755 82.3282 239.375 97.6602 249.678C97.9625 249.881 98.0431 250.292 97.8398 250.594C97.6364 250.896 97.2261 250.977 96.9256 250.773C79.9503 239.366 77.1492 214.659 77.1235 214.41C77.0979 214.176 77.2005 213.945 77.3928 213.807L113.785 187.375C113.982 187.231 114.243 187.21 114.462 187.317C115.797 187.969 129.924 200.481 138.428 224.785C141.592 233.827 140.82 241.934 136.257 247.611C131.891 253.04 124.261 255.967 114.833 255.967Z" fill="#252F4A"/>
<path d="M127.658 218.704C128.556 218.159 128.626 216.633 127.814 215.294C127.002 213.956 125.616 213.313 124.718 213.858C123.82 214.403 123.75 215.929 124.562 217.267C125.374 218.605 126.76 219.249 127.658 218.704Z" fill="#252F4A"/>
<path d="M125.933 210.403C123.918 210.301 121.989 211.545 121.04 213.56L125.933 210.403Z" fill="white"/>
<path d="M121.038 214.219C120.945 214.219 120.85 214.199 120.758 214.157C120.428 214.001 120.287 213.609 120.441 213.28C121.507 211.015 123.693 209.628 125.966 209.746C126.331 209.764 126.611 210.074 126.591 210.438C126.573 210.803 126.234 211.079 125.899 211.063C124.155 210.977 122.473 212.065 121.636 213.842C121.524 214.08 121.288 214.219 121.038 214.219Z" fill="#252F4A"/>
<path d="M82.7552 235.808L91.3491 228.394C91.3491 228.394 91.983 230.149 94.2547 227.285C94.2547 227.285 99.5455 213.219 92.6608 209.713C100.45 208.949 107.789 206.545 114.064 201.866C114.698 201.392 115.326 200.892 115.876 200.324C118.237 201.661 121.315 201.872 124.091 201.584C128.693 201.11 130.418 201.815 133.668 198.529C136.913 195.251 137.261 190.372 136.49 185.818C136.024 183.068 131.82 173.98 123.253 180.762C122.599 178.554 121.94 176.325 120.784 174.333C119.628 172.342 117.915 170.589 115.737 169.839C113.558 169.09 110.898 169.535 109.396 171.27C107.647 173.3 107.729 176.537 105.736 178.316C104.056 179.82 101.522 179.725 99.2743 179.538C94.4379 179.129 89.605 179.437 84.9224 180.721C70.4533 184.691 77.6329 200.212 79.2854 201.855C79.2964 201.863 79.2982 201.87 79.3074 201.877C79.4429 202.083 79.5968 202.282 79.7562 202.473C78.439 202.504 70.5394 203.136 67.6961 213.042C64.6001 223.874 82.7552 235.808 82.7552 235.808Z" fill="#252F4A"/>
<path d="M114.111 227.624C115.083 227.226 115.391 225.73 114.798 224.281C114.206 222.832 112.938 221.98 111.966 222.377C110.994 222.774 110.686 224.271 111.278 225.72C111.87 227.169 113.139 228.021 114.111 227.624Z" fill="#252F4A"/>
<path d="M112.961 219.122C110.95 218.957 108.984 220.142 107.973 222.128L112.961 219.122Z" fill="white"/>
<path d="M107.973 222.788C107.872 222.788 107.769 222.764 107.674 222.716C107.35 222.551 107.22 222.154 107.384 221.83C108.52 219.6 110.728 218.277 113.014 218.466C113.377 218.495 113.648 218.814 113.617 219.177C113.588 219.54 113.285 219.803 112.906 219.781C111.16 219.631 109.453 220.677 108.561 222.429C108.445 222.656 108.213 222.788 107.973 222.788Z" fill="#252F4A"/>
<path d="M91.8529 228.502C91.8529 228.502 80.7785 223.075 76.717 226.292C72.6554 229.507 79.9724 245.198 85.9814 244.849C91.9903 244.499 95.6653 240.813 95.6653 240.813" fill="white"/>
<path d="M85.7814 245.514C82.0129 245.514 78.0815 240.362 76.0992 235.161C74.4083 230.724 74.4871 227.216 76.3063 225.774C80.6463 222.339 91.6749 227.679 92.1439 227.908C92.4718 228.068 92.6056 228.463 92.4462 228.789C92.285 229.117 91.8929 229.253 91.5632 229.092C88.5862 227.635 80.1864 224.383 77.1252 226.807C75.8189 227.84 75.8996 230.935 77.3322 234.69C79.1642 239.499 82.8905 244.354 85.9426 244.187C91.6126 243.856 95.163 240.379 95.1997 240.344C95.4562 240.087 95.8738 240.085 96.1322 240.344C96.3886 240.6 96.3905 241.018 96.1322 241.274C95.9746 241.432 92.2099 245.142 86.0195 245.503C85.9407 245.512 85.8601 245.514 85.7814 245.514Z" fill="#252F4A"/>
<path d="M122.114 220.758C123.73 222.341 125.344 223.922 126.959 225.505C127.934 226.459 128.934 227.457 129.292 228.733C129.649 230.009 129.165 231.649 127.773 232.428" fill="white"/>
<path d="M127.773 233.089C127.542 233.089 127.318 232.968 127.196 232.752C127.018 232.435 127.132 232.032 127.448 231.854C128.588 231.216 128.92 229.863 128.654 228.912C128.339 227.781 127.361 226.823 126.498 225.977L121.652 221.23C121.392 220.976 121.388 220.558 121.641 220.298C121.897 220.038 122.315 220.034 122.573 220.289L127.419 225.035C128.401 225.997 129.513 227.087 129.925 228.558C130.338 230.029 129.839 232.03 128.093 233.006C127.993 233.061 127.883 233.089 127.773 233.089Z" fill="#252F4A"/>
<path d="M122.39 242.74C122.106 242.74 121.824 242.725 121.54 242.696C119.399 242.469 117.391 241.383 116.03 239.712C115.799 239.43 115.841 239.014 116.125 238.783C116.405 238.554 116.821 238.594 117.052 238.876C118.195 240.28 119.882 241.192 121.681 241.383C123.475 241.571 125.32 241.033 126.73 239.901C127.014 239.673 127.43 239.717 127.657 240.001C127.885 240.285 127.841 240.701 127.557 240.928C126.098 242.103 124.254 242.74 122.39 242.74Z" fill="#252F4A"/>
<path d="M82.3885 236.883C82.2017 236.883 82.0148 236.802 81.8829 236.648C80.8625 235.436 80.1553 233.972 79.8366 232.418C79.7651 232.067 79.7028 231.653 79.7889 231.226C79.9043 230.661 80.2597 230.213 80.7397 230.026C81.1831 229.852 81.6282 229.94 81.925 229.998L86.3695 230.883C86.7267 230.955 86.9594 231.301 86.8879 231.658C86.8165 232.015 86.4702 232.252 86.113 232.176L81.6686 231.292C81.533 231.264 81.3076 231.22 81.2234 231.253C81.1831 231.268 81.1135 231.354 81.086 231.488C81.0475 231.68 81.086 231.922 81.1336 232.155C81.4084 233.494 82.0185 234.754 82.8978 235.8C83.1323 236.079 83.0957 236.495 82.8172 236.729C82.689 236.832 82.5388 236.883 82.3885 236.883Z" fill="#252F4A"/>
<path d="M90.8398 271.669L117.036 295.317L123.07 277.015L98.7706 264.473L90.8398 271.669Z" fill="#252F4A"/>
<path d="M123.07 277.015L140.17 288.659L139.091 266.869L128.817 265.098L123.07 277.015Z" fill="#252F4A"/>
<path d="M412.2 194.974C412.2 207.56 402.001 217.759 389.415 217.759C378.843 217.759 221.355 217.759 205.272 217.759C189.19 217.759 176.148 204.719 176.148 188.635C176.148 172.545 189.189 159.503 205.272 159.503C207.129 159.503 208.95 159.675 210.718 160.012C201.758 137.546 209.124 112.813 228.313 103.279C248.685 93.1608 274.655 104.008 286.321 127.492C286.477 127.811 286.64 128.13 286.777 128.458C296.311 114.134 313.44 107.868 327.475 114.425C339.97 120.262 346.253 134.505 344.04 149.211C351.927 143.656 361.725 142.145 370.194 146.096C379.975 150.667 385.302 161.276 384.665 172.688C386.195 172.36 387.788 172.188 389.419 172.188C402.001 172.19 412.2 182.388 412.2 194.974Z" fill="#43C64C"/>
<path d="M193.483 187.637L191.726 187.582C191.862 183.317 193.902 179.144 197.187 176.421C200.472 173.699 204.953 172.462 209.167 173.124L208.896 174.861C205.173 174.28 201.212 175.368 198.31 177.775C195.407 180.181 193.602 183.868 193.483 187.637Z" fill="white"/>
<path d="M219.844 138.745C217.541 131.34 219.234 122.68 224.156 116.686C229.079 110.693 237.238 107.352 244.955 108.169L244.77 109.918C237.627 109.156 230.072 112.254 225.516 117.803C220.959 123.352 219.391 131.367 221.524 138.223L219.844 138.745Z" fill="white"/>
<path d="M296.326 134.366L294.62 133.939C296.498 126.45 303.115 120.243 310.709 118.844L311.026 120.573C304.086 121.852 298.042 127.524 296.326 134.366Z" fill="white"/>
<path d="M345.451 163.719L343.72 163.413C344.427 159.402 346.961 155.804 350.498 153.787C354.036 151.77 358.423 151.422 362.236 152.857L361.617 154.504C358.29 153.251 354.459 153.555 351.37 155.317C348.281 157.078 346.068 160.22 345.451 163.719Z" fill="white"/>
<path d="M400.209 188.764C399.033 185.97 396.939 183.601 394.312 182.092C391.683 180.582 388.58 179.965 385.577 180.355L385.35 178.611C388.734 178.171 392.227 178.865 395.188 180.565C398.147 182.266 400.506 184.933 401.831 188.08L400.209 188.764Z" fill="white"/>
<path d="M343.608 188.42C343.608 189.975 342.979 191.393 341.955 192.408C340.931 193.432 339.523 194.06 337.967 194.06H237.916C234.805 194.06 232.275 191.538 232.275 188.42C232.275 186.864 232.911 185.454 233.928 184.439C234.952 183.415 236.361 182.786 237.916 182.786H337.967C341.078 182.788 343.608 185.309 343.608 188.42Z" fill="#252F4A"/>
<path d="M337.967 194.72H237.916C234.443 194.72 231.616 191.893 231.616 188.419C231.616 186.741 232.272 185.162 233.461 183.973C234.651 182.782 236.232 182.128 237.916 182.128H337.967C341.44 182.128 344.267 184.952 344.267 188.419C344.267 190.112 343.611 191.695 342.421 192.877C341.232 194.064 339.651 194.72 337.967 194.72ZM237.916 183.447C236.586 183.447 235.335 183.966 234.393 184.906C233.453 185.846 232.935 187.095 232.935 188.419C232.935 191.166 235.168 193.401 237.916 193.401H337.967C339.299 193.401 340.548 192.882 341.49 191.942C342.432 191.008 342.948 189.759 342.948 188.421C342.948 185.679 340.715 183.449 337.967 183.449H237.916V183.447Z" fill="#252F4A"/>
<path d="M318.841 337.526C324.746 346.406 323.057 358.378 314.699 364.543C305.9 371.032 293.168 368.65 286.688 358.905C280.208 349.161 282.938 336.496 292.325 330.894C301.243 325.572 312.939 328.648 318.841 337.526Z" fill="#FFCC3D"/>
<path d="M303.618 368.846C302.454 368.846 301.278 368.743 300.1 368.536C294.403 367.534 289.443 364.244 286.137 359.272C282.832 354.3 281.716 348.456 282.995 342.813C284.198 337.504 287.391 333.069 291.984 330.328C301.163 324.85 313.199 327.853 319.389 337.161C325.578 346.47 323.689 358.731 315.089 365.076C311.731 367.552 307.752 368.846 303.618 368.846ZM301.925 328.916C298.741 328.916 295.549 329.738 292.664 331.46C288.383 334.016 285.407 338.151 284.284 343.104C283.086 348.39 284.134 353.873 287.238 358.539C290.341 363.207 294.991 366.296 300.329 367.234C305.334 368.115 310.297 366.97 314.307 364.011C322.341 358.085 324.092 346.611 318.292 337.891C314.446 332.107 308.198 328.916 301.925 328.916Z" fill="#252F4A"/>
<path d="M289.892 332.721C280.503 338.323 277.775 350.988 284.255 360.732C290.735 370.476 303.467 372.86 312.266 366.369L314.701 364.544C305.902 371.033 293.169 368.652 286.69 358.907C280.21 349.163 282.939 336.498 292.327 330.896L289.892 332.721Z" fill="#252F4A"/>
<path d="M301.183 370.671C300.019 370.671 298.843 370.568 297.665 370.361C291.968 369.357 287.01 366.069 283.705 361.097C280.4 356.126 279.285 350.28 280.564 344.64C281.727 339.506 284.75 335.19 289.101 332.431C289.987 331.651 290.951 330.945 291.988 330.328C292.292 330.147 292.679 330.235 292.875 330.528C293.069 330.819 293.003 331.213 292.723 331.424L290.288 333.248C290.269 333.263 290.249 333.276 290.231 333.287C290.119 333.353 290.007 333.421 289.899 333.49C287.102 335.983 285.147 339.305 284.286 343.106C283.088 348.392 284.136 353.875 287.239 358.541C290.343 363.209 294.992 366.298 300.331 367.236C305.336 368.117 310.299 366.972 314.309 364.013C314.6 363.797 315.012 363.859 315.23 364.15C315.448 364.442 315.388 364.854 315.097 365.072L312.664 366.897C309.298 369.377 305.318 370.671 301.183 370.671ZM284.151 339.265C283.092 340.978 282.313 342.885 281.85 344.931C280.651 350.216 281.699 355.699 284.805 360.366C287.908 365.034 292.556 368.12 297.894 369.06C300.661 369.548 303.414 369.416 306.003 368.699C304.074 368.936 302.09 368.884 300.102 368.534C294.404 367.532 289.445 364.242 286.138 359.27C282.833 354.298 281.718 348.454 282.996 342.811C283.277 341.58 283.663 340.393 284.151 339.265Z" fill="#252F4A"/>
<path d="M309.52 351.13C309.52 352.664 308.921 353.933 307.723 354.939C306.741 355.767 305.424 356.366 303.771 356.74V359.781C303.771 360.649 303.344 361.084 302.489 361.084C302.117 361.084 301.828 360.93 301.619 360.622C301.454 360.371 301.373 360.091 301.373 359.783V357.094C301.084 357.11 300.8 357.117 300.525 357.117C299.03 357.117 297.865 356.898 297.031 356.46C296.28 356.071 295.903 355.571 295.903 354.963C295.903 353.803 296.491 353.223 297.667 353.223C297.971 353.223 298.49 353.342 299.219 353.582C299.948 353.822 300.421 353.941 300.637 353.941C300.838 353.941 301.084 353.921 301.373 353.88V348.514C300.071 348.425 298.962 348.124 298.046 347.613C296.848 346.948 296.249 346.028 296.249 344.852C296.249 343.515 296.786 342.282 297.856 341.153C298.808 340.148 299.981 339.406 301.371 338.927V336.92C301.371 335.971 301.78 335.496 302.599 335.496C303.381 335.496 303.769 335.971 303.769 336.92V338.526C304.61 338.583 305.512 338.786 306.47 339.134C307.697 339.572 308.311 340.076 308.311 340.644C308.311 341.106 308.159 341.5 307.853 341.824C307.549 342.148 307.184 342.311 306.759 342.311C306.402 342.311 305.904 342.234 305.264 342.08C304.587 341.926 304.088 341.84 303.768 341.826V345.561C303.872 345.561 303.954 345.565 304.013 345.574C305.658 345.711 306.955 346.215 307.908 347.082C308.983 348.053 309.52 349.403 309.52 351.13ZM301.371 342.346C300.151 342.848 299.541 343.473 299.541 344.22C299.541 344.861 300.151 345.266 301.371 345.437V342.346ZM303.771 353.27C305.402 352.655 306.215 351.887 306.215 350.971C306.215 349.593 305.402 348.809 303.771 348.622V353.27Z" fill="white"/>
<path d="M321.699 243.702C327.604 252.581 325.915 264.554 317.557 270.718C308.758 277.207 296.026 274.826 289.546 265.081C283.066 255.337 285.796 242.672 295.183 237.07C304.101 231.748 315.795 234.822 321.699 243.702Z" fill="#FFCC3D"/>
<path d="M306.475 275.02C305.312 275.02 304.136 274.917 302.958 274.71C297.26 273.708 292.303 270.418 288.996 265.446C285.691 260.475 284.575 254.63 285.854 248.987C287.058 243.678 290.251 239.243 294.844 236.502C304.022 231.024 316.056 234.027 322.249 243.335C328.437 252.644 326.548 264.905 317.949 271.248C314.589 273.728 310.608 275.02 306.475 275.02ZM304.782 235.091C301.598 235.091 298.407 235.914 295.522 237.636C291.24 240.19 288.265 244.325 287.142 249.28C285.944 254.567 286.992 260.049 290.095 264.717C293.199 269.384 297.848 272.471 303.185 273.411C308.186 274.292 313.151 273.147 317.165 270.189C325.198 264.264 326.948 252.79 321.149 244.068C317.302 238.283 311.055 235.091 304.782 235.091Z" fill="#252F4A"/>
<path d="M292.748 238.894C283.359 244.497 280.631 257.161 287.111 266.906C293.591 276.65 306.323 279.034 315.122 272.543L317.557 270.718C308.758 277.207 296.025 274.825 289.546 265.081C283.066 255.337 285.795 242.672 295.183 237.07L292.748 238.894Z" fill="#252F4A"/>
<path d="M304.04 276.845C302.877 276.845 301.701 276.742 300.523 276.535C294.826 275.533 289.868 272.243 286.561 267.271C283.256 262.3 282.141 256.454 283.419 250.814C284.583 245.68 287.606 241.366 291.957 238.607C292.843 237.827 293.809 237.121 294.844 236.504C295.148 236.323 295.533 236.412 295.731 236.704C295.925 236.995 295.859 237.389 295.578 237.599L293.144 239.424C293.125 239.439 293.105 239.452 293.087 239.463C292.975 239.529 292.863 239.598 292.754 239.666C289.956 242.159 288.001 245.479 287.14 249.282C285.942 254.569 286.99 260.051 290.093 264.719C293.197 269.387 297.846 272.473 303.183 273.413C308.184 274.294 313.149 273.149 317.163 270.191C317.454 269.975 317.868 270.037 318.085 270.328C318.303 270.619 318.242 271.032 317.951 271.25L315.516 273.074C312.156 275.551 308.175 276.845 304.04 276.845ZM287.007 245.44C285.949 247.153 285.171 249.059 284.706 251.105C283.507 256.39 284.555 261.873 287.659 266.54C290.762 271.208 295.412 274.294 300.748 275.234C303.513 275.72 306.268 275.588 308.857 274.873C306.928 275.11 304.945 275.058 302.954 274.708C297.257 273.706 292.299 270.416 288.992 265.444C285.687 260.474 284.572 254.628 285.851 248.985C286.133 247.754 286.519 246.569 287.007 245.44Z" fill="#252F4A"/>
<path d="M312.376 257.304C312.376 258.838 311.777 260.107 310.579 261.113C309.597 261.941 308.28 262.54 306.627 262.914V265.955C306.627 266.823 306.2 267.257 305.345 267.257C304.973 267.257 304.683 267.104 304.475 266.796C304.31 266.545 304.229 266.265 304.229 265.957V263.267C303.94 263.284 303.656 263.291 303.381 263.291C301.886 263.291 300.721 263.071 299.887 262.633C299.136 262.245 298.759 261.745 298.759 261.137C298.759 259.977 299.347 259.396 300.523 259.396C300.827 259.396 301.346 259.515 302.075 259.755C302.804 259.995 303.276 260.114 303.493 260.114C303.694 260.114 303.94 260.094 304.229 260.054V254.688C302.927 254.598 301.818 254.298 300.902 253.787C299.704 253.122 299.105 252.202 299.105 251.026C299.105 249.689 299.642 248.456 300.712 247.327C301.664 246.321 302.837 245.579 304.227 245.101V243.093C304.227 242.144 304.636 241.67 305.455 241.67C306.237 241.67 306.625 242.144 306.625 243.093V244.7C307.466 244.757 308.368 244.96 309.326 245.308C310.553 245.746 311.167 246.25 311.167 246.816C311.167 247.278 311.015 247.672 310.709 247.996C310.405 248.32 310.04 248.483 309.615 248.483C309.258 248.483 308.76 248.406 308.12 248.252C307.442 248.098 306.944 248.012 306.624 247.998V251.733C306.728 251.733 306.81 251.737 306.869 251.746C308.514 251.883 309.811 252.387 310.764 253.255C311.841 254.226 312.376 255.578 312.376 257.304ZM304.229 248.522C303.009 249.024 302.399 249.648 302.399 250.396C302.399 251.037 303.009 251.442 304.229 251.612V248.522ZM306.627 259.446C308.258 258.83 309.071 258.063 309.071 257.147C309.071 255.769 308.258 254.985 306.627 254.798V259.446Z" fill="white"/>
<path d="M310.178 194.06C310.145 200.974 307.1 207.701 301.282 211.988C291.041 219.547 276.222 216.766 268.681 205.43C266.303 201.861 264.999 197.944 264.66 194.06C264.304 190.153 264.942 186.269 266.481 182.788H307.43C309.291 186.357 310.192 190.241 310.178 194.06Z" fill="#FFCC3D"/>
<path d="M288.385 216.887C287.038 216.887 285.679 216.77 284.316 216.53C277.713 215.368 271.964 211.556 268.132 205.794C265.789 202.277 264.362 198.239 264.002 194.117C263.642 190.125 264.29 186.113 265.878 182.52C265.985 182.282 266.221 182.128 266.481 182.128H307.43C307.675 182.128 307.901 182.266 308.014 182.484C309.878 186.058 310.854 190.063 310.838 194.064C310.803 201.527 307.463 208.255 301.674 212.519C297.783 215.39 293.173 216.887 288.385 216.887ZM266.915 183.447C265.539 186.734 264.986 190.374 265.316 194.002C265.657 197.907 267.009 201.731 269.229 205.065C272.86 210.523 278.299 214.133 284.543 215.233C290.398 216.262 296.198 214.921 300.888 211.459C306.338 207.443 309.484 201.101 309.515 194.058C309.529 190.402 308.67 186.741 307.023 183.449H266.915V183.447Z" fill="#252F4A"/>
<path d="M301.282 211.988L298.446 214.115C288.205 221.665 273.386 218.893 265.845 207.547C263.033 203.325 261.712 198.627 261.729 194.058C261.736 190.07 262.767 186.179 264.709 182.786H266.483C264.944 186.267 264.306 190.151 264.662 194.058C265.001 197.942 266.305 201.859 268.683 205.428C276.222 216.766 291.041 219.545 301.282 211.988Z" fill="#252F4A"/>
<path d="M285.549 219.01C284.198 219.01 282.835 218.891 281.469 218.651C274.868 217.488 269.125 213.675 265.294 207.914C262.511 203.737 261.051 198.944 261.068 194.058C261.075 189.964 262.137 185.954 264.136 182.46C264.253 182.255 264.473 182.128 264.71 182.128H266.483C266.706 182.128 266.913 182.242 267.036 182.429C267.157 182.616 267.175 182.852 267.086 183.055C265.587 186.445 264.977 190.23 265.318 194.002C265.659 197.907 267.011 201.731 269.231 205.065C272.862 210.523 278.301 214.133 284.545 215.233C290.4 216.262 296.2 214.921 300.89 211.459C301.181 211.243 301.593 211.305 301.811 211.596C302.029 211.887 301.969 212.3 301.677 212.518L298.842 214.645C294.947 217.513 290.336 219.01 285.549 219.01ZM265.094 183.447C263.328 186.663 262.394 190.325 262.387 194.062C262.37 198.686 263.755 203.224 266.393 207.183C270.022 212.64 275.458 216.253 281.7 217.352C285.429 218.008 289.141 217.704 292.556 216.502C289.887 217.004 287.108 217.023 284.316 216.532C277.713 215.37 271.964 211.558 268.132 205.796C265.789 202.279 264.361 198.241 264.002 194.119C263.673 190.466 264.186 186.798 265.492 183.449H265.094V183.447Z" fill="#252F4A"/>
<path d="M294.899 194.643C294.61 193.699 294.093 192.895 293.377 192.241C292.272 191.234 290.759 190.645 288.848 190.484C288.775 190.477 288.679 190.477 288.559 190.477V186.126C288.929 186.142 289.509 186.247 290.299 186.425C291.048 186.602 291.629 186.69 292.039 186.69C292.539 186.69 292.957 186.505 293.313 186.126C293.668 185.747 293.844 185.289 293.844 184.756C293.844 184.248 293.424 183.781 292.58 183.371H284.338C283.33 183.878 282.436 184.539 281.679 185.346C280.43 186.659 279.811 188.094 279.811 189.656C279.811 191.017 280.503 192.089 281.897 192.862C282.962 193.458 284.259 193.813 285.774 193.917V200.163C285.435 200.203 285.146 200.227 284.911 200.227C284.662 200.227 284.114 200.089 283.259 199.807C282.412 199.533 281.808 199.397 281.454 199.397C280.093 199.397 279.408 200.066 279.408 201.419C279.408 202.128 279.844 202.709 280.714 203.16C281.689 203.667 283.042 203.926 284.783 203.926C285.105 203.926 285.435 203.918 285.774 203.893V207.027C285.774 207.381 285.862 207.712 286.056 208.002C286.298 208.365 286.637 208.542 287.071 208.542C288.062 208.542 288.562 208.035 288.562 207.027V203.49C290.488 203.055 292.019 202.354 293.162 201.386C294.557 200.218 295.249 198.743 295.249 196.955C295.247 196.108 295.134 195.335 294.899 194.643ZM283.636 188.914C283.636 188.044 284.345 187.319 285.772 186.738V190.332C284.345 190.131 283.636 189.664 283.636 188.914ZM288.559 199.454V194.038C289.324 194.126 289.936 194.328 290.387 194.643C291.063 195.103 291.402 195.819 291.402 196.779C291.404 197.842 290.46 198.736 288.559 199.454Z" fill="white"/>
<path d="M342.403 292.889C336.745 301.397 338.363 312.871 346.373 318.777C354.803 324.995 367.005 322.712 373.213 313.375C379.422 304.037 376.808 291.902 367.811 286.534C359.264 281.435 348.06 284.381 342.403 292.889Z" fill="#FFCC3D"/>
<path d="M356.991 322.928C353.023 322.928 349.205 321.688 345.98 319.31C337.727 313.222 335.914 301.457 341.853 292.526C347.792 283.595 359.345 280.717 368.149 285.97C372.557 288.6 375.62 292.854 376.776 297.951C378.004 303.364 376.934 308.972 373.763 313.743C370.591 318.513 365.834 321.67 360.367 322.632C359.237 322.829 358.106 322.928 356.991 322.928ZM342.952 293.256C337.403 301.6 339.077 312.579 346.764 318.248C350.603 321.08 355.357 322.174 360.138 321.331C365.246 320.431 369.694 317.476 372.663 313.01C375.633 308.544 376.637 303.299 375.49 298.24C374.415 293.501 371.568 289.546 367.472 287.1C359.273 282.207 348.499 284.911 342.952 293.256Z" fill="#252F4A"/>
<path d="M370.143 288.283C379.14 293.651 381.754 305.786 375.545 315.124C369.337 324.462 357.136 326.744 348.705 320.526L346.373 318.777C354.803 324.995 367.005 322.712 373.213 313.374C379.422 304.037 376.808 291.901 367.811 286.534L370.143 288.283Z" fill="#252F4A"/>
<path d="M359.323 324.676C355.355 324.676 351.537 323.436 348.313 321.058L345.977 319.307C345.687 319.089 345.627 318.676 345.843 318.385C346.057 318.094 346.47 318.032 346.765 318.248C350.603 321.08 355.357 322.174 360.138 321.331C365.246 320.431 369.694 317.476 372.664 313.01C375.633 308.544 376.637 303.299 375.49 298.24C374.666 294.604 372.797 291.429 370.124 289.044C370.018 288.978 369.912 288.914 369.806 288.85C369.785 288.837 369.767 288.824 369.749 288.811L367.417 287.062C367.136 286.851 367.07 286.457 367.265 286.166C367.459 285.874 367.847 285.786 368.151 285.966C369.144 286.56 370.071 287.236 370.923 287.985C375.095 290.632 377.995 294.771 379.11 299.695C380.338 305.109 379.268 310.716 376.097 315.487C372.926 320.257 368.168 323.414 362.701 324.376C361.569 324.579 360.439 324.676 359.323 324.676ZM355.073 322.83C357.443 323.429 359.951 323.522 362.47 323.079C367.578 322.179 372.026 319.224 374.996 314.758C377.965 310.291 378.969 305.046 377.822 299.988C377.408 298.16 376.729 296.447 375.818 294.893C376.218 295.87 376.538 296.89 376.776 297.945C378.004 303.359 376.934 308.967 373.763 313.737C370.592 318.508 365.834 321.664 360.367 322.626C358.585 322.943 356.804 323.009 355.073 322.83Z" fill="#252F4A"/>
<path d="M364.156 306.728C364.156 308.197 363.581 309.414 362.434 310.377C361.492 311.171 360.23 311.746 358.647 312.103V315.018C358.647 315.85 358.237 316.265 357.418 316.265C357.061 316.265 356.784 316.117 356.584 315.822C356.427 315.58 356.35 315.313 356.35 315.018V312.442C356.071 312.457 355.8 312.466 355.536 312.466C354.104 312.466 352.988 312.255 352.187 311.836C351.467 311.462 351.108 310.984 351.108 310.401C351.108 309.289 351.671 308.734 352.797 308.734C353.089 308.734 353.585 308.85 354.285 309.079C354.983 309.308 355.436 309.423 355.643 309.423C355.835 309.423 356.069 309.403 356.348 309.364V304.224C355.1 304.138 354.038 303.85 353.162 303.361C352.013 302.723 351.44 301.842 351.44 300.715C351.44 299.433 351.953 298.251 352.981 297.172C353.893 296.209 355.016 295.498 356.35 295.04V293.116C356.35 292.208 356.742 291.751 357.526 291.751C358.273 291.751 358.649 292.206 358.649 293.116V294.655C359.455 294.71 360.318 294.904 361.238 295.238C362.414 295.657 363.002 296.139 363.002 296.683C363.002 297.127 362.855 297.504 362.562 297.814C362.271 298.125 361.921 298.281 361.514 298.281C361.172 298.281 360.693 298.207 360.082 298.059C359.433 297.912 358.955 297.83 358.649 297.814V301.393C358.748 301.393 358.828 301.397 358.883 301.404C360.459 301.536 361.703 302.018 362.617 302.85C363.643 303.779 364.156 305.072 364.156 306.728ZM356.348 298.312C355.179 298.794 354.595 299.393 354.595 300.107C354.595 300.721 355.179 301.109 356.348 301.272V298.312ZM358.649 308.78C360.21 308.19 360.992 307.455 360.992 306.576C360.992 305.255 360.212 304.506 358.649 304.326V308.78Z" fill="white"/>
<path d="M219.109 229.558C213.452 238.066 215.07 249.54 223.079 255.446C231.51 261.664 243.711 259.381 249.92 250.044C256.128 240.706 253.514 228.571 244.517 223.203C235.973 218.103 224.766 221.051 219.109 229.558Z" fill="#FFCC3D"/>
<path d="M233.697 259.596C229.729 259.596 225.911 258.356 222.687 255.978C214.434 249.89 212.622 238.125 218.56 229.194C224.499 220.263 236.048 217.381 244.856 222.637C249.264 225.268 252.329 229.524 253.483 234.619C254.71 240.032 253.641 245.64 250.469 250.41C247.298 255.181 242.541 258.337 237.074 259.299C235.943 259.499 234.815 259.596 233.697 259.596ZM219.659 229.923C214.11 238.268 215.784 249.247 223.469 254.915C227.307 257.746 232.054 258.841 236.845 257.999C241.952 257.099 246.401 254.144 249.37 249.678C252.34 245.211 253.344 239.966 252.197 234.908C251.123 230.169 248.275 226.212 244.178 223.768C235.98 218.874 225.208 221.58 219.659 229.923Z" fill="#252F4A"/>
<path d="M246.849 224.953C255.846 230.32 258.461 242.456 252.252 251.793C246.043 261.131 233.842 263.414 225.411 257.196L223.079 255.446C231.51 261.664 243.711 259.381 249.92 250.044C256.128 240.706 253.514 228.571 244.517 223.203L246.849 224.953Z" fill="#252F4A"/>
<path d="M236.03 261.346C232.062 261.346 228.244 260.105 225.02 257.727L222.682 255.976C222.392 255.758 222.332 255.346 222.548 255.055C222.762 254.763 223.175 254.701 223.47 254.917C227.308 257.748 232.06 258.843 236.845 258C241.953 257.101 246.401 254.146 249.37 249.679C252.34 245.213 253.344 239.968 252.197 234.91C251.373 231.273 249.504 228.097 246.828 225.711C246.723 225.645 246.619 225.581 246.511 225.519C246.491 225.506 246.472 225.493 246.454 225.481L244.122 223.731C243.841 223.52 243.776 223.126 243.97 222.835C244.166 222.544 244.552 222.456 244.856 222.635C245.849 223.229 246.775 223.903 247.626 224.652C251.802 227.3 254.702 231.44 255.817 236.364C257.045 241.778 255.975 247.386 252.804 252.156C249.632 256.927 244.875 260.083 239.408 261.045C238.276 261.247 237.147 261.346 236.03 261.346ZM231.78 259.499C234.15 260.098 236.66 260.191 239.177 259.748C244.285 258.849 248.733 255.894 251.703 251.427C254.672 246.961 255.676 241.716 254.529 236.658C254.115 234.827 253.436 233.114 252.522 231.561C252.921 232.539 253.243 233.56 253.483 234.617C254.711 240.03 253.641 245.638 250.47 250.409C247.298 255.179 242.541 258.336 237.074 259.297C235.292 259.613 233.515 259.677 231.78 259.499Z" fill="#252F4A"/>
<path d="M240.864 243.396C240.864 244.865 240.289 246.081 239.142 247.045C238.201 247.838 236.938 248.413 235.356 248.771V251.685C235.356 252.517 234.945 252.933 234.126 252.933C233.769 252.933 233.492 252.785 233.293 252.49C233.135 252.248 233.058 251.98 233.058 251.685V249.11C232.78 249.124 232.509 249.133 232.245 249.133C230.812 249.133 229.697 248.923 228.896 248.503C228.176 248.129 227.817 247.651 227.817 247.069C227.817 245.957 228.379 245.402 229.506 245.402C229.797 245.402 230.294 245.517 230.994 245.746C231.692 245.975 232.144 246.09 232.351 246.09C232.543 246.09 232.778 246.07 233.056 246.032V240.891C231.809 240.805 230.746 240.517 229.871 240.028C228.722 239.391 228.148 238.51 228.148 237.383C228.148 236.101 228.661 234.919 229.689 233.84C230.602 232.876 231.725 232.165 233.058 231.707V229.784C233.058 228.875 233.45 228.419 234.234 228.419C234.982 228.419 235.357 228.873 235.357 229.784V231.323C236.163 231.378 237.026 231.572 237.946 231.905C239.122 232.325 239.71 232.807 239.71 233.351C239.71 233.794 239.564 234.171 239.271 234.481C238.979 234.792 238.629 234.948 238.223 234.948C237.88 234.948 237.402 234.875 236.79 234.727C236.141 234.58 235.663 234.498 235.357 234.481V238.061C235.456 238.061 235.537 238.064 235.592 238.072C237.167 238.204 238.411 238.685 239.326 239.517C240.351 240.448 240.864 241.741 240.864 243.396ZM233.058 234.979C231.889 235.461 231.305 236.06 231.305 236.775C231.305 237.388 231.889 237.777 233.058 237.94V234.979ZM235.357 245.447C236.918 244.857 237.701 244.123 237.701 243.243C237.701 241.923 236.92 241.173 235.357 240.994V245.447Z" fill="white"/>
<path d="M181.756 149.566L185.948 136.801L179.296 134.615C179.745 130.559 179.404 126.529 178.389 122.709L184.642 119.543L178.58 107.551L172.327 110.717C169.854 107.628 166.809 104.972 163.277 102.929L165.462 96.2769L152.692 92.0835L150.506 98.7355C146.45 98.2866 142.421 98.6201 138.6 99.6423L135.441 93.386L123.449 99.4481L126.608 105.704C123.526 108.179 120.862 111.222 118.82 114.754L112.168 112.569L107.976 125.334L114.628 127.52C114.177 131.583 114.518 135.612 115.535 139.426L109.282 142.592L115.344 154.584L121.597 151.418C124.07 154.505 127.115 157.163 130.647 159.206L128.46 165.865L141.231 170.059L143.418 163.4C147.474 163.848 151.503 163.513 155.324 162.493L158.482 168.749L170.475 162.687L167.316 156.431C170.396 153.963 173.058 150.918 175.104 147.381L181.756 149.566ZM143.158 146.884C133.391 144.512 128.095 134.04 131.97 124.761C135.018 117.462 143.081 113.386 150.766 115.258C160.536 117.64 165.827 128.113 161.949 137.383C158.897 144.677 150.839 148.751 143.158 146.884Z" fill="#713BEE"/>
<path d="M222.797 95.4799L225.743 86.5086L221.067 84.9734C221.382 82.1228 221.144 79.2906 220.43 76.6067L224.825 74.3808L220.564 65.9536L216.169 68.1795C214.43 66.0086 212.29 64.1418 209.808 62.7055L211.343 58.0302L202.368 55.0825L200.833 59.7578C197.982 59.4427 195.152 59.6772 192.466 60.3953L190.248 55.9985L181.82 60.2597L184.039 64.6565C181.874 66.3951 180.001 68.5349 178.565 71.0173L173.89 69.482L170.944 78.4533L175.619 79.9886C175.302 82.8446 175.542 85.6751 176.257 88.3553L171.862 90.5812L176.123 99.0084L180.518 96.7825C182.256 98.9516 184.396 100.82 186.879 102.257L185.342 106.935L194.317 109.883L195.854 105.204C198.704 105.519 201.535 105.285 204.22 104.567L206.439 108.963L214.866 104.702L212.647 100.305C214.811 98.5705 216.683 96.4308 218.122 93.9447L222.797 95.4799ZM195.67 93.5948C188.808 91.9277 185.083 84.5686 187.807 78.0466C189.949 72.917 195.617 70.0518 201.018 71.369C207.884 73.0416 211.603 80.4026 208.877 86.919C206.732 92.0431 201.069 94.9065 195.67 93.5948Z" fill="#E6F3FC"/>
<path d="M371.469 123.704C385.33 123.704 396.567 112.467 396.567 98.6057C396.567 84.7443 385.33 73.5073 371.469 73.5073C357.608 73.5073 346.371 84.7443 346.371 98.6057C346.371 112.467 357.608 123.704 371.469 123.704Z" fill="#252F4A"/>
<path d="M367.239 110.778L359.22 102.759L362.95 99.0271L367.239 103.316L379.988 90.5669L383.72 94.2968L367.239 110.778Z" fill="white"/>
<path d="M389.567 402.917H64.1493C63.7847 402.917 63.4897 402.622 63.4897 402.258C63.4897 401.893 63.7847 401.598 64.1493 401.598H389.569C389.934 401.598 390.229 401.893 390.229 402.258C390.229 402.622 389.932 402.917 389.567 402.917Z" fill="#252F4A"/>
<path d="M63.6271 262L58.9848 264.922C56.8047 266.281 53.9413 265.629 52.5801 263.466L49.6581 258.823C48.295 256.658 48.9472 253.795 51.1108 252.433L55.7568 249.495C57.9204 248.132 60.7838 248.784 62.1615 250.951L65.0798 255.61C66.4428 257.774 65.7906 260.637 63.6271 262Z" fill="#5DCED8"/>
<path d="M77.8818 170.052L75.4727 171.568C74.3423 172.274 72.8566 171.935 72.1494 170.812L70.6325 168.403C69.9254 167.28 70.2643 165.794 71.3873 165.087L73.7982 163.563C74.9212 162.855 76.407 163.194 77.1215 164.319L78.6365 166.736C79.3419 167.859 79.0048 169.344 77.8818 170.052Z" fill="#713BEE"/>
<path d="M181.178 244.567L178.769 246.084C177.638 246.789 176.152 246.45 175.445 245.327L173.928 242.918C173.221 241.795 173.56 240.309 174.683 239.602L177.094 238.078C178.217 237.371 179.703 237.71 180.417 238.834L181.932 241.251C182.638 242.376 182.301 243.86 181.178 244.567Z" fill="#713BEE"/>
<path d="M281.796 90.5486L279.387 92.0655C278.257 92.7709 276.771 92.4319 276.064 91.3089L274.547 88.8998C273.84 87.7768 274.179 86.2911 275.302 85.5839L277.713 84.0597C278.836 83.3525 280.322 83.6915 281.036 84.8163L282.551 87.2327C283.258 88.3557 282.919 89.8415 281.796 90.5486Z" fill="#5DCED8"/>
<path d="M365.902 247.34L363.493 248.857C362.362 249.562 360.877 249.223 360.169 248.1L358.653 245.691C357.945 244.568 358.284 243.083 359.407 242.375L361.818 240.851C362.941 240.144 364.427 240.483 365.142 241.608L366.657 244.024C367.362 245.147 367.025 246.633 365.902 247.34Z" fill="#FFCC3D"/>
</svg>
