<svg width="24" height="24" viewBox="0 0 24 24" fill="none" xmlns="http://www.w3.org/2000/svg">
<path opacity="0.13" d="M10.5 5.25V18.75L3.75 12L10.5 5.25Z" fill="#252F4A"/>
<path d="M20.2501 11.25H11.2501V5.24998C11.2502 5.10156 11.2063 4.95644 11.1239 4.83299C11.0415 4.70955 10.9243 4.61333 10.7872 4.55651C10.6501 4.4997 10.4992 4.48485 10.3536 4.51383C10.2081 4.54282 10.0744 4.61435 9.96948 4.71936L3.21948 11.4694C3.14974 11.539 3.09443 11.6217 3.05668 11.7128C3.01894 11.8038 2.99951 11.9014 2.99951 12C2.99951 12.0985 3.01894 12.1961 3.05668 12.2872C3.09443 12.3782 3.14974 12.4609 3.21948 12.5306L9.96948 19.2806C10.0744 19.3856 10.2081 19.4571 10.3536 19.4861C10.4992 19.5151 10.6501 19.5003 10.7872 19.4434C10.9243 19.3866 11.0415 19.2904 11.1239 19.167C11.2063 19.0435 11.2502 18.8984 11.2501 18.75V12.75H20.2501C20.449 12.75 20.6398 12.671 20.7804 12.5303C20.9211 12.3897 21.0001 12.1989 21.0001 12C21.0001 11.8011 20.9211 11.6103 20.7804 11.4696C20.6398 11.329 20.449 11.25 20.2501 11.25ZM9.7501 16.9397L4.81041 12L9.7501 7.06029V16.9397Z" fill="#252F4A"/>
</svg>
