<svg width="24" height="24" viewBox="0 0 24 24" fill="none" xmlns="http://www.w3.org/2000/svg">
<path d="M23.1431 3.69897V7.10948" stroke="#252F4A" stroke-width="1.5" stroke-linecap="round" stroke-linejoin="round"/>
<path d="M19.4468 0.857178V9.95182" stroke="#252F4A" stroke-width="1.5" stroke-linecap="round" stroke-linejoin="round"/>
<path d="M15.751 3.69897V7.10948" stroke="#252F4A" stroke-width="1.5" stroke-linecap="round" stroke-linejoin="round"/>
<path d="M6.82684 6.41431C5.52107 5.27663 3.60878 5.48057 2.58021 6.87391C2.42627 7.08252 2.24078 7.32645 2.00044 7.62715C0.475067 9.53505 0.475067 12.2976 2.00884 14.1988C3.14095 15.6022 4.3281 17.0184 5.65513 18.3454C6.98203 19.6724 8.39819 20.8594 9.80166 21.9917C11.7028 23.5253 14.4654 23.5253 16.3733 22.0001C16.7113 21.7299 16.9766 21.5299 17.2005 21.3663C18.5509 20.3799 18.7799 18.5323 17.6862 17.2669C17.1883 16.691 16.6606 16.1325 16.1402 15.5846C15.4214 14.8278 14.1875 14.7436 13.4 15.4287C13.2618 15.5489 13.0861 15.7078 12.843 15.9356C10.6606 14.6388 9.33798 13.3 8.06481 11.1574C8.29677 10.91 8.45745 10.7321 8.57877 10.5925C9.26246 9.80539 9.17884 8.57519 8.41717 7.86331C7.89601 7.37621 7.36759 6.8855 6.82684 6.41431Z" fill="#252F4A" fill-opacity="0.13"/>
<path d="M6.82684 6.41431C5.52107 5.27663 3.60878 5.48057 2.58021 6.87391C2.42627 7.08252 2.24078 7.32645 2.00044 7.62715C0.475067 9.53505 0.475067 12.2976 2.00884 14.1988C3.14095 15.6022 4.3281 17.0184 5.65513 18.3454C6.98205 19.6724 8.39819 20.8594 9.80166 21.9917C11.7028 23.5253 14.4654 23.5253 16.3733 22.0001C16.7113 21.7299 16.9766 21.5299 17.2005 21.3663C18.5509 20.3799 18.7799 18.5323 17.6862 17.2669C17.1883 16.691 16.6606 16.1325 16.1402 15.5846C15.4214 14.8278 14.1875 14.7436 13.4 15.4287C13.2618 15.5489 13.0861 15.7078 12.843 15.9356C10.6606 14.6388 9.33798 13.3 8.06479 11.1574C8.29677 10.91 8.45745 10.7321 8.57877 10.5925C9.26246 9.80539 9.17884 8.57519 8.41717 7.86331C7.89601 7.37621 7.36759 6.8855 6.82684 6.41431Z" stroke="#252F4A" stroke-width="1.5" stroke-linecap="round" stroke-linejoin="round"/>
</svg>
