<svg width="12" height="12" viewBox="0 0 12 12" fill="none" xmlns="http://www.w3.org/2000/svg">
<path fill-rule="evenodd" clip-rule="evenodd" d="M4.36359 0.545471C4.07426 0.545471 3.79679 0.660406 3.5922 0.864991C3.38762 1.06958 3.27268 1.34705 3.27268 1.63638V2.18183C3.27268 2.3265 3.33015 2.46524 3.43244 2.56753C3.53474 2.66982 3.67347 2.72729 3.81814 2.72729C3.9628 2.72729 4.10154 2.66982 4.20383 2.56753C4.30612 2.46524 4.36359 2.3265 4.36359 2.18183V1.63638H4.90905C5.05371 1.63638 5.19245 1.57891 5.29474 1.47662C5.39703 1.37433 5.4545 1.23559 5.4545 1.09093C5.4545 0.946262 5.39703 0.807524 5.29474 0.705231C5.19245 0.602939 5.05371 0.545471 4.90905 0.545471H4.36359ZM7.09086 0.545471C6.9462 0.545471 6.80746 0.602939 6.70517 0.705231C6.60288 0.807524 6.54541 0.946262 6.54541 1.09093C6.54541 1.23559 6.60288 1.37433 6.70517 1.47662C6.80746 1.57891 6.9462 1.63638 7.09086 1.63638H7.63632C7.78098 1.63638 7.91972 1.57891 8.02201 1.47662C8.12431 1.37433 8.18177 1.23559 8.18177 1.09093C8.18177 0.946262 8.12431 0.807524 8.02201 0.705231C7.91972 0.602939 7.78098 0.545471 7.63632 0.545471H7.09086ZM9.81814 0.545471C9.67347 0.545471 9.53473 0.602939 9.43244 0.705231C9.33015 0.807524 9.27268 0.946262 9.27268 1.09093C9.27268 1.23559 9.33015 1.37433 9.43244 1.47662C9.53473 1.57891 9.67347 1.63638 9.81814 1.63638H10.3636V2.18183C10.3636 2.3265 10.4211 2.46524 10.5234 2.56753C10.6256 2.66982 10.7644 2.72729 10.909 2.72729C11.0537 2.72729 11.1924 2.66982 11.2947 2.56753C11.397 2.46524 11.4545 2.3265 11.4545 2.18183V1.63638C11.4545 1.34705 11.3396 1.06958 11.135 0.864991C10.9304 0.660406 10.6529 0.545471 10.3636 0.545471H9.81814ZM11.4545 4.36365C11.4545 4.21899 11.397 4.08025 11.2947 3.97796C11.1924 3.87567 11.0537 3.8182 10.909 3.8182C10.7644 3.8182 10.6256 3.87567 10.5234 3.97796C10.4211 4.08025 10.3636 4.21899 10.3636 4.36365V4.90911C10.3636 5.05377 10.4211 5.19251 10.5234 5.2948C10.6256 5.39709 10.7644 5.45456 10.909 5.45456C11.0537 5.45456 11.1924 5.39709 11.2947 5.2948C11.397 5.19251 11.4545 5.05377 11.4545 4.90911V4.36365ZM11.4545 7.09093C11.4545 6.94626 11.397 6.80752 11.2947 6.70523C11.1924 6.60294 11.0537 6.54547 10.909 6.54547C10.7644 6.54547 10.6256 6.60294 10.5234 6.70523C10.4211 6.80752 10.3636 6.94626 10.3636 7.09093V7.63638H9.81814C9.67347 7.63638 9.53473 7.69385 9.43244 7.79614C9.33015 7.89843 9.27268 8.03717 9.27268 8.18183C9.27268 8.3265 9.33015 8.46524 9.43244 8.56753C9.53473 8.66982 9.67347 8.72729 9.81814 8.72729H10.3636C10.6529 8.72729 10.9304 8.61235 11.135 8.40777C11.3396 8.20318 11.4545 7.92571 11.4545 7.63638V7.09093ZM1.63632 3.27274C1.34699 3.27274 1.06952 3.38768 0.86493 3.59226C0.660345 3.79685 0.54541 4.07433 0.54541 4.36365V10.3637C0.54541 10.653 0.660345 10.9305 0.86493 11.135C1.06952 11.3396 1.34699 11.4546 1.63632 11.4546H7.63632C7.92565 11.4546 8.20312 11.3396 8.40771 11.135C8.61229 10.9305 8.72723 10.653 8.72723 10.3637V4.36365C8.72723 4.07433 8.61229 3.79685 8.40771 3.59226C8.20312 3.38768 7.92565 3.27274 7.63632 3.27274H1.63632Z" fill="#99A1B7"/>
</svg>
