<svg width="24" height="24" viewBox="0 0 24 24" fill="none" xmlns="http://www.w3.org/2000/svg">
<g clip-path="url(#clip0_440_5)">
<path d="M3.42864 4.28564C2.97398 4.28564 2.53795 4.46626 2.21645 4.78774C1.89497 5.10924 1.71436 5.54527 1.71436 5.99993V20.5714C1.71436 21.026 1.89497 21.4621 2.21645 21.7835C2.53795 22.105 2.97398 22.2856 3.42864 22.2856H20.5715C21.0261 22.2856 21.4622 22.105 21.7837 21.7835C22.1051 21.4621 22.2858 21.026 22.2858 20.5714V5.99993C22.2858 5.54527 22.1051 5.10924 21.7837 4.78774C21.4622 4.46626 21.0261 4.28564 20.5715 4.28564H3.42864Z" fill="#252F4A" fill-opacity="0.13"/>
<path d="M6.85742 11.1431H17.1431" stroke="#252F4A" stroke-width="1.5" stroke-linecap="round" stroke-linejoin="round"/>
<path d="M6.85742 16.2856H12.0003" stroke="#252F4A" stroke-width="1.5" stroke-linecap="round" stroke-linejoin="round"/>
<path d="M3.42864 4.28564C2.97398 4.28564 2.53795 4.46626 2.21645 4.78774C1.89497 5.10924 1.71436 5.54527 1.71436 5.99993V20.5714C1.71436 21.026 1.89497 21.4621 2.21645 21.7835C2.53795 22.105 2.97398 22.2856 3.42864 22.2856H20.5715C21.0261 22.2856 21.4622 22.105 21.7837 21.7835C22.1051 21.4621 22.2858 21.026 22.2858 20.5714V5.99993C22.2858 5.54527 22.1051 5.10924 21.7837 4.78774C21.4622 4.46626 21.0261 4.28564 20.5715 4.28564H3.42864Z" stroke="#252F4A" stroke-width="1.5" stroke-linecap="round" stroke-linejoin="round"/>
<path d="M6 1.71436V6.85721" stroke="#252F4A" stroke-width="1.5" stroke-linecap="round" stroke-linejoin="round"/>
<path d="M18 1.71436V6.85721" stroke="#252F4A" stroke-width="1.5" stroke-linecap="round" stroke-linejoin="round"/>
</g>
<defs>
<clipPath id="clip0_440_5">
<rect width="24" height="24" fill="white"/>
</clipPath>
</defs>
</svg>
