<svg width="15" height="15" viewBox="0 0 12 12" fill="none" xmlns="http://www.w3.org/2000/svg">
<path d="M5.14293 3.42857H6.85721C6.85721 3.20124 6.76691 2.98323 6.60616 2.82248C6.44542 2.66174 6.2274 2.57143 6.00007 2.57143C5.77274 2.57143 5.55472 2.66174 5.39398 2.82248C5.23323 2.98323 5.14293 3.20124 5.14293 3.42857ZM4.28578 3.42857C4.28578 2.97392 4.4664 2.53788 4.78789 2.21639C5.10938 1.8949 5.54541 1.71429 6.00007 1.71429C6.45473 1.71429 6.89076 1.8949 7.21225 2.21639C7.53374 2.53788 7.71435 2.97392 7.71435 3.42857H9.85721C9.97088 3.42857 10.0799 3.47373 10.1603 3.5541C10.2406 3.63447 10.2858 3.74348 10.2858 3.85714C10.2858 3.97081 10.2406 4.07982 10.1603 4.16019C10.0799 4.24056 9.97088 4.28572 9.85721 4.28572H9.47921L9.0995 8.71714C9.06299 9.14506 8.8672 9.54368 8.55086 9.83415C8.23452 10.1246 7.82068 10.2858 7.39121 10.2857H4.60893C4.17946 10.2858 3.76562 10.1246 3.44928 9.83415C3.13294 9.54368 2.93715 9.14506 2.90064 8.71714L2.52093 4.28572H2.14293C2.02926 4.28572 1.92025 4.24056 1.83988 4.16019C1.75951 4.07982 1.71436 3.97081 1.71436 3.85714C1.71436 3.74348 1.75951 3.63447 1.83988 3.5541C1.92025 3.47373 2.02926 3.42857 2.14293 3.42857H4.28578ZM7.28578 6C7.28578 5.88634 7.24063 5.77733 7.16026 5.69695C7.07989 5.61658 6.97088 5.57143 6.85721 5.57143C6.74355 5.57143 6.63454 5.61658 6.55417 5.69695C6.47379 5.77733 6.42864 5.88634 6.42864 6V7.71429C6.42864 7.82795 6.47379 7.93696 6.55417 8.01733C6.63454 8.0977 6.74355 8.14286 6.85721 8.14286C6.97088 8.14286 7.07989 8.0977 7.16026 8.01733C7.24063 7.93696 7.28578 7.82795 7.28578 7.71429V6ZM5.14293 5.57143C5.02926 5.57143 4.92025 5.61658 4.83988 5.69695C4.75951 5.77733 4.71435 5.88634 4.71435 6V7.71429C4.71435 7.82795 4.75951 7.93696 4.83988 8.01733C4.92025 8.0977 5.02926 8.14286 5.14293 8.14286C5.25659 8.14286 5.3656 8.0977 5.44597 8.01733C5.52634 7.93696 5.5715 7.82795 5.5715 7.71429V6C5.5715 5.88634 5.52634 5.77733 5.44597 5.69695C5.3656 5.61658 5.25659 5.57143 5.14293 5.57143Z" fill="white"/>
</svg>
