<svg width="24" height="24" viewBox="0 0 24 24" fill="none" xmlns="http://www.w3.org/2000/svg">
<path d="M6.17366 2.88645C4.91947 3.00628 3.75024 3.48216 2.85662 4.23653C1.96301 4.99089 1.39774 5.97923 1.25297 7.04037C1.03903 8.65487 0.857178 10.3101 0.857178 12C0.857178 13.69 1.03903 15.3467 1.25297 16.9597C1.39774 18.0208 1.96301 19.0092 2.85662 19.7635C3.75024 20.518 4.91947 20.9939 6.17366 21.1137C8.06884 21.2856 10.0157 21.4305 12 21.4305C13.9844 21.4305 15.9312 21.2856 17.8283 21.1137C19.0824 20.9939 20.2516 20.518 21.1452 19.7635C22.0389 19.0092 22.6041 18.0208 22.749 16.9597C22.9593 15.3452 23.1429 13.69 23.1429 12C23.1429 10.3101 22.961 8.65336 22.7471 7.04037C22.6024 5.97923 22.037 4.99089 21.1435 4.23653C20.2499 3.48216 19.0806 3.00628 17.8264 2.88645C15.933 2.71444 13.9861 2.56958 12 2.56958C10.0139 2.56958 8.06884 2.71444 6.17366 2.88645Z" fill="#252F4A" fill-opacity="0.13"/>
<path d="M1.87476 5.39997C4.21325 7.66053 6.64897 9.754 9.32602 11.5993C10.9391 12.7111 13.0606 12.7111 14.6736 11.5992C17.3508 9.75395 19.7864 7.66046 22.1249 5.3999" stroke="#252F4A" stroke-width="1.5" stroke-linecap="round" stroke-linejoin="round"/>
<path d="M6.17366 2.88645C4.91947 3.00628 3.75024 3.48216 2.85662 4.23653C1.96301 4.99089 1.39774 5.97923 1.25297 7.04037C1.03903 8.65487 0.857178 10.3101 0.857178 12C0.857178 13.69 1.03903 15.3467 1.25297 16.9597C1.39774 18.0208 1.96301 19.0092 2.85662 19.7635C3.75024 20.518 4.91947 20.9939 6.17366 21.1137C8.06884 21.2856 10.0157 21.4305 12 21.4305C13.9844 21.4305 15.9312 21.2856 17.8283 21.1137C19.0824 20.9939 20.2516 20.518 21.1452 19.7635C22.0389 19.0092 22.6041 18.0208 22.749 16.9597C22.9593 15.3452 23.1429 13.69 23.1429 12C23.1429 10.3101 22.961 8.65336 22.7471 7.04037C22.6024 5.97923 22.037 4.99089 21.1435 4.23653C20.2499 3.48216 19.0806 3.00628 17.8264 2.88645C15.933 2.71444 13.9861 2.56958 12 2.56958C10.0139 2.56958 8.06884 2.71444 6.17366 2.88645Z" stroke="#252F4A" stroke-width="1.5" stroke-linecap="round" stroke-linejoin="round"/>
</svg>
