<svg width="20" height="20" viewBox="0 0 20 20" fill="none" xmlns="http://www.w3.org/2000/svg">
<g clip-path="url(#clip0_1_7200)">
<path fill-rule="evenodd" clip-rule="evenodd" d="M17.9044 5.12441C16.9262 4.40752 15.5449 4.49108 14.6609 5.37509C14.0816 5.95434 13.8461 6.7471 13.9541 7.50001H9.28578C7.90507 7.50001 6.78578 8.6193 6.78578 10C6.78578 11.3807 7.90507 12.5 9.28578 12.5H13.9541C13.8461 13.2529 14.0816 14.0457 14.6609 14.6249C15.5449 15.509 16.9262 15.5924 17.9044 14.8756C16.2684 17.5223 13.3401 19.2857 10.0001 19.2857C4.87171 19.2857 0.714355 15.1284 0.714355 10C0.714355 4.87165 4.87171 0.714294 10.0001 0.714294C13.3401 0.714294 16.2684 2.47775 17.9044 5.12441Z" fill="white" fill-opacity="0.2"/>
<path d="M9.28589 10H19.2859" stroke="white" stroke-width="1.4" stroke-linecap="round" stroke-linejoin="round"/>
<path d="M16.4287 7.14285L19.2859 10L16.4287 12.8571" stroke="white" stroke-width="1.4" stroke-linecap="round" stroke-linejoin="round"/>
<path d="M16.7077 16.4286C15.4249 17.7657 13.7715 18.6884 11.96 19.078C10.1485 19.4677 8.26185 19.3066 6.5427 18.6153C4.82357 17.9239 3.35057 16.7342 2.31319 15.1989C1.27579 13.6635 0.721436 11.8529 0.721436 10C0.721436 8.14708 1.27579 6.33652 2.31319 4.80122C3.35057 3.26592 4.82357 2.07609 6.5427 1.38478C8.26185 0.69347 10.1485 0.532286 11.96 0.921964C13.7715 1.31164 15.4249 2.23437 16.7077 3.57144" stroke="white" stroke-width="1.4" stroke-linecap="round" stroke-linejoin="round"/>
</g>
<defs>
<clipPath id="clip0_1_7200">
<rect width="20" height="20" fill="white"/>
</clipPath>
</defs>
</svg>
