<svg width="121" height="30" viewBox="0 0 121 30" fill="none" xmlns="http://www.w3.org/2000/svg">
<path d="M30.2344 29H18.4688V27.7344H21.7031L18.1875 18.7344H8.71875L5.29688 27.7344H7.78125C7.96875 27.7344 8.14062 27.75 8.29688 27.7812C8.73438 27.875 8.95312 28.2812 8.95312 29H0.421875V27.7344H3.42188L13.7344 0.875H16.6406L27.6094 27.7344H29.0625C29.2812 27.7344 29.4531 27.75 29.5781 27.7812C30.0156 27.875 30.2344 28.2812 30.2344 29ZM17.625 17.3281L13.4062 6.35938L9.23438 17.3281H17.625ZM54.6719 29H32.4531V27.7344H36.2031V2.14062H32.4531V0.875H45.9531V2.14062H41.9688V27.7344H47.3125C48.1875 27.7344 48.9531 27.5781 49.6094 27.2656C50.8594 26.6719 51.8125 25.2812 52.4688 23.0938L53.6406 19.0625H54.8594L54.6719 29ZM74.5625 16.1562H87.4531V17.4219H84.2656V29L79.1562 27.875C77.0938 28.9062 74.7969 29.4219 72.2656 29.4219C69.0781 29.4219 66.2344 28.5781 63.7344 26.8906C59.8594 24.2344 57.9219 20.2031 57.9219 14.7969C57.9219 10.4219 59.2812 6.90625 62 4.25C64.6875 1.6875 68.0781 0.40625 72.1719 0.40625C74.4844 0.40625 76.6875 0.875 78.7812 1.8125L83.0938 0.921875L83.2812 10.5781H81.9219C81.5469 8.98438 81.0938 7.60938 80.5625 6.45312C79.0625 3.35938 76.5781 1.8125 73.1094 1.8125C67.3281 1.84375 64.4219 6.23438 64.3906 14.9844C64.3906 17.2969 64.5781 19.2969 64.9531 20.9844C65.9844 25.6719 68.625 28.0156 72.875 28.0156C75.2188 28.0156 77.1406 27.2812 78.6406 25.8125V17.4219H74.5625V16.1562ZM106.219 0.40625C109.656 0.40625 112.656 1.35938 115.219 3.26562C118.844 5.95312 120.656 9.85938 120.656 14.9844C120.656 19.2969 119.188 22.8281 116.25 25.5781C113.469 28.1719 110.078 29.4688 106.078 29.4688C102.547 29.4688 99.4531 28.4375 96.7969 26.375C93.2656 23.625 91.5 19.7656 91.5 14.7969C91.5 10.4844 92.9844 6.96875 95.9531 4.25C98.7656 1.6875 102.188 0.40625 106.219 0.40625ZM106.219 28.1094C106.969 28.1094 107.672 28.0312 108.328 27.875C112.203 26.8438 114.141 22.4844 114.141 14.7969C114.141 12.7656 114 10.9688 113.719 9.40625C112.812 4.3125 110.266 1.76562 106.078 1.76562C105.797 1.76562 105.5 1.78125 105.188 1.8125C100.406 2.25 98.0156 6.64062 98.0156 14.9844C98.0156 17.7344 98.2656 20.0625 98.7656 21.9688C99.8594 26.0625 102.344 28.1094 106.219 28.1094Z" fill="#FF5733"/>
</svg>
