<svg width="8" height="10" viewBox="0 0 8 10" fill="none" xmlns="http://www.w3.org/2000/svg">
<path d="M1.11723 9.31254C0.973325 9.31227 0.831972 9.27455 0.70707 9.20309C0.42582 9.04371 0.250977 8.73434 0.250977 8.39848V1.6016C0.250977 1.26481 0.42582 0.956369 0.70707 0.796994C0.834946 0.723503 0.980215 0.68571 1.12769 0.687565C1.27517 0.68942 1.41944 0.730856 1.54543 0.807541L7.35442 4.28473C7.47548 4.36064 7.57528 4.46606 7.64446 4.59109C7.71364 4.71612 7.74993 4.85668 7.74993 4.99957C7.74993 5.14247 7.71364 5.28302 7.64446 5.40806C7.57528 5.53309 7.47548 5.6385 7.35442 5.71442L1.54449 9.19254C1.41556 9.27049 1.26789 9.31196 1.11723 9.31254Z" fill="white"/>
</svg>
