<svg width="20" height="20" viewBox="0 0 20 20" fill="none" xmlns="http://www.w3.org/2000/svg">
<g clip-path="url(#clip0_1_11912)">
<path d="M9.3055 17.6388C13.9079 17.6388 17.6388 13.9079 17.6388 9.3055C17.6388 4.70313 13.9079 0.972168 9.3055 0.972168C4.70313 0.972168 0.972168 4.70313 0.972168 9.3055C0.972168 13.9079 4.70313 17.6388 9.3055 17.6388Z" fill="white" fill-opacity="0.2"/>
<path d="M9.3055 17.6388C13.9079 17.6388 17.6388 13.9079 17.6388 9.3055C17.6388 4.70313 13.9079 0.972168 9.3055 0.972168C4.70313 0.972168 0.972168 4.70313 0.972168 9.3055C0.972168 13.9079 4.70313 17.6388 9.3055 17.6388Z" stroke="white" stroke-width="1.4" stroke-linecap="round" stroke-linejoin="round"/>
<path d="M15.1943 15.1943L19.0277 19.0277" stroke="white" stroke-width="1.4" stroke-linecap="round" stroke-linejoin="round"/>
<path d="M11.3738 7.14507C11.3027 6.94381 11.1929 6.76079 11.0534 6.60494C10.7567 6.27344 10.3255 6.06482 9.84564 6.06482H8.59142C7.79259 6.06482 7.14502 6.71239 7.14502 7.51122C7.14502 8.19094 7.61831 8.77896 8.28233 8.92421L10.1919 9.34193C10.9358 9.50465 11.466 10.1639 11.466 10.9254C11.466 11.8203 10.7406 12.5463 9.84564 12.5463H8.76539C8.05987 12.5463 7.45966 12.0954 7.23721 11.4661" stroke="white" stroke-width="1.4" stroke-linecap="round" stroke-linejoin="round"/>
<path d="M9.30542 6.06471V4.44434" stroke="white" stroke-width="1.4" stroke-linecap="round" stroke-linejoin="round"/>
<path d="M9.30542 14.1667V12.5463" stroke="white" stroke-width="1.4" stroke-linecap="round" stroke-linejoin="round"/>
</g>
<defs>
<clipPath id="clip0_1_11912">
<rect width="20" height="20" fill="white"/>
</clipPath>
</defs>
</svg>
