<svg width="20" height="20" viewBox="0 0 20 20" fill="none" xmlns="http://www.w3.org/2000/svg">
<g clip-path="url(#clip0_136_49)">
<path d="M16.9443 1.66666H3.05539C2.28834 1.66666 1.6665 2.28849 1.6665 3.05555V6.77143C1.6665 12.0172 5.02325 16.6744 9.99984 18.3333C14.9764 16.6744 18.3332 12.0172 18.3332 6.77143V3.05555C18.3332 2.28849 17.7114 1.66666 16.9443 1.66666Z" fill="white" fill-opacity="0.2"/>
<path d="M7.22217 7.22221C7.22217 7.95892 7.51483 8.66546 8.03576 9.18639C8.55669 9.70733 9.26323 9.99998 9.99995 9.99998C10.7367 9.99998 11.4432 9.70733 11.9641 9.18639C12.4851 8.66546 12.7777 7.95892 12.7777 7.22221C12.7777 6.48549 12.4851 5.77895 11.9641 5.25802C11.4432 4.73709 10.7367 4.44443 9.99995 4.44443C9.26323 4.44443 8.55669 4.73709 8.03576 5.25802C7.51483 5.77895 7.22217 6.48549 7.22217 7.22221Z" stroke="white" stroke-width="1.4" stroke-linecap="round" stroke-linejoin="round"/>
<path d="M9.9996 18.3333C12.1568 17.6143 14.0097 16.3318 15.4167 14.6822C14.1439 13.0976 12.1902 12.0833 9.9996 12.0833C7.80899 12.0833 5.8553 13.0976 4.58252 14.6822C5.98953 16.3318 7.84238 17.6143 9.9996 18.3333Z" stroke="white" stroke-width="1.4" stroke-linecap="round" stroke-linejoin="round"/>
<path d="M16.9443 1.66666H3.05539C2.28834 1.66666 1.6665 2.28849 1.6665 3.05555V6.77143C1.6665 12.0172 5.02325 16.6744 9.99984 18.3333C14.9764 16.6744 18.3332 12.0172 18.3332 6.77143V3.05555C18.3332 2.28849 17.7114 1.66666 16.9443 1.66666Z" stroke="white" stroke-width="1.4" stroke-linecap="round" stroke-linejoin="round"/>
</g>
<defs>
<clipPath id="clip0_136_49">
<rect width="20" height="20" fill="white"/>
</clipPath>
</defs>
</svg>
