<svg width="24" height="24" viewBox="0 0 24 24" fill="none" xmlns="http://www.w3.org/2000/svg">
<g clip-path="url(#clip0_443_213)">
<path fill-rule="evenodd" clip-rule="evenodd" d="M18.9932 6.79822C21.6507 6.84459 23.1426 8.37783 23.1426 11.0715C23.1426 14.9151 19.9709 16.364 16.915 16.9081C16.3211 16.561 15.6414 16.4385 14.9898 16.5292V13.8212C14.9898 12.1644 13.6466 10.8212 11.9898 10.8212C10.3329 10.8212 8.98978 12.1644 8.98978 13.8212V16.5263C8.44239 16.4541 7.87608 16.5321 7.35816 16.7671C4.13388 16.088 0.856934 14.4267 0.856934 10.3782C0.856934 6.87919 2.8251 4.91101 6.32408 4.91101L6.39198 4.91125C7.15855 2.29183 9.29149 0.856934 12.5405 0.856934C16.5004 0.856934 18.8024 2.98846 18.9932 6.79822Z" fill="#252F4A" fill-opacity="0.13"/>
<path d="M6.4789 16.5562C3.56448 15.7658 0.856934 14.0582 0.856934 10.3782C0.856934 6.87919 2.8251 4.91101 6.32408 4.91101L6.39199 4.91125C7.15855 2.29183 9.29149 0.856934 12.5405 0.856934C16.5004 0.856934 18.8024 2.98846 18.9932 6.79822C21.6507 6.84459 23.1426 8.37783 23.1426 11.0715C23.1426 14.5434 20.5546 16.0614 17.8016 16.7235" stroke="#252F4A" stroke-width="1.5" stroke-linecap="round" stroke-linejoin="round"/>
<path d="M8.59521 19.5361C9.8188 21.0296 10.5649 21.7758 11.9991 22.94C13.4333 21.7758 14.1794 21.0296 15.403 19.5361" stroke="#252F4A" stroke-width="1.5" stroke-linecap="round" stroke-linejoin="round"/>
<path d="M11.9995 13.8569V22.922" stroke="#252F4A" stroke-width="1.5" stroke-linecap="round" stroke-linejoin="round"/>
<path d="M6.271 4.91406C8.28977 4.91406 10.0952 6.24469 10.6648 7.46038" stroke="#252F4A" stroke-width="1.5" stroke-linecap="round" stroke-linejoin="round"/>
</g>
<defs>
<clipPath id="clip0_443_213">
<rect width="24" height="24" fill="white"/>
</clipPath>
</defs>
</svg>
