<svg width="18" height="20" viewBox="0 0 18 20" fill="white" stroke="white" xmlns="http://www.w3.org/2000/svg">
<path d="M6.47142 3.21429L7.08571 1.62858C7.18929 1.3601 7.37156 1.12917 7.60864 0.966026C7.84569 0.802886 8.12651 0.715144 8.41428 0.714294H9.58571C9.87348 0.715144 10.1543 0.802886 10.3913 0.966026C10.6284 1.12917 10.8107 1.3601 10.9143 1.62858L11.5286 3.21429L13.6143 4.41429L15.3 4.15715C15.5807 4.11905 15.8664 4.16525 16.1207 4.28989C16.3751 4.41454 16.5867 4.61198 16.7286 4.85715L17.3 5.85715C17.4464 6.10622 17.5138 6.39384 17.4934 6.68204C17.4731 6.97024 17.3657 7.24548 17.1857 7.47144L16.1428 8.80001V11.2L17.2143 12.5286C17.3943 12.7545 17.5017 13.0298 17.522 13.318C17.5424 13.6062 17.475 13.8938 17.3286 14.1429L16.7571 15.1429C16.6153 15.388 16.4037 15.5854 16.1493 15.7102C15.895 15.8347 15.6093 15.881 15.3286 15.8429L13.6428 15.5857L11.5571 16.7857L10.9428 18.3714C10.8392 18.6399 10.657 18.8709 10.4199 19.034C10.1828 19.1972 9.90205 19.2849 9.61428 19.2857H8.41428C8.12651 19.2849 7.84569 19.1972 7.60864 19.034C7.37156 18.8709 7.18929 18.6399 7.08571 18.3714L6.47142 16.7857L4.38571 15.5857L2.69999 15.8429C2.41929 15.881 2.13362 15.8347 1.87925 15.7102C1.62488 15.5854 1.41331 15.388 1.27142 15.1429L0.699993 14.1429C0.553564 13.8938 0.486093 13.6062 0.506507 13.318C0.526907 13.0298 0.634221 12.7545 0.814279 12.5286L1.85714 11.2V8.80001L0.785707 7.47144C0.60565 7.24548 0.498336 6.97024 0.477936 6.68204C0.457521 6.39384 0.524993 6.10622 0.671421 5.85715L1.24285 4.85715C1.38474 4.61198 1.59631 4.41454 1.85068 4.28989C2.10505 4.16525 2.39072 4.11905 2.67142 4.15715L4.35714 4.41429L6.47142 3.21429ZM6.14285 10C6.14285 10.5651 6.31041 11.1175 6.62436 11.5874C6.93831 12.0572 7.38454 12.4234 7.90661 12.6397C8.42868 12.8559 9.00315 12.9125 9.55739 12.8023C10.1116 12.692 10.6207 12.4199 11.0203 12.0203C11.4199 11.6207 11.692 11.1116 11.8022 10.5574C11.9125 10.0032 11.8559 9.42871 11.6396 8.90662C11.4234 8.38455 11.0572 7.93832 10.5873 7.62438C10.1175 7.31044 9.56508 7.14287 8.99999 7.14287C8.24222 7.14287 7.51551 7.44388 6.97968 7.97971C6.44386 8.51552 6.14285 9.24225 6.14285 10Z" fill="white" stroke="white" fill-opacity="0.2"/>
</svg>
