<svg width="170" height="378" viewBox="0 0 170 378" fill="none" xmlns="http://www.w3.org/2000/svg">
<g opacity="0.2">
<path opacity="0.73" d="M1.31723 191.362C1.57818 191.362 1.78973 191.151 1.78973 190.89C1.78973 190.629 1.57818 190.417 1.31723 190.417C1.05627 190.417 0.844727 190.629 0.844727 190.89C0.844727 191.151 1.05627 191.362 1.31723 191.362Z" fill="white"/>
<path opacity="0.2" d="M3.67953 185.22C3.94049 185.22 4.15203 185.008 4.15203 184.748C4.15203 184.487 3.94049 184.275 3.67953 184.275C3.41858 184.275 3.20703 184.487 3.20703 184.748C3.20703 185.008 3.41858 185.22 3.67953 185.22Z" fill="white"/>
<path opacity="0.8" d="M2.26254 198.923C2.52349 198.923 2.73504 198.711 2.73504 198.45C2.73504 198.189 2.52349 197.978 2.26254 197.978C2.00158 197.978 1.79004 198.189 1.79004 198.45C1.79004 198.711 2.00158 198.923 2.26254 198.923Z" fill="white"/>
<path opacity="0.62" d="M4.15219 177.66C4.41314 177.66 4.62469 177.449 4.62469 177.188C4.62469 176.927 4.41314 176.715 4.15219 176.715C3.89123 176.715 3.67969 176.927 3.67969 177.188C3.67969 177.449 3.89123 177.66 4.15219 177.66Z" fill="white"/>
<path opacity="0.63" d="M6.98715 192.78C7.2481 192.78 7.45965 192.568 7.45965 192.307C7.45965 192.047 7.2481 191.835 6.98715 191.835C6.72619 191.835 6.51465 192.047 6.51465 192.307C6.51465 192.568 6.72619 192.78 6.98715 192.78Z" fill="white"/>
<path opacity="0.36" d="M0.84457 207.428C1.10552 207.428 1.31707 207.216 1.31707 206.955C1.31707 206.694 1.10552 206.483 0.84457 206.483C0.583616 206.483 0.37207 206.694 0.37207 206.955C0.37207 207.216 0.583616 207.428 0.84457 207.428Z" fill="white"/>
<path opacity="0.13" d="M2.26246 170.336C2.65389 170.336 2.97121 170.019 2.97121 169.628C2.97121 169.236 2.65389 168.919 2.26246 168.919C1.87103 168.919 1.55371 169.236 1.55371 169.628C1.55371 170.019 1.87103 170.336 2.26246 170.336Z" fill="white"/>
<path opacity="0.19" d="M9.82203 185.456C10.2135 185.456 10.5308 185.139 10.5308 184.748C10.5308 184.356 10.2135 184.039 9.82203 184.039C9.4306 184.039 9.11328 184.356 9.11328 184.748C9.11328 185.139 9.4306 185.456 9.82203 185.456Z" fill="white"/>
<path opacity="0.37" d="M7.45973 202.466C7.85116 202.466 8.16848 202.149 8.16848 201.758C8.16848 201.366 7.85116 201.049 7.45973 201.049C7.06829 201.049 6.75098 201.366 6.75098 201.758C6.75098 202.149 7.06829 202.466 7.45973 202.466Z" fill="white"/>
<path opacity="0.72" d="M9.82203 176.479C10.2135 176.479 10.5308 176.161 10.5308 175.77C10.5308 175.379 10.2135 175.061 9.82203 175.061C9.4306 175.061 9.11328 175.379 9.11328 175.77C9.11328 176.161 9.4306 176.479 9.82203 176.479Z" fill="white"/>
<path opacity="0.15" d="M12.657 194.906C13.0484 194.906 13.3657 194.589 13.3657 194.198C13.3657 193.806 13.0484 193.489 12.657 193.489C12.2656 193.489 11.9482 193.806 11.9482 194.198C11.9482 194.589 12.2656 194.906 12.657 194.906Z" fill="white"/>
<path opacity="0.59" d="M4.15211 212.389C4.54354 212.389 4.86086 212.071 4.86086 211.68C4.86086 211.289 4.54354 210.971 4.15211 210.971C3.76068 210.971 3.44336 211.289 3.44336 211.68C3.44336 212.071 3.76068 212.389 4.15211 212.389Z" fill="white"/>
<path opacity="0.27" d="M6.98707 167.029C7.3785 167.029 7.69582 166.712 7.69582 166.32C7.69582 165.929 7.3785 165.611 6.98707 165.611C6.59564 165.611 6.27832 165.929 6.27832 166.32C6.27832 166.712 6.59564 167.029 6.98707 167.029Z" fill="white"/>
<path opacity="0.14" d="M15.9646 185.929C16.356 185.929 16.6734 185.611 16.6734 185.22C16.6734 184.829 16.356 184.511 15.9646 184.511C15.5732 184.511 15.2559 184.829 15.2559 185.22C15.2559 185.611 15.5732 185.929 15.9646 185.929Z" fill="white"/>
<path opacity="0.94" d="M12.1843 206.246C12.5758 206.246 12.8931 205.929 12.8931 205.537C12.8931 205.146 12.5758 204.829 12.1843 204.829C11.7929 204.829 11.4756 205.146 11.4756 205.537C11.4756 205.929 11.7929 206.246 12.1843 206.246Z" fill="white"/>
<path opacity="0.56" d="M1.31715 158.051C1.70858 158.051 2.0259 157.734 2.0259 157.343C2.0259 156.951 1.70858 156.634 1.31715 156.634C0.925717 156.634 0.608398 156.951 0.608398 157.343C0.608398 157.734 0.925717 158.051 1.31715 158.051Z" fill="white"/>
<path opacity="0.49" d="M15.9646 175.061C16.356 175.061 16.6734 174.744 16.6734 174.353C16.6734 173.961 16.356 173.644 15.9646 173.644C15.5732 173.644 15.2559 173.961 15.2559 174.353C15.2559 174.744 15.5732 175.061 15.9646 175.061Z" fill="white"/>
<path opacity="0.24" d="M18.3269 197.269C18.7183 197.269 19.0357 196.952 19.0357 196.56C19.0357 196.169 18.7183 195.851 18.3269 195.851C17.9355 195.851 17.6182 196.169 17.6182 196.56C17.6182 196.952 17.9355 197.269 18.3269 197.269Z" fill="white"/>
<path opacity="0.72" d="M7.45973 217.114C7.85116 217.114 8.16848 216.796 8.16848 216.405C8.16848 216.014 7.85116 215.696 7.45973 215.696C7.06829 215.696 6.75098 216.014 6.75098 216.405C6.75098 216.796 7.06829 217.114 7.45973 217.114Z" fill="white"/>
<path opacity="0.63" d="M12.657 164.194C13.0484 164.194 13.3657 163.876 13.3657 163.485C13.3657 163.094 13.0484 162.776 12.657 162.776C12.2656 162.776 11.9482 163.094 11.9482 163.485C11.9482 163.876 12.2656 164.194 12.657 164.194Z" fill="white"/>
<path opacity="0.98" d="M21.6345 186.401C22.026 186.401 22.3433 186.084 22.3433 185.693C22.3433 185.301 22.026 184.984 21.6345 184.984C21.2431 184.984 20.9258 185.301 20.9258 185.693C20.9258 186.084 21.2431 186.401 21.6345 186.401Z" fill="white"/>
<path opacity="0.5" d="M16.9099 210.026C17.3014 210.026 17.6187 209.709 17.6187 209.318C17.6187 208.926 17.3014 208.609 16.9099 208.609C16.5185 208.609 16.2012 208.926 16.2012 209.318C16.2012 209.709 16.5185 210.026 16.9099 210.026Z" fill="white"/>
<path opacity="0.57" d="M5.57 154.035C6.09191 154.035 6.515 153.612 6.515 153.09C6.515 152.568 6.09191 152.145 5.57 152.145C5.04809 152.145 4.625 152.568 4.625 153.09C4.625 153.612 5.04809 154.035 5.57 154.035Z" fill="white"/>
<path opacity="0.47" d="M22.1071 174.353C22.629 174.353 23.0521 173.929 23.0521 173.408C23.0521 172.886 22.629 172.463 22.1071 172.463C21.5852 172.463 21.1621 172.886 21.1621 173.408C21.1621 173.929 21.5852 174.353 22.1071 174.353Z" fill="white"/>
<path opacity="0.36" d="M23.9977 200.34C24.5196 200.34 24.9427 199.917 24.9427 199.395C24.9427 198.873 24.5196 198.45 23.9977 198.45C23.4758 198.45 23.0527 198.873 23.0527 199.395C23.0527 199.917 23.4758 200.34 23.9977 200.34Z" fill="white"/>
<path opacity="0.64" d="M10.7673 223.02C11.2892 223.02 11.7123 222.597 11.7123 222.075C11.7123 221.553 11.2892 221.13 10.7673 221.13C10.2454 221.13 9.82227 221.553 9.82227 222.075C9.82227 222.597 10.2454 223.02 10.7673 223.02Z" fill="white"/>
<path opacity="0.59" d="M18.3268 162.067C18.8487 162.067 19.2718 161.644 19.2718 161.122C19.2718 160.601 18.8487 160.177 18.3268 160.177C17.8049 160.177 17.3818 160.601 17.3818 161.122C17.3818 161.644 17.8049 162.067 18.3268 162.067Z" fill="white"/>
<path opacity="0.38" d="M27.777 187.583C28.2989 187.583 28.722 187.159 28.722 186.638C28.722 186.116 28.2989 185.693 27.777 185.693C27.2551 185.693 26.832 186.116 26.832 186.638C26.832 187.159 27.2551 187.583 27.777 187.583Z" fill="white"/>
<path opacity="0.44" d="M21.1618 214.515C21.6837 214.515 22.1068 214.092 22.1068 213.57C22.1068 213.048 21.6837 212.625 21.1618 212.625C20.6399 212.625 20.2168 213.048 20.2168 213.57C20.2168 214.092 20.6399 214.515 21.1618 214.515Z" fill="white"/>
<path opacity="0.14" d="M0.372734 233.415C0.894643 233.415 1.31773 232.992 1.31773 232.47C1.31773 231.948 0.894643 231.525 0.372734 231.525C-0.149175 231.525 -0.572266 231.948 -0.572266 232.47C-0.572266 232.992 -0.149175 233.415 0.372734 233.415Z" fill="white"/>
<path opacity="0.53" d="M10.2946 150.255C10.8165 150.255 11.2396 149.832 11.2396 149.31C11.2396 148.788 10.8165 148.365 10.2946 148.365C9.7727 148.365 9.34961 148.788 9.34961 149.31C9.34961 149.832 9.7727 150.255 10.2946 150.255Z" fill="white"/>
<path opacity="0.77" d="M27.777 173.88C28.2989 173.88 28.722 173.457 28.722 172.935C28.722 172.413 28.2989 171.99 27.777 171.99C27.2551 171.99 26.832 172.413 26.832 172.935C26.832 173.457 27.2551 173.88 27.777 173.88Z" fill="white"/>
<path opacity="0.68" d="M29.195 203.175C29.7169 203.175 30.14 202.752 30.14 202.23C30.14 201.708 29.7169 201.285 29.195 201.285C28.6731 201.285 28.25 201.708 28.25 202.23C28.25 202.752 28.6731 203.175 29.195 203.175Z" fill="white"/>
<path opacity="0.97" d="M13.6022 228.218C14.1241 228.218 14.5472 227.794 14.5472 227.273C14.5472 226.751 14.1241 226.328 13.6022 226.328C13.0803 226.328 12.6572 226.751 12.6572 227.273C12.6572 227.794 13.0803 228.218 13.6022 228.218Z" fill="white"/>
<path opacity="0.15" d="M-0.572578 140.805C-0.0506691 140.805 0.372422 140.382 0.372422 139.86C0.372422 139.338 -0.0506691 138.915 -0.572578 138.915C-1.09449 138.915 -1.51758 139.338 -1.51758 139.86C-1.51758 140.382 -1.09449 140.805 -0.572578 140.805Z" fill="white"/>
<path opacity="0.15" d="M23.9977 159.705C24.5196 159.705 24.9427 159.282 24.9427 158.76C24.9427 158.238 24.5196 157.815 23.9977 157.815C23.4758 157.815 23.0527 158.238 23.0527 158.76C23.0527 159.282 23.4758 159.705 23.9977 159.705Z" fill="white"/>
<path opacity="0.18" d="M33.9196 189C34.4415 189 34.8646 188.577 34.8646 188.055C34.8646 187.533 34.4415 187.11 33.9196 187.11C33.3977 187.11 32.9746 187.533 32.9746 188.055C32.9746 188.577 33.3977 189 33.9196 189Z" fill="white"/>
<path opacity="0.74" d="M25.4147 219.24C25.9366 219.24 26.3597 218.817 26.3597 218.295C26.3597 217.773 25.9366 217.35 25.4147 217.35C24.8928 217.35 24.4697 217.773 24.4697 218.295C24.4697 218.817 24.8928 219.24 25.4147 219.24Z" fill="white"/>
<path opacity="0.5" d="M0.844414 239.557C1.36632 239.557 1.78941 239.134 1.78941 238.612C1.78941 238.091 1.36632 237.667 0.844414 237.667C0.322505 237.667 -0.100586 238.091 -0.100586 238.612C-0.100586 239.134 0.322505 239.557 0.844414 239.557Z" fill="white"/>
<path opacity="0.92" d="M15.4919 146.475C16.0138 146.475 16.4369 146.052 16.4369 145.53C16.4369 145.008 16.0138 144.585 15.4919 144.585C14.97 144.585 14.5469 145.008 14.5469 145.53C14.5469 146.052 14.97 146.475 15.4919 146.475Z" fill="white"/>
<path opacity="0.49" d="M34.3923 173.408C34.9142 173.408 35.3373 172.984 35.3373 172.463C35.3373 171.941 34.9142 171.518 34.3923 171.518C33.8704 171.518 33.4473 171.941 33.4473 172.463C33.4473 172.984 33.8704 173.408 34.3923 173.408Z" fill="white"/>
<path opacity="0.38" d="M34.3923 206.483C34.9142 206.483 35.3373 206.059 35.3373 205.538C35.3373 205.016 34.9142 204.593 34.3923 204.593C33.8704 204.593 33.4473 205.016 33.4473 205.538C33.4473 206.059 33.8704 206.483 34.3923 206.483Z" fill="white"/>
<path opacity="0.34" d="M15.9645 233.888C16.4864 233.888 16.9095 233.464 16.9095 232.943C16.9095 232.421 16.4864 231.998 15.9645 231.998C15.4426 231.998 15.0195 232.421 15.0195 232.943C15.0195 233.464 15.4426 233.888 15.9645 233.888Z" fill="white"/>
<path opacity="0.9" d="M3.2077 136.08C3.7296 136.08 4.1527 135.657 4.1527 135.135C4.1527 134.613 3.7296 134.19 3.2077 134.19C2.68579 134.19 2.2627 134.613 2.2627 135.135C2.2627 135.657 2.68579 136.08 3.2077 136.08Z" fill="white"/>
<path opacity="0.87" d="M30.1393 157.815C30.6612 157.815 31.0843 157.392 31.0843 156.87C31.0843 156.348 30.6612 155.925 30.1393 155.925C29.6174 155.925 29.1943 156.348 29.1943 156.87C29.1943 157.392 29.6174 157.815 30.1393 157.815Z" fill="white"/>
<path opacity="0.86" d="M39.5895 191.126C40.2418 191.126 40.7707 190.597 40.7707 189.945C40.7707 189.293 40.2418 188.764 39.5895 188.764C38.9371 188.764 38.4082 189.293 38.4082 189.945C38.4082 190.597 38.9371 191.126 39.5895 191.126Z" fill="white"/>
<path opacity="0.77" d="M29.1949 224.674C29.8473 224.674 30.3762 224.145 30.3762 223.493C30.3762 222.84 29.8473 222.311 29.1949 222.311C28.5425 222.311 28.0137 222.84 28.0137 223.493C28.0137 224.145 28.5425 224.674 29.1949 224.674Z" fill="white"/>
<path opacity="0.63" d="M1.31699 245.936C1.96938 245.936 2.49824 245.407 2.49824 244.755C2.49824 244.103 1.96938 243.574 1.31699 243.574C0.664606 243.574 0.135742 244.103 0.135742 244.755C0.135742 245.407 0.664606 245.936 1.31699 245.936Z" fill="white"/>
<path opacity="0.26" d="M20.69 143.404C21.3424 143.404 21.8713 142.875 21.8713 142.223C21.8713 141.57 21.3424 141.041 20.69 141.041C20.0377 141.041 19.5088 141.57 19.5088 142.223C19.5088 142.875 20.0377 143.404 20.69 143.404Z" fill="white"/>
<path d="M40.5348 174.116C41.1872 174.116 41.716 173.587 41.716 172.935C41.716 172.283 41.1872 171.754 40.5348 171.754C39.8824 171.754 39.3535 172.283 39.3535 172.935C39.3535 173.587 39.8824 174.116 40.5348 174.116Z" fill="white"/>
<path opacity="0.7" d="M39.5895 210.499C40.2418 210.499 40.7707 209.97 40.7707 209.317C40.7707 208.665 40.2418 208.136 39.5895 208.136C38.9371 208.136 38.4082 208.665 38.4082 209.317C38.4082 209.97 38.9371 210.499 39.5895 210.499Z" fill="white"/>
<path d="M17.8551 240.266C18.5075 240.266 19.0363 239.737 19.0363 239.085C19.0363 238.433 18.5075 237.904 17.8551 237.904C17.2027 237.904 16.6738 238.433 16.6738 239.085C16.6738 239.737 17.2027 240.266 17.8551 240.266Z" fill="white"/>
<path opacity="0.94" d="M7.45957 131.591C8.11196 131.591 8.64082 131.062 8.64082 130.41C8.64082 129.758 8.11196 129.229 7.45957 129.229C6.80718 129.229 6.27832 129.758 6.27832 130.41C6.27832 131.062 6.80718 131.591 7.45957 131.591Z" fill="white"/>
<path opacity="0.9" d="M36.2818 156.634C36.9342 156.634 37.4631 156.105 37.4631 155.452C37.4631 154.8 36.9342 154.271 36.2818 154.271C35.6294 154.271 35.1006 154.8 35.1006 155.452C35.1006 156.105 35.6294 156.634 36.2818 156.634Z" fill="white"/>
<path opacity="0.6" d="M45.732 193.489C46.3844 193.489 46.9133 192.96 46.9133 192.307C46.9133 191.655 46.3844 191.126 45.732 191.126C45.0796 191.126 44.5508 191.655 44.5508 192.307C44.5508 192.96 45.0796 193.489 45.732 193.489Z" fill="white"/>
<path opacity="0.81" d="M32.5025 229.871C33.1549 229.871 33.6838 229.342 33.6838 228.69C33.6838 228.038 33.1549 227.509 32.5025 227.509C31.8502 227.509 31.3213 228.038 31.3213 228.69C31.3213 229.342 31.8502 229.871 32.5025 229.871Z" fill="white"/>
<path opacity="0.69" d="M1.31699 252.079C1.96938 252.079 2.49824 251.55 2.49824 250.898C2.49824 250.245 1.96938 249.716 1.31699 249.716C0.664606 249.716 0.135742 250.245 0.135742 250.898C0.135742 251.55 0.664606 252.079 1.31699 252.079Z" fill="white"/>
<path opacity="0.76" d="M26.36 140.569C27.0123 140.569 27.5412 140.04 27.5412 139.388C27.5412 138.735 27.0123 138.206 26.36 138.206C25.7076 138.206 25.1787 138.735 25.1787 139.388C25.1787 140.04 25.7076 140.569 26.36 140.569Z" fill="white"/>
<path opacity="0.36" d="M46.6773 174.589C47.3297 174.589 47.8586 174.06 47.8586 173.408C47.8586 172.755 47.3297 172.226 46.6773 172.226C46.025 172.226 45.4961 172.755 45.4961 173.408C45.4961 174.06 46.025 174.589 46.6773 174.589Z" fill="white"/>
<path opacity="0.57" d="M44.315 214.751C44.9674 214.751 45.4963 214.222 45.4963 213.57C45.4963 212.918 44.9674 212.389 44.315 212.389C43.6627 212.389 43.1338 212.918 43.1338 213.57C43.1338 214.222 43.6627 214.751 44.315 214.751Z" fill="white"/>
<path opacity="0.98" d="M19.7447 246.409C20.3971 246.409 20.926 245.88 20.926 245.228C20.926 244.575 20.3971 244.046 19.7447 244.046C19.0923 244.046 18.5635 244.575 18.5635 245.228C18.5635 245.88 19.0923 246.409 19.7447 246.409Z" fill="white"/>
<path opacity="0.15" d="M12.1852 127.339C12.8375 127.339 13.3664 126.81 13.3664 126.158C13.3664 125.505 12.8375 124.976 12.1852 124.976C11.5328 124.976 11.0039 125.505 11.0039 126.158C11.0039 126.81 11.5328 127.339 12.1852 127.339Z" fill="white"/>
<path opacity="0.71" d="M42.4244 155.689C43.0768 155.689 43.6057 155.16 43.6057 154.508C43.6057 153.855 43.0768 153.326 42.4244 153.326C41.772 153.326 41.2432 153.855 41.2432 154.508C41.2432 155.16 41.772 155.689 42.4244 155.689Z" fill="white"/>
<path opacity="0.27" d="M51.402 196.324C52.0543 196.324 52.5832 195.795 52.5832 195.143C52.5832 194.49 52.0543 193.961 51.402 193.961C50.7496 193.961 50.2207 194.49 50.2207 195.143C50.2207 195.795 50.7496 196.324 51.402 196.324Z" fill="white"/>
<path opacity="0.95" d="M35.8102 235.069C36.4625 235.069 36.9914 234.54 36.9914 233.888C36.9914 233.235 36.4625 232.706 35.8102 232.706C35.1578 232.706 34.6289 233.235 34.6289 233.888C34.6289 234.54 35.1578 235.069 35.8102 235.069Z" fill="white"/>
<path opacity="0.48" d="M0.844336 258.694C1.49672 258.694 2.02559 258.165 2.02559 257.513C2.02559 256.86 1.49672 256.331 0.844336 256.331C0.19195 256.331 -0.336914 256.86 -0.336914 257.513C-0.336914 258.165 0.19195 258.694 0.844336 258.694Z" fill="white"/>
<path opacity="0.32" d="M32.0299 137.734C32.6823 137.734 33.2111 137.205 33.2111 136.552C33.2111 135.9 32.6823 135.371 32.0299 135.371C31.3775 135.371 30.8486 135.9 30.8486 136.552C30.8486 137.205 31.3775 137.734 32.0299 137.734Z" fill="white"/>
<path opacity="0.14" d="M53.2926 176.006C53.945 176.006 54.4738 175.477 54.4738 174.825C54.4738 174.173 53.945 173.644 53.2926 173.644C52.6402 173.644 52.1113 174.173 52.1113 174.825C52.1113 175.477 52.6402 176.006 53.2926 176.006Z" fill="white"/>
<path opacity="0.41" d="M49.0396 219.004C49.692 219.004 50.2209 218.475 50.2209 217.822C50.2209 217.17 49.692 216.641 49.0396 216.641C48.3873 216.641 47.8584 217.17 47.8584 217.822C47.8584 218.475 48.3873 219.004 49.0396 219.004Z" fill="white"/>
<path opacity="0.77" d="M20.69 252.551C21.3424 252.551 21.8713 252.022 21.8713 251.37C21.8713 250.718 21.3424 250.189 20.69 250.189C20.0377 250.189 19.5088 250.718 19.5088 251.37C19.5088 252.022 20.0377 252.551 20.69 252.551Z" fill="white"/>
<path opacity="0.62" d="M16.9097 123.323C17.6926 123.323 18.3272 122.688 18.3272 121.905C18.3272 121.122 17.6926 120.488 16.9097 120.488C16.1268 120.488 15.4922 121.122 15.4922 121.905C15.4922 122.688 16.1268 123.323 16.9097 123.323Z" fill="white"/>
<path opacity="0.41" d="M48.5669 154.98C49.3498 154.98 49.9844 154.345 49.9844 153.563C49.9844 152.78 49.3498 152.145 48.5669 152.145C47.7841 152.145 47.1494 152.78 47.1494 153.563C47.1494 154.345 47.7841 154.98 48.5669 154.98Z" fill="white"/>
<path opacity="0.85" d="M57.0718 199.395C57.8547 199.395 58.4893 198.76 58.4893 197.978C58.4893 197.195 57.8547 196.56 57.0718 196.56C56.2889 196.56 55.6543 197.195 55.6543 197.978C55.6543 198.76 56.2889 199.395 57.0718 199.395Z" fill="white"/>
<path opacity="0.76" d="M38.645 240.975C39.4279 240.975 40.0625 240.34 40.0625 239.558C40.0625 238.775 39.4279 238.14 38.645 238.14C37.8622 238.14 37.2275 238.775 37.2275 239.558C37.2275 240.34 37.8622 240.975 38.645 240.975Z" fill="white"/>
<path opacity="0.83" d="M-0.100078 265.073C0.682786 265.073 1.31742 264.438 1.31742 263.655C1.31742 262.872 0.682786 262.238 -0.100078 262.238C-0.882942 262.238 -1.51758 262.872 -1.51758 263.655C-1.51758 264.438 -0.882942 265.073 -0.100078 265.073Z" fill="white"/>
<path opacity="0.25" d="M38.1724 135.607C38.9552 135.607 39.5899 134.973 39.5899 134.19C39.5899 133.407 38.9552 132.772 38.1724 132.772C37.3895 132.772 36.7549 133.407 36.7549 134.19C36.7549 134.973 37.3895 135.607 38.1724 135.607Z" fill="white"/>
<path opacity="0.67" d="M59.4351 177.66C60.2179 177.66 60.8526 177.025 60.8526 176.243C60.8526 175.46 60.2179 174.825 59.4351 174.825C58.6522 174.825 58.0176 175.46 58.0176 176.243C58.0176 177.025 58.6522 177.66 59.4351 177.66Z" fill="white"/>
<path opacity="0.54" d="M53.2925 223.965C54.0754 223.965 54.71 223.33 54.71 222.548C54.71 221.765 54.0754 221.13 53.2925 221.13C52.5096 221.13 51.875 221.765 51.875 222.548C51.875 223.33 52.5096 223.965 53.2925 223.965Z" fill="white"/>
<path opacity="0.94" d="M21.6343 259.403C22.4172 259.403 23.0518 258.768 23.0518 257.985C23.0518 257.202 22.4172 256.568 21.6343 256.568C20.8514 256.568 20.2168 257.202 20.2168 257.985C20.2168 258.768 20.8514 259.403 21.6343 259.403Z" fill="white"/>
<path opacity="0.68" d="M22.107 119.543C22.8898 119.543 23.5245 118.908 23.5245 118.125C23.5245 117.342 22.8898 116.708 22.107 116.708C21.3241 116.708 20.6895 117.342 20.6895 118.125C20.6895 118.908 21.3241 119.543 22.107 119.543Z" fill="white"/>
<path opacity="0.17" d="M55.1821 154.98C55.965 154.98 56.5996 154.345 56.5996 153.563C56.5996 152.78 55.965 152.145 55.1821 152.145C54.3993 152.145 53.7646 152.78 53.7646 153.563C53.7646 154.345 54.3993 154.98 55.1821 154.98Z" fill="white"/>
<path opacity="0.38" d="M62.7427 203.175C63.5256 203.175 64.1602 202.54 64.1602 201.758C64.1602 200.975 63.5256 200.34 62.7427 200.34C61.9598 200.34 61.3252 200.975 61.3252 201.758C61.3252 202.54 61.9598 203.175 62.7427 203.175Z" fill="white"/>
<path opacity="0.52" d="M41.48 247.117C42.2629 247.117 42.8975 246.483 42.8975 245.7C42.8975 244.917 42.2629 244.282 41.48 244.282C40.6971 244.282 40.0625 244.917 40.0625 245.7C40.0625 246.483 40.6971 247.117 41.48 247.117Z" fill="white"/>
<path opacity="0.4" d="M-1.04539 271.688C-0.262527 271.688 0.372109 271.053 0.372109 270.27C0.372109 269.487 -0.262527 268.853 -1.04539 268.853C-1.82825 268.853 -2.46289 269.487 -2.46289 270.27C-2.46289 271.053 -1.82825 271.688 -1.04539 271.688Z" fill="white"/>
<path opacity="0.93" d="M1.31691 108.203C2.09978 108.203 2.73441 107.568 2.73441 106.785C2.73441 106.002 2.09978 105.368 1.31691 105.368C0.53405 105.368 -0.100586 106.002 -0.100586 106.785C-0.100586 107.568 0.53405 108.203 1.31691 108.203Z" fill="white"/>
<path opacity="0.15" d="M44.315 133.718C45.0978 133.718 45.7325 133.083 45.7325 132.3C45.7325 131.517 45.0978 130.883 44.315 130.883C43.5321 130.883 42.8975 131.517 42.8975 132.3C42.8975 133.083 43.5321 133.718 44.315 133.718Z" fill="white"/>
<path opacity="0.79" d="M65.5777 179.55C66.3605 179.55 66.9952 178.915 66.9952 178.133C66.9952 177.35 66.3605 176.715 65.5777 176.715C64.7948 176.715 64.1602 177.35 64.1602 178.133C64.1602 178.915 64.7948 179.55 65.5777 179.55Z" fill="white"/>
<path opacity="0.85" d="M57.5445 229.163C58.3273 229.163 58.962 228.528 58.962 227.745C58.962 226.962 58.3273 226.328 57.5445 226.328C56.7616 226.328 56.127 226.962 56.127 227.745C56.127 228.528 56.7616 229.163 57.5445 229.163Z" fill="white"/>
<path opacity="0.13" d="M22.107 266.017C22.8898 266.017 23.5245 265.383 23.5245 264.6C23.5245 263.817 22.8898 263.182 22.107 263.182C21.3241 263.182 20.6895 263.817 20.6895 264.6C20.6895 265.383 21.3241 266.017 22.107 266.017Z" fill="white"/>
<path opacity="0.7" d="M27.7769 115.762C28.5597 115.762 29.1944 115.128 29.1944 114.345C29.1944 113.562 28.5597 112.927 27.7769 112.927C26.994 112.927 26.3594 113.562 26.3594 114.345C26.3594 115.128 26.994 115.762 27.7769 115.762Z" fill="white"/>
<path opacity="0.99" d="M61.7974 154.98C62.5802 154.98 63.2149 154.345 63.2149 153.563C63.2149 152.78 62.5802 152.145 61.7974 152.145C61.0145 152.145 60.3799 152.78 60.3799 153.563C60.3799 154.345 61.0145 154.98 61.7974 154.98Z" fill="white"/>
<path opacity="0.86" d="M67.94 206.955C68.7228 206.955 69.3575 206.32 69.3575 205.537C69.3575 204.755 68.7228 204.12 67.94 204.12C67.1571 204.12 66.5225 204.755 66.5225 205.537C66.5225 206.32 67.1571 206.955 67.94 206.955Z" fill="white"/>
<path opacity="0.84" d="M43.8423 253.26C44.6252 253.26 45.2598 252.625 45.2598 251.843C45.2598 251.06 44.6252 250.425 43.8423 250.425C43.0594 250.425 42.4248 251.06 42.4248 251.843C42.4248 252.625 43.0594 253.26 43.8423 253.26Z" fill="white"/>
<path opacity="0.46" d="M5.56984 103.005C6.35271 103.005 6.98734 102.37 6.98734 101.588C6.98734 100.805 6.35271 100.17 5.56984 100.17C4.78698 100.17 4.15234 100.805 4.15234 101.588C4.15234 102.37 4.78698 103.005 5.56984 103.005Z" fill="white"/>
<path opacity="0.96" d="M50.9301 132.064C51.8435 132.064 52.5839 131.323 52.5839 130.41C52.5839 129.497 51.8435 128.756 50.9301 128.756C50.0168 128.756 49.2764 129.497 49.2764 130.41C49.2764 131.323 50.0168 132.064 50.9301 132.064Z" fill="white"/>
<path opacity="0.36" d="M72.1918 182.149C73.1052 182.149 73.8456 181.408 73.8456 180.495C73.8456 179.582 73.1052 178.841 72.1918 178.841C71.2785 178.841 70.5381 179.582 70.5381 180.495C70.5381 181.408 71.2785 182.149 72.1918 182.149Z" fill="white"/>
<path opacity="0.33" d="M61.3246 235.069C62.238 235.069 62.9784 234.328 62.9784 233.415C62.9784 232.502 62.238 231.761 61.3246 231.761C60.4113 231.761 59.6709 232.502 59.6709 233.415C59.6709 234.328 60.4113 235.069 61.3246 235.069Z" fill="white"/>
<path opacity="0.54" d="M22.1069 272.869C23.0202 272.869 23.7606 272.128 23.7606 271.215C23.7606 270.302 23.0202 269.561 22.1069 269.561C21.1935 269.561 20.4531 270.302 20.4531 271.215C20.4531 272.128 21.1935 272.869 22.1069 272.869Z" fill="white"/>
<path opacity="0.22" d="M33.4477 112.691C34.361 112.691 35.1014 111.951 35.1014 111.038C35.1014 110.124 34.361 109.384 33.4477 109.384C32.5344 109.384 31.7939 110.124 31.7939 111.038C31.7939 111.951 32.5344 112.691 33.4477 112.691Z" fill="white"/>
<path opacity="0.77" d="M68.4125 155.689C69.3259 155.689 70.0663 154.948 70.0663 154.035C70.0663 153.122 69.3259 152.381 68.4125 152.381C67.4992 152.381 66.7588 153.122 66.7588 154.035C66.7588 154.948 67.4992 155.689 68.4125 155.689Z" fill="white"/>
<path opacity="0.79" d="M73.1371 211.444C74.0505 211.444 74.7909 210.703 74.7909 209.79C74.7909 208.877 74.0505 208.136 73.1371 208.136C72.2238 208.136 71.4834 208.877 71.4834 209.79C71.4834 210.703 72.2238 211.444 73.1371 211.444Z" fill="white"/>
<path opacity="0.28" d="M45.7319 260.111C46.6452 260.111 47.3856 259.371 47.3856 258.457C47.3856 257.544 46.6452 256.804 45.7319 256.804C44.8185 256.804 44.0781 257.544 44.0781 258.457C44.0781 259.371 44.8185 260.111 45.7319 260.111Z" fill="white"/>
<path opacity="0.64" d="M10.2944 98.5162C11.2077 98.5162 11.9481 97.7758 11.9481 96.8625C11.9481 95.9491 11.2077 95.2087 10.2944 95.2087C9.38103 95.2087 8.64062 95.9491 8.64062 96.8625C8.64062 97.7758 9.38103 98.5162 10.2944 98.5162Z" fill="white"/>
<path opacity="0.47" d="M57.5444 131.119C58.4577 131.119 59.1981 130.378 59.1981 129.465C59.1981 128.552 58.4577 127.811 57.5444 127.811C56.631 127.811 55.8906 128.552 55.8906 129.465C55.8906 130.378 56.631 131.119 57.5444 131.119Z" fill="white"/>
<path opacity="0.31" d="M78.3344 184.511C79.2478 184.511 79.9882 183.771 79.9882 182.857C79.9882 181.944 79.2478 181.204 78.3344 181.204C77.4211 181.204 76.6807 181.944 76.6807 182.857C76.6807 183.771 77.4211 184.511 78.3344 184.511Z" fill="white"/>
<path opacity="0.64" d="M64.6323 240.739C65.5456 240.739 66.286 239.998 66.286 239.085C66.286 238.172 65.5456 237.431 64.6323 237.431C63.7189 237.431 62.9785 238.172 62.9785 239.085C62.9785 239.998 63.7189 240.739 64.6323 240.739Z" fill="white"/>
<path opacity="0.6" d="M22.1069 279.484C23.0202 279.484 23.7606 278.743 23.7606 277.83C23.7606 276.917 23.0202 276.176 22.1069 276.176C21.1935 276.176 20.4531 276.917 20.4531 277.83C20.4531 278.743 21.1935 279.484 22.1069 279.484Z" fill="white"/>
<path opacity="0.67" d="M39.5893 109.856C40.5026 109.856 41.243 109.116 41.243 108.203C41.243 107.289 40.5026 106.549 39.5893 106.549C38.676 106.549 37.9355 107.289 37.9355 108.203C37.9355 109.116 38.676 109.856 39.5893 109.856Z" fill="white"/>
<path opacity="0.76" d="M75.0268 156.634C75.9401 156.634 76.6805 155.893 76.6805 154.98C76.6805 154.067 75.9401 153.326 75.0268 153.326C74.1135 153.326 73.373 154.067 73.373 154.98C73.373 155.893 74.1135 156.634 75.0268 156.634Z" fill="white"/>
<path opacity="0.49" d="M78.3344 216.169C79.2478 216.169 79.9882 215.428 79.9882 214.515C79.9882 213.602 79.2478 212.861 78.3344 212.861C77.4211 212.861 76.6807 213.602 76.6807 214.515C76.6807 215.428 77.4211 216.169 78.3344 216.169Z" fill="white"/>
<path opacity="0.93" d="M47.1498 266.726C48.0632 266.726 48.8036 265.986 48.8036 265.073C48.8036 264.159 48.0632 263.419 47.1498 263.419C46.2365 263.419 45.4961 264.159 45.4961 265.073C45.4961 265.986 46.2365 266.726 47.1498 266.726Z" fill="white"/>
<path opacity="0.14" d="M15.4926 93.7913C16.406 93.7913 17.1464 93.0509 17.1464 92.1375C17.1464 91.2242 16.406 90.4838 15.4926 90.4838C14.5793 90.4838 13.8389 91.2242 13.8389 92.1375C13.8389 93.0509 14.5793 93.7913 15.4926 93.7913Z" fill="white"/>
<path opacity="0.45" d="M64.1596 130.174C65.073 130.174 65.8134 129.433 65.8134 128.52C65.8134 127.607 65.073 126.866 64.1596 126.866C63.2463 126.866 62.5059 127.607 62.5059 128.52C62.5059 129.433 63.2463 130.174 64.1596 130.174Z" fill="white"/>
<path opacity="0.89" d="M84.477 187.819C85.3903 187.819 86.1307 187.078 86.1307 186.165C86.1307 185.252 85.3903 184.511 84.477 184.511C83.5637 184.511 82.8232 185.252 82.8232 186.165C82.8232 187.078 83.5637 187.819 84.477 187.819Z" fill="white"/>
<path opacity="0.88" d="M67.9399 246.881C68.8532 246.881 69.5936 246.141 69.5936 245.227C69.5936 244.314 68.8532 243.574 67.9399 243.574C67.0265 243.574 66.2861 244.314 66.2861 245.227C66.2861 246.141 67.0265 246.881 67.9399 246.881Z" fill="white"/>
<path opacity="0.63" d="M21.1625 286.571C22.0759 286.571 22.8163 285.831 22.8163 284.918C22.8163 284.004 22.0759 283.264 21.1625 283.264C20.2492 283.264 19.5088 284.004 19.5088 284.918C19.5088 285.831 20.2492 286.571 21.1625 286.571Z" fill="white"/>
<path opacity="0.17" d="M45.7319 107.021C46.6452 107.021 47.3856 106.281 47.3856 105.367C47.3856 104.454 46.6452 103.714 45.7319 103.714C44.8185 103.714 44.0781 104.454 44.0781 105.367C44.0781 106.281 44.8185 107.021 45.7319 107.021Z" fill="white"/>
<path opacity="0.58" d="M82.1147 158.051C83.028 158.051 83.7684 157.311 83.7684 156.398C83.7684 155.484 83.028 154.744 82.1147 154.744C81.2013 154.744 80.4609 155.484 80.4609 156.398C80.4609 157.311 81.2013 158.051 82.1147 158.051Z" fill="white"/>
<path opacity="0.58" d="M83.06 220.894C83.9733 220.894 84.7137 220.153 84.7137 219.24C84.7137 218.327 83.9733 217.586 83.06 217.586C82.1467 217.586 81.4062 218.327 81.4062 219.24C81.4062 220.153 82.1467 220.894 83.06 220.894Z" fill="white"/>
<path opacity="0.18" d="M48.0952 273.341C49.0085 273.341 49.7489 272.601 49.7489 271.688C49.7489 270.774 49.0085 270.034 48.0952 270.034C47.1818 270.034 46.4414 270.774 46.4414 271.688C46.4414 272.601 47.1818 273.341 48.0952 273.341Z" fill="white"/>
<path opacity="0.4" d="M20.6898 89.775C21.7336 89.775 22.5798 88.9288 22.5798 87.885C22.5798 86.8412 21.7336 85.995 20.6898 85.995C19.646 85.995 18.7998 86.8412 18.7998 87.885C18.7998 88.9288 19.646 89.775 20.6898 89.775Z" fill="white"/>
<path opacity="0.66" d="M71.2474 129.937C72.2912 129.937 73.1374 129.091 73.1374 128.047C73.1374 127.004 72.2912 126.157 71.2474 126.157C70.2036 126.157 69.3574 127.004 69.3574 128.047C69.3574 129.091 70.2036 129.937 71.2474 129.937Z" fill="white"/>
<path opacity="0.78" d="M90.1468 191.363C91.1907 191.363 92.0368 190.516 92.0368 189.473C92.0368 188.429 91.1907 187.583 90.1468 187.583C89.103 187.583 88.2568 188.429 88.2568 189.473C88.2568 190.516 89.103 191.363 90.1468 191.363Z" fill="white"/>
<path opacity="0.48" d="M71.2474 253.26C72.2912 253.26 73.1374 252.414 73.1374 251.37C73.1374 250.326 72.2912 249.48 71.2474 249.48C70.2036 249.48 69.3574 250.326 69.3574 251.37C69.3574 252.414 70.2036 253.26 71.2474 253.26Z" fill="white"/>
<path opacity="0.27" d="M20.2171 293.423C21.261 293.423 22.1071 292.576 22.1071 291.533C22.1071 290.489 21.261 289.643 20.2171 289.643C19.1733 289.643 18.3271 290.489 18.3271 291.533C18.3271 292.576 19.1733 293.423 20.2171 293.423Z" fill="white"/>
<path opacity="0.68" d="M52.347 104.895C53.3908 104.895 54.237 104.049 54.237 103.005C54.237 101.961 53.3908 101.115 52.347 101.115C51.3032 101.115 50.457 101.961 50.457 103.005C50.457 104.049 51.3032 104.895 52.347 104.895Z" fill="white"/>
<path opacity="0.17" d="M88.7298 160.177C89.7737 160.177 90.6198 159.331 90.6198 158.287C90.6198 157.244 89.7737 156.397 88.7298 156.397C87.686 156.397 86.8398 157.244 86.8398 158.287C86.8398 159.331 87.686 160.177 88.7298 160.177Z" fill="white"/>
<path opacity="0.98" d="M87.7845 226.327C88.8283 226.327 89.6745 225.481 89.6745 224.437C89.6745 223.394 88.8283 222.547 87.7845 222.547C86.7407 222.547 85.8945 223.394 85.8945 224.437C85.8945 225.481 86.7407 226.327 87.7845 226.327Z" fill="white"/>
<path opacity="0.58" d="M49.0394 280.665C50.0832 280.665 50.9294 279.819 50.9294 278.775C50.9294 277.731 50.0832 276.885 49.0394 276.885C47.9956 276.885 47.1494 277.731 47.1494 278.775C47.1494 279.819 47.9956 280.665 49.0394 280.665Z" fill="white"/>
<path opacity="0.53" d="M26.8324 85.5226C27.8762 85.5226 28.7224 84.6764 28.7224 83.6326C28.7224 82.5887 27.8762 81.7426 26.8324 81.7426C25.7886 81.7426 24.9424 82.5887 24.9424 83.6326C24.9424 84.6764 25.7886 85.5226 26.8324 85.5226Z" fill="white"/>
<path opacity="0.78" d="M78.3343 129.937C79.3782 129.937 80.2243 129.091 80.2243 128.047C80.2243 127.004 79.3782 126.157 78.3343 126.157C77.2905 126.157 76.4443 127.004 76.4443 128.047C76.4443 129.091 77.2905 129.937 78.3343 129.937Z" fill="white"/>
<path opacity="0.35" d="M96.2894 195.143C97.3332 195.143 98.1794 194.296 98.1794 193.253C98.1794 192.209 97.3332 191.363 96.2894 191.363C95.2456 191.363 94.3994 192.209 94.3994 193.253C94.3994 194.296 95.2456 195.143 96.2894 195.143Z" fill="white"/>
<path opacity="0.38" d="M73.6097 259.875C74.6535 259.875 75.4997 259.029 75.4997 257.985C75.4997 256.941 74.6535 256.095 73.6097 256.095C72.5659 256.095 71.7197 256.941 71.7197 257.985C71.7197 259.029 72.5659 259.875 73.6097 259.875Z" fill="white"/>
<path opacity="0.3" d="M18.8002 300.51C19.844 300.51 20.6902 299.664 20.6902 298.62C20.6902 297.576 19.844 296.73 18.8002 296.73C17.7563 296.73 16.9102 297.576 16.9102 298.62C16.9102 299.664 17.7563 300.51 18.8002 300.51Z" fill="white"/>
<path opacity="0.59" d="M59.4349 103.005C60.4787 103.005 61.3249 102.159 61.3249 101.115C61.3249 100.071 60.4787 99.225 59.4349 99.225C58.3911 99.225 57.5449 100.071 57.5449 101.115C57.5449 102.159 58.3911 103.005 59.4349 103.005Z" fill="white"/>
<path opacity="0.32" d="M95.3451 162.54C96.3889 162.54 97.2351 161.694 97.2351 160.65C97.2351 159.606 96.3889 158.76 95.3451 158.76C94.3013 158.76 93.4551 159.606 93.4551 160.65C93.4551 161.694 94.3013 162.54 95.3451 162.54Z" fill="white"/>
<path opacity="0.38" d="M92.0375 231.998C93.0813 231.998 93.9275 231.151 93.9275 230.108C93.9275 229.064 93.0813 228.218 92.0375 228.218C90.9936 228.218 90.1475 229.064 90.1475 230.108C90.1475 231.151 90.9936 231.998 92.0375 231.998Z" fill="white"/>
<path opacity="0.31" d="M49.5121 287.753C50.5559 287.753 51.4021 286.906 51.4021 285.863C51.4021 284.819 50.5559 283.973 49.5121 283.973C48.4683 283.973 47.6221 284.819 47.6221 285.863C47.6221 286.906 48.4683 287.753 49.5121 287.753Z" fill="white"/>
<path opacity="0.65" d="M32.5023 81.7425C33.5461 81.7425 34.3923 80.8963 34.3923 79.8525C34.3923 78.8087 33.5461 77.9625 32.5023 77.9625C31.4585 77.9625 30.6123 78.8087 30.6123 79.8525C30.6123 80.8963 31.4585 81.7425 32.5023 81.7425Z" fill="white"/>
<path opacity="0.69" d="M85.4222 129.937C86.466 129.937 87.3122 129.091 87.3122 128.047C87.3122 127.004 86.466 126.157 85.4222 126.157C84.3784 126.157 83.5322 127.004 83.5322 128.047C83.5322 129.091 84.3784 129.937 85.4222 129.937Z" fill="white"/>
<path opacity="0.76" d="M101.959 199.868C103.003 199.868 103.849 199.021 103.849 197.978C103.849 196.934 103.003 196.088 101.959 196.088C100.916 196.088 100.069 196.934 100.069 197.978C100.069 199.021 100.916 199.868 101.959 199.868Z" fill="white"/>
<path opacity="0.98" d="M75.972 266.49C77.0158 266.49 77.862 265.644 77.862 264.6C77.862 263.556 77.0158 262.71 75.972 262.71C74.9282 262.71 74.082 263.556 74.082 264.6C74.082 265.644 74.9282 266.49 75.972 266.49Z" fill="white"/>
<path opacity="0.95" d="M16.9095 307.125C17.9533 307.125 18.7995 306.279 18.7995 305.235C18.7995 304.191 17.9533 303.345 16.9095 303.345C15.8657 303.345 15.0195 304.191 15.0195 305.235C15.0195 306.279 15.8657 307.125 16.9095 307.125Z" fill="white"/>
<path opacity="0.96" d="M0.845 69.2213C2.0193 69.2213 2.97125 68.2693 2.97125 67.095C2.97125 65.9207 2.0193 64.9688 0.845 64.9688C-0.329296 64.9688 -1.28125 65.9207 -1.28125 67.095C-1.28125 68.2693 -0.329296 69.2213 0.845 69.2213Z" fill="white"/>
<path opacity="0.79" d="M66.0501 101.351C67.2244 101.351 68.1763 100.399 68.1763 99.225C68.1763 98.0507 67.2244 97.0988 66.0501 97.0988C64.8758 97.0988 63.9238 98.0507 63.9238 99.225C63.9238 100.399 64.8758 101.351 66.0501 101.351Z" fill="white"/>
<path opacity="0.45" d="M102.432 165.139C103.606 165.139 104.558 164.187 104.558 163.012C104.558 161.838 103.606 160.886 102.432 160.886C101.258 160.886 100.306 161.838 100.306 163.012C100.306 164.187 101.258 165.139 102.432 165.139Z" fill="white"/>
<path opacity="0.29" d="M95.8177 238.376C96.992 238.376 97.9439 237.424 97.9439 236.25C97.9439 235.076 96.992 234.124 95.8177 234.124C94.6434 234.124 93.6914 235.076 93.6914 236.25C93.6914 237.424 94.6434 238.376 95.8177 238.376Z" fill="white"/>
<path opacity="0.97" d="M49.512 295.076C50.6863 295.076 51.6382 294.124 51.6382 292.95C51.6382 291.776 50.6863 290.824 49.512 290.824C48.3377 290.824 47.3857 291.776 47.3857 292.95C47.3857 294.124 48.3377 295.076 49.512 295.076Z" fill="white"/>
<path opacity="0.2" d="M39.1175 78.6713C40.2918 78.6713 41.2437 77.7194 41.2437 76.5451C41.2437 75.3708 40.2918 74.4188 39.1175 74.4188C37.9432 74.4188 36.9912 75.3708 36.9912 76.5451C36.9912 77.7194 37.9432 78.6713 39.1175 78.6713Z" fill="white"/>
<path opacity="0.99" d="M92.51 131.119C93.6843 131.119 94.6363 130.167 94.6363 128.992C94.6363 127.818 93.6843 126.866 92.51 126.866C91.3357 126.866 90.3838 127.818 90.3838 128.992C90.3838 130.167 91.3357 131.119 92.51 131.119Z" fill="white"/>
<path opacity="0.83" d="M107.158 204.829C108.332 204.829 109.284 203.877 109.284 202.703C109.284 201.528 108.332 200.576 107.158 200.576C105.983 200.576 105.031 201.528 105.031 202.703C105.031 203.877 105.983 204.829 107.158 204.829Z" fill="white"/>
<path opacity="0.94" d="M77.8626 273.814C79.0369 273.814 79.9888 272.862 79.9888 271.688C79.9888 270.513 79.0369 269.561 77.8626 269.561C76.6883 269.561 75.7363 270.513 75.7363 271.688C75.7363 272.862 76.6883 273.814 77.8626 273.814Z" fill="white"/>
<path opacity="0.64" d="M14.5471 314.449C15.7214 314.449 16.6734 313.497 16.6734 312.323C16.6734 311.148 15.7214 310.196 14.5471 310.196C13.3729 310.196 12.4209 311.148 12.4209 312.323C12.4209 313.497 13.3729 314.449 14.5471 314.449Z" fill="white"/>
<path opacity="0.44" d="M6.04227 64.0237C7.21656 64.0237 8.16852 63.0718 8.16852 61.8975C8.16852 60.7232 7.21656 59.7712 6.04227 59.7712C4.86797 59.7712 3.91602 60.7232 3.91602 61.8975C3.91602 63.0718 4.86797 64.0237 6.04227 64.0237Z" fill="white"/>
<path opacity="0.49" d="M73.6096 100.406C74.7839 100.406 75.7359 99.4544 75.7359 98.2801C75.7359 97.1058 74.7839 96.1538 73.6096 96.1538C72.4354 96.1538 71.4834 97.1058 71.4834 98.2801C71.4834 99.4544 72.4354 100.406 73.6096 100.406Z" fill="white"/>
<path opacity="0.88" d="M109.047 168.446C110.221 168.446 111.173 167.494 111.173 166.32C111.173 165.146 110.221 164.194 109.047 164.194C107.873 164.194 106.921 165.146 106.921 166.32C106.921 167.494 107.873 168.446 109.047 168.446Z" fill="white"/>
<path opacity="0.94" d="M99.597 244.519C100.771 244.519 101.723 243.567 101.723 242.392C101.723 241.218 100.771 240.266 99.597 240.266C98.4227 240.266 97.4707 241.218 97.4707 242.392C97.4707 243.567 98.4227 244.519 99.597 244.519Z" fill="white"/>
<path opacity="0.15" d="M49.0393 302.636C50.2136 302.636 51.1656 301.684 51.1656 300.51C51.1656 299.336 50.2136 298.384 49.0393 298.384C47.865 298.384 46.9131 299.336 46.9131 300.51C46.9131 301.684 47.865 302.636 49.0393 302.636Z" fill="white"/>
<path opacity="0.5" d="M45.7327 75.3638C46.907 75.3638 47.8589 74.4119 47.8589 73.2376C47.8589 72.0633 46.907 71.1113 45.7327 71.1113C44.5584 71.1113 43.6064 72.0633 43.6064 73.2376C43.6064 74.4119 44.5584 75.3638 45.7327 75.3638Z" fill="white"/>
<path opacity="0.46" d="M100.07 132.064C101.244 132.064 102.196 131.112 102.196 129.938C102.196 128.763 101.244 127.811 100.07 127.811C98.8953 127.811 97.9434 128.763 97.9434 129.938C97.9434 131.112 98.8953 132.064 100.07 132.064Z" fill="white"/>
<path opacity="0.6" d="M112.827 209.554C114.002 209.554 114.954 208.602 114.954 207.428C114.954 206.253 114.002 205.301 112.827 205.301C111.653 205.301 110.701 206.253 110.701 207.428C110.701 208.602 111.653 209.554 112.827 209.554Z" fill="white"/>
<path opacity="0.69" d="M79.2796 280.901C80.4539 280.901 81.4058 279.949 81.4058 278.775C81.4058 277.601 80.4539 276.649 79.2796 276.649C78.1053 276.649 77.1533 277.601 77.1533 278.775C77.1533 279.949 78.1053 280.901 79.2796 280.901Z" fill="white"/>
<path opacity="0.59" d="M11.7122 321.064C12.8865 321.064 13.8384 320.112 13.8384 318.938C13.8384 317.763 12.8865 316.811 11.7122 316.811C10.5379 316.811 9.58594 317.763 9.58594 318.938C9.58594 320.112 10.5379 321.064 11.7122 321.064Z" fill="white"/>
<path opacity="0.44" d="M11.7122 59.2988C12.8865 59.2988 13.8384 58.3468 13.8384 57.1725C13.8384 55.9982 12.8865 55.0463 11.7122 55.0463C10.5379 55.0463 9.58594 55.9982 9.58594 57.1725C9.58594 58.3468 10.5379 59.2988 11.7122 59.2988Z" fill="white"/>
<path opacity="0.35" d="M80.6975 99.4612C81.8718 99.4612 82.8238 98.5093 82.8238 97.335C82.8238 96.1607 81.8718 95.2087 80.6975 95.2087C79.5232 95.2087 78.5713 96.1607 78.5713 97.335C78.5713 98.5093 79.5232 99.4612 80.6975 99.4612Z" fill="white"/>
<path opacity="0.6" d="M115.662 171.754C116.837 171.754 117.789 170.802 117.789 169.627C117.789 168.453 116.837 167.501 115.662 167.501C114.488 167.501 113.536 168.453 113.536 169.627C113.536 170.802 114.488 171.754 115.662 171.754Z" fill="white"/>
<path opacity="0.27" d="M103.377 251.134C104.552 251.134 105.503 250.182 105.503 249.007C105.503 247.833 104.552 246.881 103.377 246.881C102.203 246.881 101.251 247.833 101.251 249.007C101.251 250.182 102.203 251.134 103.377 251.134Z" fill="white"/>
<path opacity="0.96" d="M48.095 309.724C49.2693 309.724 50.2213 308.772 50.2213 307.598C50.2213 306.423 49.2693 305.471 48.095 305.471C46.9207 305.471 45.9688 306.423 45.9688 307.598C45.9688 308.772 46.9207 309.724 48.095 309.724Z" fill="white"/>
<path opacity="0.96" d="M52.8196 72.5287C53.9939 72.5287 54.9459 71.5768 54.9459 70.4025C54.9459 69.2282 53.9939 68.2762 52.8196 68.2762C51.6453 68.2762 50.6934 69.2282 50.6934 70.4025C50.6934 71.5768 51.6453 72.5287 52.8196 72.5287Z" fill="white"/>
<path opacity="0.19" d="M107.158 133.954C108.332 133.954 109.284 133.002 109.284 131.828C109.284 130.653 108.332 129.701 107.158 129.701C105.983 129.701 105.031 130.653 105.031 131.828C105.031 133.002 105.983 133.954 107.158 133.954Z" fill="white"/>
<path opacity="0.85" d="M118.025 215.224C119.199 215.224 120.151 214.272 120.151 213.098C120.151 211.923 119.199 210.971 118.025 210.971C116.85 210.971 115.898 211.923 115.898 213.098C115.898 214.272 116.85 215.224 118.025 215.224Z" fill="white"/>
<path opacity="0.75" d="M80.6975 288.461C81.8718 288.461 82.8238 287.509 82.8238 286.335C82.8238 285.161 81.8718 284.209 80.6975 284.209C79.5232 284.209 78.5713 285.161 78.5713 286.335C78.5713 287.509 79.5232 288.461 80.6975 288.461Z" fill="white"/>
<path opacity="0.87" d="M8.40449 328.388C9.70926 328.388 10.767 327.33 10.767 326.025C10.767 324.72 9.70926 323.663 8.40449 323.663C7.09972 323.663 6.04199 324.72 6.04199 326.025C6.04199 327.33 7.09972 328.388 8.40449 328.388Z" fill="white"/>
<path opacity="0.89" d="M17.382 54.8101C18.6868 54.8101 19.7445 53.7524 19.7445 52.4476C19.7445 51.1428 18.6868 50.0851 17.382 50.0851C16.0773 50.0851 15.0195 51.1428 15.0195 52.4476C15.0195 53.7524 16.0773 54.8101 17.382 54.8101Z" fill="white"/>
<path opacity="0.46" d="M88.257 99.225C89.5618 99.225 90.6195 98.1673 90.6195 96.8625C90.6195 95.5577 89.5618 94.5 88.257 94.5C86.9523 94.5 85.8945 95.5577 85.8945 96.8625C85.8945 98.1673 86.9523 99.225 88.257 99.225Z" fill="white"/>
<path opacity="0.75" d="M121.805 175.77C123.11 175.77 124.167 174.712 124.167 173.408C124.167 172.103 123.11 171.045 121.805 171.045C120.5 171.045 119.442 172.103 119.442 173.408C119.442 174.712 120.5 175.77 121.805 175.77Z" fill="white"/>
<path opacity="0.88" d="M106.212 258.458C107.517 258.458 108.575 257.4 108.575 256.095C108.575 254.79 107.517 253.733 106.212 253.733C104.907 253.733 103.85 254.79 103.85 256.095C103.85 257.4 104.907 258.458 106.212 258.458Z" fill="white"/>
<path opacity="0.27" d="M46.677 317.52C47.9817 317.52 49.0395 316.462 49.0395 315.158C49.0395 313.853 47.9817 312.795 46.677 312.795C45.3722 312.795 44.3145 313.853 44.3145 315.158C44.3145 316.462 45.3722 317.52 46.677 317.52Z" fill="white"/>
<path opacity="0.78" d="M59.9074 70.4025C61.2122 70.4025 62.2699 69.3448 62.2699 68.04C62.2699 66.7352 61.2122 65.6775 59.9074 65.6775C58.6026 65.6775 57.5449 66.7352 57.5449 68.04C57.5449 69.3448 58.6026 70.4025 59.9074 70.4025Z" fill="white"/>
<path opacity="0.99" d="M114.717 136.08C116.022 136.08 117.079 135.022 117.079 133.717C117.079 132.413 116.022 131.355 114.717 131.355C113.412 131.355 112.354 132.413 112.354 133.717C112.354 135.022 113.412 136.08 114.717 136.08Z" fill="white"/>
<path opacity="0.9" d="M122.75 221.13C124.055 221.13 125.113 220.072 125.113 218.768C125.113 217.463 124.055 216.405 122.75 216.405C121.445 216.405 120.388 217.463 120.388 218.768C120.388 220.072 121.445 221.13 122.75 221.13Z" fill="white"/>
<path opacity="0.63" d="M81.6418 296.257C82.9466 296.257 84.0043 295.2 84.0043 293.895C84.0043 292.59 82.9466 291.532 81.6418 291.532C80.337 291.532 79.2793 292.59 79.2793 293.895C79.2793 295.2 80.337 296.257 81.6418 296.257Z" fill="white"/>
<path opacity="0.92" d="M4.6252 335.003C5.92997 335.003 6.9877 333.945 6.9877 332.64C6.9877 331.335 5.92997 330.278 4.6252 330.278C3.32042 330.278 2.2627 331.335 2.2627 332.64C2.2627 333.945 3.32042 335.003 4.6252 335.003Z" fill="white"/>
<path opacity="0.71" d="M23.9973 50.5575C25.302 50.5575 26.3598 49.4998 26.3598 48.195C26.3598 46.8902 25.302 45.8325 23.9973 45.8325C22.6925 45.8325 21.6348 46.8902 21.6348 48.195C21.6348 49.4998 22.6925 50.5575 23.9973 50.5575Z" fill="white"/>
</g>
</svg>
