<svg width="20" height="20" viewBox="0 0 20 20" fill="none" xmlns="http://www.w3.org/2000/svg">
<path d="M14.8673 17.1358C13.471 17.038 12.3348 15.9343 12.2608 14.5167C12.1035 11.5007 12.1035 8.49944 12.2608 5.48339C12.3348 4.06591 13.471 2.9621 14.8673 2.86426" stroke="white" stroke-width="1.4" stroke-linecap="round" stroke-linejoin="round"/>
<path d="M9.19653 10H14.8661" stroke="white" stroke-width="1.4" stroke-linecap="round" stroke-linejoin="round"/>
<path d="M7.139 14.077C7.61386 14.0234 8.05653 13.8105 8.39486 13.473C8.73318 13.1356 8.9472 12.6934 9.002 12.2187C9.08301 11.4965 9.15186 10.756 9.15186 10C9.15186 9.24401 9.083 8.50286 9.002 7.78128C8.9472 7.30658 8.73318 6.86444 8.39486 6.52698C8.05653 6.18951 7.61384 5.97661 7.139 5.92301C6.42148 5.84605 5.68438 5.78125 4.9331 5.78125C4.18183 5.78125 3.44473 5.84606 2.72653 5.92301C2.25168 5.97661 1.80901 6.18951 1.47068 6.52698C1.13236 6.86444 0.91834 7.30658 0.86353 7.78128C0.78388 8.50354 0.714355 9.24401 0.714355 10C0.714355 10.756 0.783205 11.4971 0.864205 12.2187C0.919014 12.6934 1.13303 13.1356 1.47136 13.473C1.80968 13.8105 2.25236 14.0234 2.72721 14.077C3.44406 14.1539 4.18116 14.2188 4.9331 14.2188C5.68506 14.2188 6.42148 14.1539 7.139 14.077Z" fill="white" fill-opacity="0.2"/>
<path d="M7.139 14.077C7.61386 14.0234 8.05653 13.8105 8.39486 13.473C8.73318 13.1356 8.9472 12.6934 9.002 12.2187C9.083 11.4965 9.15186 10.756 9.15186 10C9.15186 9.24401 9.083 8.50285 9.002 7.78128C8.9472 7.30658 8.73318 6.86444 8.39486 6.52698C8.05653 6.18951 7.61386 5.97661 7.139 5.92301C6.42148 5.84605 5.68438 5.78125 4.9331 5.78125C4.18183 5.78125 3.44473 5.84605 2.72653 5.92301C2.25168 5.97661 1.80901 6.18951 1.47068 6.52698C1.13236 6.86444 0.91834 7.30658 0.86353 7.78128C0.78388 8.50354 0.714355 9.24401 0.714355 10C0.714355 10.756 0.783205 11.4971 0.864205 12.2187C0.919014 12.6934 1.13303 13.1356 1.47136 13.473C1.80968 13.8105 2.25236 14.0234 2.72721 14.077C3.44406 14.1539 4.18116 14.2188 4.9331 14.2188C5.68506 14.2188 6.42148 14.1539 7.139 14.077Z" stroke="white" stroke-width="1.4" stroke-linecap="round" stroke-linejoin="round"/>
<path d="M18.2408 12.1167C18.4873 12.0888 18.7171 11.9783 18.8928 11.8031C19.0684 11.6279 19.1796 11.3983 19.208 11.1519C19.2501 10.7769 19.2858 10.3925 19.2858 9.99998C19.2858 9.60748 19.2501 9.22269 19.208 8.84806C19.1796 8.60161 19.0684 8.37205 18.8928 8.19685C18.7171 8.02164 18.4873 7.91111 18.2408 7.88328C17.8683 7.84334 17.4856 7.80969 17.0956 7.80969C16.7056 7.80969 16.3228 7.84334 15.95 7.88328C15.7034 7.91111 15.4736 8.02164 15.298 8.19685C15.1223 8.37205 15.0111 8.60161 14.9827 8.84806C14.9414 9.22303 14.9053 9.60748 14.9053 9.99998C14.9053 10.3925 14.941 10.7773 14.9831 11.1519C15.0116 11.3983 15.1227 11.6279 15.2983 11.8031C15.474 11.9783 15.7037 12.0888 15.9503 12.1167C16.3224 12.1566 16.7051 12.1903 17.0956 12.1903C17.486 12.1903 17.8683 12.1566 18.2408 12.1167Z" fill="white" fill-opacity="0.2"/>
<path d="M18.2408 19.2122C18.4873 19.1843 18.7171 19.0737 18.8928 18.8986C19.0684 18.7233 19.1796 18.4939 19.208 18.2473C19.2501 17.8724 19.2858 17.4879 19.2858 17.0954C19.2858 16.7029 19.2501 16.3182 19.208 15.9436C19.1796 15.697 19.0684 15.4676 18.8928 15.2923C18.7171 15.1172 18.4873 15.0066 18.2408 14.9787C17.8683 14.9387 17.4856 14.9052 17.0956 14.9052C16.7056 14.9052 16.3228 14.9387 15.95 14.9787C15.7034 15.0066 15.4736 15.1172 15.298 15.2923C15.1223 15.4676 15.0111 15.697 14.9827 15.9436C14.9414 16.3184 14.9053 16.7029 14.9053 17.0954C14.9053 17.4879 14.941 17.8727 14.9831 18.2473C15.0116 18.4939 15.1227 18.7233 15.2983 18.8986C15.474 19.0737 15.7037 19.1843 15.9503 19.2122C16.3224 19.252 16.7051 19.2857 17.0956 19.2857C17.486 19.2857 17.8683 19.252 18.2408 19.2122Z" fill="white" fill-opacity="0.2"/>
<path d="M18.2408 0.787828C18.4873 0.815656 18.7171 0.926186 18.8928 1.10139C19.0684 1.2766 19.1796 1.50615 19.208 1.7526C19.2501 2.12759 19.2858 2.51202 19.2858 2.90452C19.2858 3.29702 19.2501 3.68182 19.208 4.05645C19.1796 4.3029 19.0684 4.53245 18.8928 4.70765C18.7171 4.88286 18.4873 4.99339 18.2408 5.02122C17.8683 5.06118 17.4856 5.09482 17.0956 5.09482C16.7056 5.09482 16.3228 5.06118 15.95 5.02122C15.7034 4.99339 15.4736 4.88286 15.298 4.70765C15.1223 4.53245 15.0111 4.3029 14.9827 4.05645C14.9414 3.68146 14.9053 3.29702 14.9053 2.90452C14.9053 2.51202 14.941 2.12723 14.9831 1.7526C15.0116 1.50615 15.1227 1.2766 15.2983 1.10139C15.474 0.926188 15.7037 0.815658 15.9503 0.787828C16.3224 0.747876 16.7051 0.714233 17.0956 0.714233C17.486 0.714233 17.8683 0.747876 18.2408 0.787828Z" fill="white" fill-opacity="0.2"/>
<path d="M18.2408 12.1167C18.4873 12.0888 18.7171 11.9783 18.8928 11.8031C19.0684 11.6279 19.1796 11.3983 19.208 11.1519C19.2501 10.7769 19.2858 10.3925 19.2858 9.99998C19.2858 9.60748 19.2501 9.22269 19.208 8.84806C19.1796 8.60161 19.0684 8.37205 18.8928 8.19685C18.7171 8.02164 18.4873 7.91111 18.2408 7.88328C17.8683 7.84334 17.4856 7.80969 17.0956 7.80969C16.7056 7.80969 16.3228 7.84334 15.95 7.88328C15.7034 7.91111 15.4736 8.02164 15.298 8.19685C15.1223 8.37205 15.0111 8.60161 14.9827 8.84806C14.9414 9.22303 14.9053 9.60748 14.9053 9.99998C14.9053 10.3925 14.941 10.7773 14.9831 11.1519C15.0116 11.3983 15.1227 11.6279 15.2983 11.8031C15.474 11.9783 15.7037 12.0888 15.9503 12.1167C16.3224 12.1566 16.7051 12.1903 17.0956 12.1903C17.486 12.1903 17.8683 12.1566 18.2408 12.1167Z" stroke="white" stroke-width="1.4" stroke-linecap="round" stroke-linejoin="round"/>
<path d="M18.2408 19.2122C18.4873 19.1843 18.7171 19.0737 18.8928 18.8986C19.0684 18.7233 19.1796 18.4939 19.208 18.2473C19.2501 17.8724 19.2858 17.4879 19.2858 17.0954C19.2858 16.7029 19.2501 16.3182 19.208 15.9436C19.1796 15.697 19.0684 15.4676 18.8928 15.2923C18.7171 15.1172 18.4873 15.0066 18.2408 14.9787C17.8683 14.9387 17.4856 14.9052 17.0956 14.9052C16.7056 14.9052 16.3228 14.9387 15.95 14.9787C15.7034 15.0066 15.4736 15.1172 15.298 15.2923C15.1223 15.4676 15.0111 15.697 14.9827 15.9436C14.9414 16.3184 14.9053 16.7029 14.9053 17.0954C14.9053 17.4879 14.941 17.8727 14.9831 18.2473C15.0116 18.4939 15.1227 18.7233 15.2983 18.8986C15.474 19.0737 15.7037 19.1843 15.9503 19.2122C16.3224 19.252 16.7051 19.2857 17.0956 19.2857C17.486 19.2857 17.8683 19.252 18.2408 19.2122Z" stroke="white" stroke-width="1.4" stroke-linecap="round" stroke-linejoin="round"/>
<path d="M18.2408 0.787828C18.4873 0.815656 18.7171 0.926186 18.8928 1.10139C19.0684 1.2766 19.1796 1.50615 19.208 1.7526C19.2501 2.12759 19.2858 2.51202 19.2858 2.90452C19.2858 3.29702 19.2501 3.68182 19.208 4.05645C19.1796 4.3029 19.0684 4.53245 18.8928 4.70765C18.7171 4.88286 18.4873 4.99339 18.2408 5.02122C17.8683 5.06118 17.4856 5.09482 17.0956 5.09482C16.7056 5.09482 16.3228 5.06118 15.95 5.02122C15.7034 4.99339 15.4736 4.88286 15.298 4.70765C15.1223 4.53245 15.0111 4.3029 14.9827 4.05645C14.9414 3.68146 14.9053 3.29702 14.9053 2.90452C14.9053 2.51202 14.941 2.12723 14.9831 1.7526C15.0116 1.50615 15.1227 1.2766 15.2983 1.10139C15.474 0.926188 15.7037 0.815658 15.9503 0.787828C16.3224 0.747876 16.7051 0.714233 17.0956 0.714233C17.486 0.714233 17.8683 0.747876 18.2408 0.787828Z" stroke="white" stroke-width="1.4" stroke-linecap="round" stroke-linejoin="round"/>
</svg>
