<svg width="458" height="458" viewBox="0 0 458 458" fill="none" xmlns="http://www.w3.org/2000/svg">
<path d="M419.14 378.162H85.6254C85.2519 378.162 84.9502 377.858 84.9502 377.487C84.9502 377.115 85.2539 376.812 85.6254 376.812H419.138C419.512 376.812 419.813 377.115 419.813 377.487C419.813 377.858 419.512 378.162 419.14 378.162Z" fill="#1E2129"/>
<path d="M91.0852 238.224C90.9973 238.224 90.9094 238.208 90.8255 238.172C88.606 237.247 86.3925 236.21 84.2429 235.091C83.9113 234.92 83.7834 234.512 83.9552 234.18C84.127 233.851 84.5326 233.721 84.8662 233.893C86.9798 234.994 89.1594 236.012 91.3449 236.923C91.6885 237.067 91.8523 237.463 91.7085 237.808C91.6026 238.068 91.3509 238.224 91.0852 238.224ZM78.3076 231.573C78.1837 231.573 78.0598 231.539 77.946 231.469C75.9143 230.185 73.9045 228.792 71.9707 227.334C71.673 227.11 71.6131 226.685 71.8388 226.387C72.0626 226.09 72.4861 226.03 72.7858 226.255C74.6876 227.692 76.6674 229.06 78.6692 230.327C78.9848 230.527 79.0787 230.944 78.8789 231.26C78.7511 231.461 78.5333 231.573 78.3076 231.573ZM66.8085 222.895C66.6487 222.895 66.4869 222.839 66.359 222.723C64.557 221.115 62.801 219.415 61.1409 217.669C60.8832 217.399 60.8952 216.972 61.1649 216.712C61.4346 216.454 61.8621 216.466 62.1218 216.736C63.7579 218.456 65.486 220.13 67.26 221.712C67.5397 221.96 67.5637 222.388 67.3139 222.667C67.1801 222.819 66.9943 222.895 66.8085 222.895ZM56.8817 212.457C56.6839 212.457 56.4881 212.371 56.3563 212.205C54.84 210.323 53.3876 208.355 52.0391 206.36C51.8294 206.05 51.9113 205.631 52.2209 205.421C52.5306 205.211 52.9501 205.293 53.1599 205.603C54.4864 207.566 55.9168 209.502 57.4091 211.356C57.6428 211.648 57.5969 212.073 57.3072 212.307C57.1793 212.407 57.0295 212.457 56.8817 212.457ZM48.8187 200.52C48.581 200.52 48.3513 200.394 48.2254 200.173L47.9717 199.715C46.843 197.662 45.8481 195.616 45.015 193.636C44.8712 193.292 45.031 192.895 45.3766 192.751C45.7182 192.607 46.1178 192.767 46.2616 193.113C47.0767 195.048 48.0496 197.05 49.1564 199.062L49.4081 199.515C49.5879 199.841 49.472 200.255 49.1444 200.434C49.0425 200.492 48.9306 200.52 48.8187 200.52ZM43.3269 187.227C43.0253 187.227 42.7496 187.023 42.6717 186.716C42.0424 184.227 41.6728 181.785 41.5729 179.462C41.5569 179.088 41.8466 178.773 42.2182 178.757C42.2282 178.757 42.2381 178.757 42.2481 178.757C42.6077 178.757 42.9074 179.04 42.9234 179.404C43.0193 181.636 43.3749 183.985 43.9842 186.386C44.0761 186.748 43.8563 187.115 43.4947 187.207C43.4368 187.221 43.3829 187.227 43.3269 187.227ZM243.074 182.852C242.703 182.852 242.399 182.551 242.399 182.177C242.399 181.803 242.701 181.5 243.074 181.5C245.44 181.492 247.847 181.4 250.232 181.224C250.602 181.21 250.929 181.476 250.955 181.849C250.983 182.221 250.704 182.547 250.33 182.572C247.911 182.752 245.471 182.846 243.074 182.852ZM235.87 182.608C235.854 182.608 235.838 182.608 235.822 182.606C233.395 182.435 230.966 182.167 228.602 181.811C228.233 181.755 227.979 181.412 228.035 181.042C228.089 180.673 228.437 180.415 228.804 180.475C231.132 180.824 233.527 181.088 235.918 181.258C236.29 181.284 236.572 181.608 236.546 181.979C236.518 182.337 236.222 182.608 235.87 182.608ZM257.444 181.795C257.112 181.795 256.825 181.552 256.777 181.216C256.723 180.846 256.981 180.505 257.35 180.451C259.707 180.111 262.081 179.688 264.402 179.19C264.762 179.112 265.127 179.344 265.205 179.71C265.283 180.075 265.051 180.435 264.686 180.513C262.335 181.016 259.931 181.446 257.542 181.789C257.51 181.793 257.476 181.795 257.444 181.795ZM221.624 180.455C221.572 180.455 221.52 180.449 221.469 180.437C219.087 179.874 216.736 179.206 214.476 178.455C214.123 178.337 213.931 177.954 214.049 177.6C214.167 177.246 214.546 177.059 214.904 177.173C217.125 177.912 219.439 178.567 221.78 179.122C222.144 179.208 222.367 179.572 222.282 179.935C222.208 180.247 221.93 180.455 221.624 180.455ZM271.538 178.779C271.244 178.779 270.973 178.587 270.889 178.289C270.785 177.93 270.993 177.556 271.352 177.452C273.524 176.829 275.821 176.088 278.179 175.251C278.532 175.125 278.918 175.311 279.042 175.662C279.168 176.014 278.982 176.401 278.63 176.525C276.247 177.372 273.923 178.121 271.724 178.753C271.662 178.771 271.6 178.779 271.538 178.779ZM207.964 175.894C207.872 175.894 207.778 175.876 207.69 175.836C205.453 174.845 203.267 173.744 201.193 172.56C200.87 172.374 200.756 171.962 200.942 171.637C201.127 171.313 201.535 171.197 201.865 171.385C203.898 172.546 206.044 173.627 208.239 174.599C208.581 174.749 208.735 175.149 208.583 175.49C208.469 175.744 208.223 175.894 207.964 175.894ZM64.1894 175.419C64.1395 175.419 64.0876 175.413 64.0376 175.401C61.6783 174.857 59.3789 173.359 57.7307 171.293C57.497 171.002 57.5449 170.576 57.8366 170.344C58.1303 170.109 58.5558 170.158 58.7855 170.45C60.2479 172.284 62.2716 173.609 64.3393 174.084C64.7029 174.168 64.9306 174.53 64.8467 174.893C64.7768 175.207 64.4971 175.419 64.1894 175.419ZM285.141 173.982C284.875 173.982 284.621 173.824 284.516 173.563C284.376 173.217 284.54 172.821 284.885 172.68C287.029 171.801 289.248 170.84 291.48 169.819C291.817 169.665 292.221 169.815 292.377 170.152C292.533 170.492 292.383 170.894 292.043 171.049C289.796 172.076 287.56 173.045 285.399 173.93C285.315 173.966 285.227 173.982 285.141 173.982ZM70.852 173.639C70.6782 173.639 70.5043 173.573 70.3725 173.439C70.1088 173.173 70.1108 172.746 70.3765 172.482C71.7789 171.091 72.582 169.054 72.582 166.888C72.582 166.732 72.578 166.574 72.568 166.419C72.546 166.045 72.8317 165.727 73.2053 165.705C73.5689 165.681 73.8965 165.969 73.9185 166.343C73.9285 166.525 73.9325 166.706 73.9325 166.89C73.9325 169.413 72.9836 171.803 71.3274 173.443C71.1956 173.573 71.0238 173.639 70.852 173.639ZM42.8594 172.945C42.8095 172.945 42.7596 172.939 42.7116 172.929C42.348 172.847 42.1183 172.486 42.2002 172.122C42.2701 171.809 42.348 171.495 42.4299 171.181C42.9713 169.142 43.8523 167.158 45.053 165.288C45.2548 164.974 45.6743 164.882 45.9879 165.082C46.3036 165.284 46.3935 165.701 46.1937 166.017C45.071 167.771 44.2439 169.625 43.7385 171.529C43.6605 171.825 43.5866 172.122 43.5207 172.42C43.4488 172.734 43.1691 172.945 42.8594 172.945ZM195.466 168.75C195.33 168.75 195.19 168.708 195.07 168.622C193.14 167.228 191.272 165.717 189.518 164.133L189.409 164.033C189.135 163.782 189.117 163.352 189.371 163.078C189.624 162.805 190.052 162.787 190.326 163.04L190.415 163.122C192.139 164.681 193.969 166.159 195.861 167.525C196.163 167.745 196.231 168.167 196.013 168.47C195.881 168.654 195.676 168.75 195.466 168.75ZM298.272 167.999C298.024 167.999 297.785 167.863 297.667 167.625C297.499 167.292 297.635 166.886 297.97 166.718C300.066 165.671 302.214 164.555 304.351 163.398C304.681 163.222 305.09 163.344 305.268 163.672C305.446 163.999 305.322 164.411 304.995 164.589C302.845 165.751 300.683 166.874 298.576 167.929C298.476 167.975 298.372 167.999 298.272 167.999ZM55.8808 164.874C55.5232 164.874 55.2235 164.593 55.2056 164.229C55.1936 163.991 55.1896 163.752 55.1896 163.514C55.1896 161.752 55.4872 159.874 56.0766 157.92C54.2526 158.565 52.5026 159.55 50.8585 160.851C50.5628 161.083 50.1393 161.031 49.9095 160.741C49.6778 160.447 49.7277 160.022 50.0194 159.792C52.0691 158.17 54.2806 157.005 56.594 156.334C56.8237 156.268 57.0615 156.326 57.2273 156.474C57.2413 156.478 57.2553 156.482 57.2672 156.488C57.6208 156.61 57.8066 156.995 57.6828 157.347C56.9256 159.526 56.5421 161.6 56.5421 163.514C56.5421 163.732 56.548 163.949 56.556 164.167C56.574 164.541 56.2843 164.856 55.9128 164.874C55.9028 164.874 55.8908 164.874 55.8808 164.874ZM310.964 161.137C310.73 161.137 310.504 161.017 310.378 160.801C310.191 160.479 310.301 160.064 310.622 159.876C312.696 158.669 314.77 157.421 316.785 156.162C317.101 155.964 317.518 156.062 317.716 156.378C317.914 156.696 317.816 157.111 317.5 157.311C315.475 158.575 313.387 159.832 311.303 161.045C311.196 161.107 311.08 161.137 310.964 161.137ZM70.1927 160.705C70.0229 160.705 69.8511 160.641 69.7192 160.511C68.3668 159.189 66.6647 158.188 64.7968 157.613C64.4552 157.509 64.1095 157.419 63.7639 157.343C63.4003 157.263 63.1686 156.903 63.2485 156.538C63.3284 156.172 63.696 155.944 64.0536 156.022C64.4332 156.104 64.8147 156.204 65.1923 156.32C67.268 156.957 69.1599 158.072 70.6642 159.544C70.9319 159.806 70.9359 160.234 70.6742 160.501C70.5443 160.637 70.3665 160.705 70.1927 160.705ZM184.768 159.121C184.586 159.121 184.404 159.047 184.27 158.903C182.834 157.345 181.322 155.611 179.51 153.445C179.27 153.16 179.308 152.732 179.594 152.492C179.879 152.253 180.305 152.291 180.547 152.576C182.345 154.726 183.845 156.444 185.265 157.986C185.517 158.26 185.501 158.687 185.227 158.941C185.095 159.061 184.932 159.121 184.768 159.121ZM323.206 153.503C322.988 153.503 322.773 153.397 322.643 153.202C322.435 152.892 322.519 152.472 322.83 152.265C324.83 150.93 326.822 149.554 328.748 148.177C329.053 147.959 329.475 148.031 329.691 148.333C329.906 148.637 329.839 149.06 329.535 149.276C327.597 150.662 325.593 152.045 323.582 153.389C323.464 153.467 323.334 153.503 323.206 153.503ZM60.148 151.306C60.0301 151.306 59.9123 151.276 59.8044 151.212C59.4827 151.022 59.3769 150.606 59.5667 150.285C60.7933 148.211 62.1557 146.175 63.6181 144.232C63.8418 143.934 64.2634 143.874 64.565 144.098C64.8627 144.322 64.9226 144.747 64.6989 145.045C63.2665 146.949 61.932 148.942 60.7313 150.972C60.6035 151.188 60.3797 151.306 60.148 151.306ZM175.438 148.125C175.245 148.125 175.051 148.041 174.917 147.88C173.558 146.231 171.944 144.292 170.27 142.394C170.024 142.114 170.05 141.686 170.33 141.439C170.608 141.193 171.035 141.217 171.285 141.499C172.971 143.409 174.595 145.36 175.962 147.016C176.199 147.306 176.157 147.732 175.87 147.969C175.744 148.073 175.59 148.125 175.438 148.125ZM334.939 145.109C334.735 145.109 334.535 145.019 334.401 144.845C334.174 144.549 334.23 144.124 334.525 143.896C336.453 142.416 338.343 140.909 340.149 139.413C340.435 139.175 340.862 139.215 341.102 139.503C341.34 139.791 341.3 140.216 341.012 140.454C339.194 141.96 337.288 143.478 335.348 144.969C335.227 145.063 335.083 145.109 334.939 145.109ZM68.7963 139.801C68.6305 139.801 68.4646 139.741 68.3348 139.619C68.0611 139.363 68.0471 138.936 68.3028 138.662C69.949 136.906 71.713 135.208 73.5509 133.618C73.8326 133.374 74.2601 133.404 74.5058 133.685C74.7496 133.967 74.7196 134.395 74.4379 134.64C72.636 136.201 70.9059 137.865 69.2937 139.587C69.1559 139.729 68.9761 139.801 68.7963 139.801ZM165.827 137.383C165.657 137.383 165.485 137.319 165.356 137.192C164.878 136.726 164.395 136.267 163.903 135.813C162.651 134.658 161.334 133.54 159.99 132.487C159.696 132.257 159.644 131.832 159.874 131.538C160.104 131.244 160.527 131.19 160.823 131.422C162.195 132.499 163.54 133.642 164.818 134.82C165.318 135.282 165.809 135.749 166.297 136.223C166.564 136.482 166.57 136.912 166.309 137.18C166.179 137.313 166.003 137.383 165.827 137.383ZM346.046 135.901C345.861 135.901 345.677 135.825 345.543 135.677C345.293 135.4 345.315 134.972 345.595 134.722C347.411 133.09 349.171 131.434 350.829 129.802C351.095 129.54 351.522 129.542 351.786 129.81C352.048 130.076 352.046 130.505 351.778 130.767C350.106 132.413 348.332 134.083 346.5 135.729C346.37 135.843 346.208 135.901 346.046 135.901ZM79.68 130.377C79.4663 130.377 79.2565 130.277 79.1246 130.088C78.9109 129.782 78.9848 129.36 79.2925 129.147C81.2782 127.76 83.3539 126.464 85.4655 125.293C85.7912 125.109 86.2027 125.229 86.3845 125.555C86.5643 125.88 86.4484 126.294 86.1208 126.474C84.0511 127.622 82.0134 128.895 80.0656 130.255C79.9497 130.337 79.8139 130.377 79.68 130.377ZM154.5 128.501C154.378 128.501 154.256 128.469 154.144 128.399C152.139 127.153 150.035 125.994 147.891 124.957C147.556 124.795 147.416 124.39 147.578 124.054C147.739 123.719 148.143 123.579 148.481 123.741C150.666 124.797 152.81 125.98 154.855 127.251C155.173 127.448 155.271 127.864 155.073 128.182C154.947 128.387 154.726 128.501 154.5 128.501ZM356.311 125.768C356.147 125.768 355.985 125.71 355.855 125.591C355.58 125.339 355.56 124.911 355.811 124.636C357.467 122.826 359.042 120.996 360.488 119.202C360.724 118.91 361.149 118.868 361.439 119.1C361.729 119.336 361.775 119.759 361.541 120.051C360.075 121.867 358.482 123.717 356.808 125.549C356.674 125.694 356.493 125.768 356.311 125.768ZM92.2699 123.393C92.0082 123.393 91.7584 123.239 91.6466 122.982C91.5007 122.638 91.6605 122.24 92.0042 122.095C94.2356 121.146 96.5351 120.307 98.8445 119.601C99.2001 119.497 99.5796 119.693 99.6895 120.051C99.7974 120.406 99.5976 120.786 99.24 120.896C96.9785 121.585 94.7231 122.408 92.5356 123.339C92.4477 123.375 92.3578 123.393 92.2699 123.393ZM141.542 122.228C141.466 122.228 141.389 122.214 141.313 122.188C139.087 121.381 136.792 120.684 134.486 120.109C134.123 120.019 133.903 119.651 133.993 119.29C134.083 118.926 134.456 118.704 134.812 118.796C137.163 119.382 139.505 120.093 141.774 120.916C142.124 121.042 142.308 121.431 142.18 121.783C142.078 122.059 141.818 122.228 141.542 122.228ZM106.038 119.202C105.719 119.202 105.437 118.976 105.375 118.65C105.307 118.285 105.547 117.931 105.915 117.861C106.772 117.699 107.633 117.556 108.496 117.428C110.02 117.204 111.58 117.032 113.134 116.916C113.508 116.906 113.832 117.168 113.86 117.54C113.888 117.911 113.608 118.237 113.236 118.265C111.714 118.379 110.186 118.547 108.693 118.766C107.848 118.89 107.005 119.032 106.166 119.19C106.122 119.2 106.08 119.202 106.038 119.202ZM127.572 118.754C127.54 118.754 127.508 118.752 127.476 118.746C125.119 118.415 122.726 118.205 120.368 118.123C119.995 118.109 119.703 117.797 119.715 117.424C119.729 117.058 120.029 116.771 120.39 116.771C120.398 116.771 120.404 116.771 120.412 116.771C122.819 116.854 125.259 117.068 127.662 117.408C128.032 117.46 128.289 117.801 128.237 118.171C128.193 118.511 127.904 118.754 127.572 118.754Z" fill="#1E2129"/>
<path d="M202.997 314.276H106.764C100.79 314.276 95.9458 319.118 95.9458 325.094V342.9C95.9458 348.873 100.788 353.718 106.764 353.718H202.997C208.971 353.718 213.815 348.875 213.815 342.9V325.094C213.815 319.118 208.973 314.276 202.997 314.276Z" fill="#5DCED8"/>
<path d="M201.976 354.393H107.786C100.886 354.393 95.2725 348.779 95.2725 341.879V326.115C95.2725 319.214 100.886 313.601 107.786 313.601H201.978C208.879 313.601 214.492 319.214 214.492 326.115V341.879C214.49 348.779 208.877 354.393 201.976 354.393ZM107.786 314.953C101.631 314.953 96.6249 319.959 96.6249 326.115V341.879C96.6249 348.034 101.631 353.04 107.786 353.04H201.978C208.133 353.04 213.14 348.034 213.14 341.879V326.115C213.14 319.959 208.133 314.953 201.978 314.953H107.786Z" fill="#1E2129"/>
<path d="M112.237 341.16C110.895 341.16 109.84 340.834 109.069 340.185C108.419 339.644 108.094 339.018 108.094 338.311C108.094 337.948 108.194 337.648 108.395 337.408C108.595 337.168 108.873 337.051 109.226 337.051C109.702 337.051 110.05 337.314 110.271 337.844C110.573 338.553 111.254 338.906 112.315 338.906C113.224 338.906 114.103 338.691 114.954 338.259C115.837 337.816 116.277 337.33 116.277 336.799C116.277 336.074 116.003 335.596 115.453 335.366C115.062 335.199 114.279 335.101 113.1 335.073C112.187 335.051 111.368 334.863 110.645 334.511C109.668 334.034 109.187 333.349 109.203 332.456C109.218 331.333 109.768 330.304 110.851 329.369C111.933 328.434 113.126 327.967 114.431 327.967C114.948 327.967 115.587 328.097 116.348 328.354C117.293 328.678 117.767 329.05 117.767 329.469C117.767 329.769 117.671 330.032 117.481 330.262C117.269 330.522 116.998 330.652 116.666 330.652C116.418 330.652 116.047 330.594 115.553 330.48C115.06 330.364 114.686 330.306 114.433 330.306C113.751 330.312 113.104 330.492 112.491 330.842C111.858 331.197 111.54 331.587 111.54 332.006C111.54 332.226 111.636 332.406 111.83 332.546C112.021 332.687 112.311 332.787 112.697 332.843C113.372 332.883 114.045 332.923 114.716 332.963C115.889 333.061 116.816 333.421 117.497 334.042C118.246 334.733 118.622 335.688 118.622 336.911C118.622 338.395 117.845 339.522 116.293 340.287C115.11 340.868 113.759 341.16 112.237 341.16Z" fill="white"/>
<path d="M128.105 339.14C127.72 339.71 127.254 340.185 126.711 340.565C126.046 341.024 125.363 341.254 124.659 341.254C123.313 341.254 122.312 340.978 121.657 340.423C120.272 339.252 119.581 337.218 119.581 334.324C119.581 334.046 119.595 333.634 119.621 333.085C119.647 332.536 119.661 332.122 119.661 331.846C119.661 331.627 119.667 331.297 119.677 330.86C119.687 330.422 119.693 330.09 119.693 329.871C119.693 329.419 119.769 328.992 119.923 328.59C120.128 328.059 120.416 327.793 120.786 327.793C121.075 327.793 121.333 327.895 121.555 328.097C121.799 328.312 121.918 328.586 121.918 328.926C121.918 329.247 121.914 329.733 121.906 330.384C121.898 331.035 121.894 331.523 121.894 331.85C121.894 332.122 121.88 332.53 121.854 333.077C121.829 333.624 121.815 334.032 121.815 334.302C121.815 335.175 121.91 335.986 122.1 336.735C122.322 337.632 122.648 338.257 123.075 338.611C123.297 338.797 123.824 338.894 124.659 338.906C126.054 338.928 126.995 337.634 127.48 335.021C127.734 333.668 127.86 331.769 127.86 329.321C127.86 329 127.948 328.688 128.121 328.388C128.359 327.991 128.697 327.793 129.136 327.793C129.496 327.793 129.766 327.937 129.943 328.224C130.081 328.438 130.149 328.674 130.149 328.934C130.149 331.207 130.051 332.981 129.855 334.254C129.562 336.213 128.978 337.844 128.105 339.14Z" fill="white"/>
<path d="M137.922 340.297C136.692 340.798 135.135 341.048 133.255 341.048C132.938 341.048 132.654 340.904 132.404 340.616C132.153 340.328 132.027 340.021 132.027 339.693V330.538C132.011 330.146 131.997 329.754 131.987 329.363C131.971 328.919 131.985 328.546 132.027 328.24C132.101 327.699 132.562 327.371 133.413 327.255C133.815 327.129 134.48 327.065 135.409 327.065C136.408 327.065 137.363 327.417 138.278 328.118C139.351 328.935 139.886 329.958 139.886 331.185C139.886 331.846 139.774 332.405 139.552 332.861C139.379 333.23 139.075 333.624 138.641 334.044C139.153 334.315 139.608 334.723 140.004 335.27C140.453 335.88 140.677 336.487 140.677 337.092C140.677 337.857 140.294 338.582 139.528 339.268C139.019 339.723 138.482 340.067 137.922 340.297ZM135.411 329.407C134.73 329.407 134.32 329.413 134.182 329.425L134.19 331.257L134.182 333.071C134.664 333.135 135.025 333.155 135.267 333.131C136.883 332.993 137.69 332.345 137.69 331.187C137.69 330.779 137.453 330.384 136.977 330.004C136.488 329.605 135.966 329.407 135.411 329.407ZM136.338 335.512C135.857 335.512 135.139 335.492 134.182 335.452V338.682C135.091 338.63 136.076 338.441 137.137 338.111C138.066 337.823 138.526 337.512 138.516 337.178C138.5 336.735 138.202 336.341 137.621 335.995C137.167 335.72 136.74 335.558 136.338 335.512Z" fill="white"/>
<path d="M145.672 341.16C144.33 341.16 143.275 340.834 142.504 340.185C141.854 339.644 141.529 339.018 141.529 338.311C141.529 337.948 141.629 337.648 141.83 337.408C142.03 337.168 142.308 337.051 142.662 337.051C143.137 337.051 143.485 337.314 143.706 337.844C144.008 338.553 144.689 338.906 145.75 338.906C146.659 338.906 147.538 338.691 148.389 338.259C149.272 337.816 149.712 337.33 149.712 336.799C149.712 336.074 149.438 335.596 148.889 335.366C148.497 335.199 147.714 335.101 146.535 335.073C145.622 335.051 144.803 334.863 144.08 334.511C143.103 334.034 142.622 333.349 142.638 332.456C142.654 331.333 143.203 330.304 144.286 329.369C145.368 328.434 146.561 327.967 147.866 327.967C148.383 327.967 149.022 328.097 149.784 328.354C150.728 328.678 151.202 329.05 151.202 329.469C151.202 329.769 151.106 330.032 150.916 330.262C150.704 330.522 150.433 330.652 150.101 330.652C149.853 330.652 149.482 330.594 148.988 330.48C148.495 330.364 148.121 330.306 147.868 330.306C147.186 330.312 146.539 330.492 145.926 330.842C145.293 331.197 144.975 331.587 144.975 332.006C144.975 332.226 145.071 332.406 145.265 332.546C145.456 332.687 145.746 332.787 146.132 332.843C146.807 332.883 147.48 332.923 148.151 332.963C149.324 333.061 150.251 333.421 150.932 334.042C151.681 334.733 152.057 335.688 152.057 336.911C152.057 338.395 151.28 339.522 149.728 340.287C148.545 340.868 147.192 341.16 145.672 341.16Z" fill="white"/>
<path d="M161.145 331.437C160.669 331.437 160.317 331.163 160.092 330.616C159.986 330.356 159.88 330.2 159.774 330.149C159.694 330.109 159.486 330.089 159.149 330.089C158.484 330.089 157.714 330.652 156.843 331.781C155.623 333.359 155.013 334.835 155.013 336.212C155.013 336.839 155.205 337.376 155.591 337.828C155.976 338.277 156.438 338.501 156.977 338.501C157.501 338.501 158.03 338.351 158.569 338.052C158.759 337.942 159.161 337.66 159.774 337.205C160.186 336.905 160.497 336.755 160.709 336.755C161.027 336.755 161.294 336.881 161.516 337.135C161.722 337.37 161.826 337.64 161.826 337.946C161.826 338.285 161.688 338.583 161.414 338.835C159.962 340.171 158.484 340.838 156.977 340.838C155.789 340.838 154.786 340.367 153.967 339.422C153.186 338.511 152.794 337.442 152.794 336.21C152.794 334.282 153.567 332.312 155.115 330.302C156.43 328.598 157.774 327.747 159.149 327.747C159.381 327.747 159.592 327.755 159.778 327.773C159.964 327.791 160.13 327.817 160.274 327.851C160.505 327.603 160.785 327.479 161.113 327.479C161.652 327.479 161.984 327.817 162.111 328.49C162.201 328.974 162.245 329.539 162.245 330.182C162.245 330.47 162.169 330.732 162.016 330.968C161.816 331.281 161.524 331.437 161.145 331.437Z" fill="white"/>
<path d="M171.357 340.736C171.071 340.736 170.81 340.614 170.572 340.373C168.972 338.737 167.214 337.604 165.296 336.971C165.354 338.647 165.384 339.576 165.384 339.759C165.384 340.087 165.278 340.367 165.066 340.592C164.854 340.82 164.591 340.934 164.273 340.934C163.955 340.934 163.692 340.82 163.48 340.592C163.268 340.365 163.162 340.087 163.162 339.759C163.162 339.328 163.168 338.681 163.178 337.822C163.188 336.961 163.194 336.315 163.194 335.882L163.21 328.914C163.21 328.54 163.314 328.2 163.52 327.895C163.789 327.503 164.161 327.327 164.636 327.369C165.919 327.473 166.578 327.527 166.608 327.533C167.347 327.631 167.977 327.825 168.494 328.113C170.75 329.351 171.876 330.885 171.876 332.715C171.876 333.47 171.641 334.136 171.167 334.715C170.694 335.292 169.984 335.782 169.039 336.179C170.44 337.032 171.493 337.9 172.2 338.789C172.386 339.018 172.478 339.274 172.478 339.558C172.478 339.879 172.366 340.159 172.144 340.391C171.926 340.62 171.663 340.736 171.357 340.736ZM166.279 329.873C166.237 329.867 165.927 329.843 165.352 329.803V334.389C165.484 334.395 165.599 334.397 165.699 334.397C166.994 334.397 167.953 334.222 168.576 333.87C168.846 333.72 169.093 333.522 169.317 333.275C169.541 333.027 169.653 332.841 169.653 332.713C169.653 332.068 169.277 331.447 168.528 330.847C167.815 330.284 167.066 329.958 166.279 329.873Z" fill="white"/>
<path d="M180.231 330.425C179.977 330.425 179.282 330.344 178.147 330.184C178.073 331.245 178.035 332.651 178.035 334.407L178.027 338.285C178.73 338.267 179.445 338.259 180.175 338.259C180.492 338.259 180.754 338.375 180.964 338.604C181.172 338.834 181.275 339.11 181.275 339.433C181.275 339.757 181.17 340.031 180.956 340.258C180.742 340.486 180.474 340.6 180.151 340.6C179.849 340.6 179.396 340.608 178.79 340.622C178.185 340.636 177.731 340.644 177.43 340.644C177.074 340.644 176.539 340.694 175.828 340.794C175.116 340.896 174.581 340.946 174.225 340.946C173.902 340.946 173.632 340.832 173.42 340.604C173.207 340.376 173.101 340.101 173.101 339.779C173.101 339.457 173.213 339.18 173.434 338.95C173.658 338.72 173.938 338.604 174.277 338.604C174.661 338.604 175.166 338.56 175.794 338.474C175.784 337.795 175.778 336.495 175.778 334.571C175.778 333.005 175.83 331.51 175.935 330.088L174.215 330.14C173.898 330.14 173.634 330.028 173.42 329.802C173.207 329.578 173.099 329.299 173.099 328.965C173.099 328.625 173.201 328.35 173.406 328.136C173.596 327.94 173.828 327.828 174.104 327.798C174.555 327.752 175.338 327.73 176.453 327.73C177.456 327.73 178.748 327.85 180.33 328.094C180.96 328.192 181.273 328.59 181.273 329.287C181.273 329.654 181.152 329.946 180.908 330.16C180.71 330.336 180.482 330.425 180.231 330.425Z" fill="white"/>
<path d="M188.691 340.297C187.461 340.798 185.904 341.048 184.025 341.048C183.707 341.048 183.423 340.904 183.173 340.616C182.922 340.328 182.796 340.021 182.796 339.693V330.538C182.78 330.146 182.766 329.754 182.756 329.363C182.74 328.919 182.754 328.546 182.796 328.24C182.87 327.699 183.331 327.371 184.182 327.255C184.584 327.129 185.249 327.065 186.178 327.065C187.177 327.065 188.132 327.417 189.047 328.118C190.12 328.935 190.655 329.958 190.655 331.185C190.655 331.846 190.543 332.405 190.321 332.861C190.148 333.23 189.844 333.624 189.41 334.044C189.922 334.315 190.377 334.723 190.773 335.27C191.222 335.88 191.446 336.487 191.446 337.092C191.446 337.857 191.063 338.582 190.297 339.268C189.786 339.723 189.251 340.067 188.691 340.297ZM186.18 329.407C185.499 329.407 185.089 329.413 184.951 329.425L184.959 331.257L184.951 333.071C185.433 333.135 185.795 333.155 186.036 333.131C187.652 332.993 188.46 332.345 188.46 331.187C188.46 330.779 188.222 330.384 187.746 330.004C187.257 329.605 186.733 329.407 186.18 329.407ZM187.107 335.512C186.626 335.512 185.908 335.492 184.951 335.452V338.682C185.86 338.63 186.845 338.441 187.906 338.111C188.835 337.823 189.295 337.512 189.285 337.178C189.269 336.735 188.971 336.341 188.39 335.995C187.936 335.72 187.509 335.558 187.107 335.512Z" fill="white"/>
<path d="M200.702 329.563C200.596 329.563 200.486 329.545 200.368 329.511C199.513 329.257 198.68 329.131 197.873 329.131C197.478 329.131 197.052 329.165 196.599 329.235C196.145 329.303 195.662 329.407 195.148 329.547C195.148 330.312 195.124 331.451 195.076 332.957C195.372 332.935 196.405 332.827 198.175 332.637C199.184 332.528 199.823 332.474 200.093 332.474C200.404 332.474 200.672 332.582 200.894 332.797C201.116 333.013 201.227 333.301 201.227 333.656C201.227 334.342 200.892 334.731 200.221 334.821C199.799 334.857 199.168 334.913 198.327 334.995C197.578 335.087 196.447 335.199 194.936 335.33C194.899 336.062 194.881 336.651 194.881 337.1C194.881 338.229 194.94 338.872 195.062 339.026C195.12 339.1 195.454 339.138 196.061 339.138C196.389 339.138 196.882 339.13 197.544 339.112C198.203 339.096 198.698 339.086 199.026 339.086C199.132 339.086 199.288 339.068 199.493 339.034C199.699 339 199.853 338.982 199.953 338.982C200.258 338.982 200.52 339.078 200.738 339.268C200.986 339.482 201.11 339.779 201.11 340.165C201.11 340.81 200.8 341.196 200.183 341.322C199.655 341.432 198.558 341.486 196.894 341.486C195.172 341.486 194.049 341.232 193.528 340.726C192.953 340.169 192.665 338.958 192.665 337.098C192.665 336.327 192.717 335.169 192.821 333.622C192.925 332.076 192.975 330.921 192.975 330.154C192.975 329.952 192.949 329.655 192.895 329.259C192.843 328.866 192.815 328.568 192.815 328.366C192.815 327.491 193.184 327.054 193.924 327.054C194.155 327.054 194.369 327.126 194.565 327.27C195.178 327.102 195.76 326.978 196.313 326.894C196.864 326.81 197.386 326.768 197.877 326.768C199.208 326.768 200.272 326.936 201.07 327.27C201.555 327.471 201.799 327.837 201.799 328.366C201.799 328.666 201.703 328.93 201.513 329.159C201.299 329.429 201.03 329.563 200.702 329.563Z" fill="white"/>
<path d="M246.928 203.153L89.8704 298.074C81.9193 297.309 75.6943 290.608 75.6943 282.46V203.153H246.928Z" fill="#43C64C"/>
<path d="M89.8704 298.751C89.8484 298.751 89.8264 298.751 89.8045 298.747C81.3759 297.936 75.0171 290.934 75.0171 282.46V203.153C75.0171 202.779 75.3207 202.478 75.6923 202.478H246.926C247.229 202.478 247.495 202.679 247.577 202.973C247.659 203.265 247.535 203.576 247.275 203.732L90.218 298.653C90.1141 298.717 89.9942 298.751 89.8704 298.751ZM76.3716 203.83V282.462C76.3716 290.163 82.0931 296.538 89.7146 297.381L244.502 203.83H76.3716Z" fill="#1E2129"/>
<path d="M246.928 203.153V282.46C246.928 291.13 239.904 298.146 231.242 298.146H91.3829C90.8694 298.146 90.366 298.118 89.8726 298.074L246.928 203.153Z" fill="#43C64C"/>
<path d="M231.241 298.823H91.3808C90.8733 298.823 90.3579 298.799 89.8085 298.75C89.5169 298.724 89.2751 298.512 89.2112 298.228C89.1453 297.942 89.2711 297.649 89.5209 297.497L246.578 202.576C246.786 202.45 247.048 202.446 247.259 202.566C247.473 202.686 247.603 202.911 247.603 203.155V282.462C247.605 291.484 240.263 298.823 231.241 298.823ZM92.1779 297.471H231.241C239.518 297.471 246.253 290.737 246.253 282.46V204.352L92.1779 297.471Z" fill="#1E2129"/>
<path d="M246.928 203.153L227.643 214.81L161.316 254.909L75.6943 203.153L94.9786 184.632L138.198 143.138L150.682 131.148C156.619 125.446 166.001 125.446 171.946 131.148L184.43 143.138L227.641 184.632L246.928 203.153Z" fill="#1E2129"/>
<path d="M161.316 255.586C161.194 255.586 161.075 255.554 160.967 255.488L75.347 203.732C75.1672 203.624 75.0473 203.437 75.0254 203.229C75.0014 203.021 75.0773 202.811 75.2291 202.666L150.219 130.663C156.438 124.689 166.189 124.689 172.42 130.663L247.399 202.666C247.551 202.811 247.627 203.019 247.603 203.229C247.581 203.437 247.461 203.624 247.282 203.732L161.67 255.488C161.558 255.554 161.438 255.586 161.316 255.586ZM76.7994 203.031L161.316 254.12L245.825 203.031L171.481 131.637C165.777 126.168 156.849 126.168 151.154 131.637L76.7994 203.031Z" fill="#1E2129"/>
<path d="M227.639 154.826V214.808L161.312 254.907L94.9746 214.808V154.826C94.9746 148.371 100.207 143.137 106.663 143.137H215.952C222.407 143.137 227.639 148.371 227.639 154.826Z" fill="white"/>
<path d="M161.314 255.582C161.192 255.582 161.073 255.55 160.965 255.484L94.6274 215.385C94.4256 215.264 94.3018 215.044 94.3018 214.808V154.826C94.3018 148.009 99.8475 142.461 106.666 142.461H215.955C222.771 142.461 228.319 148.007 228.319 154.826V214.808C228.319 215.046 228.195 215.264 227.993 215.385L161.666 255.484C161.556 255.55 161.434 255.582 161.314 255.582ZM95.6522 214.426L161.312 254.116L226.963 214.426V154.826C226.963 148.754 222.022 143.814 215.951 143.814H106.664C100.593 143.814 95.6522 148.754 95.6522 154.826V214.426Z" fill="#1E2129"/>
<path d="M173.48 209.129C171.131 209.129 169.103 208.775 167.397 208.064C167.012 207.904 166.642 207.726 166.291 207.53C164.265 206.406 161.834 206.521 159.802 207.634C159.79 207.64 159.78 207.646 159.768 207.652C158.625 208.269 157.512 208.579 156.426 208.579C153.966 208.579 151.643 207.544 149.461 205.473C147.278 203.403 146.187 201.132 146.187 198.66C146.187 194.427 147.799 190.561 151.024 187.061C154.25 183.561 157.912 181.811 162.011 181.811C162.942 181.811 163.717 182.167 164.339 182.874C164.958 183.583 165.27 184.442 165.27 185.447C165.27 186.82 164.161 187.838 161.945 188.502C158.997 189.373 156.913 190.368 155.696 191.488C153.9 193.113 153.003 195.504 153.003 198.66C153.003 199.324 153.303 199.965 153.9 200.582C154.588 201.267 155.441 201.589 156.46 201.543C158.387 201.451 160.171 199.599 161.812 195.983C163.296 192.827 164.614 191.247 165.767 191.247C166.698 191.247 167.451 191.602 168.029 192.311C168.604 193.021 168.894 193.89 168.894 194.919C168.894 195.376 168.822 196.063 168.678 196.978C168.534 197.893 168.462 198.58 168.462 199.038C168.462 200.526 169.081 201.463 170.324 201.853C170.811 202.013 171.864 202.092 173.482 202.092C176.519 202.092 178.647 201.325 179.865 199.793C180.974 198.421 181.527 196.145 181.527 192.965C181.527 187.359 179.344 182.784 174.979 179.238C170.989 175.99 166.225 174.366 160.683 174.366C154.234 174.366 149.18 176.883 145.524 181.915C142.222 186.4 140.571 192.038 140.571 198.834C140.571 205.103 142.509 210.387 146.389 214.688C150.422 219.173 155.609 221.415 161.947 221.415C163.673 221.415 165.615 221.087 167.771 220.432C167.941 220.38 168.114 220.32 168.28 220.256L173.848 218.12C174.823 217.755 175.454 217.571 175.742 217.571C176.651 217.571 177.438 217.943 178.103 218.686C178.769 219.429 179.1 220.294 179.1 221.277C179.1 223.45 176.741 225.212 172.02 226.561C168.452 227.568 165.116 228.071 162.013 228.071C158.889 228.071 155.69 227.448 152.422 226.201C149.152 224.955 146.355 223.289 144.028 221.209C137.157 215.078 133.721 207.62 133.721 198.834C133.721 190.048 136.071 182.704 140.769 176.803C145.756 170.488 152.392 167.332 160.683 167.332C168.174 167.332 174.589 169.655 179.931 174.298C185.539 179.216 188.342 185.439 188.342 192.967C188.342 198.115 187.123 202.072 184.686 204.841C182.135 207.7 178.401 209.129 173.48 209.129Z" fill="#FF5733"/>
<path d="M392.053 230.698C388.293 242.505 402.521 251.555 406.472 263.647C410.424 275.752 412.883 292.161 386.515 291.106C360.137 290.062 355.839 280.582 358.397 258.455C360.966 236.318 368.389 228.181 368.389 228.181" fill="#1E2129"/>
<path d="M336.468 178.888C336.468 178.888 323.588 182.248 319.794 190.795C316.001 199.343 324.059 218.564 311.128 228.878C298.195 239.192 275.528 260.902 297.651 277.491C319.774 294.081 354.579 257.747 354.579 257.747L354.927 223.302L336.468 178.888Z" fill="#1E2129"/>
<path d="M244.569 260.455L238.517 254.887L208.917 221.85C207.598 220.376 205.59 219.922 203.848 220.5C203.113 220.743 202.436 221.161 201.867 221.762C200.398 223.328 200.147 225.688 201.267 227.522L209.508 241.092C209.508 241.092 205.383 242.025 205.165 246.035C205.165 246.035 205.135 246.037 205.067 246.045C204.494 246.095 201.517 246.608 201.245 251.249C200.322 251.555 198.047 255.874 200.83 260.543C201.461 261.607 201.569 263.088 202.808 264.154C207.271 267.964 216.518 277.394 216.518 277.394L222.16 283.257" fill="white"/>
<path d="M222.16 283.93C221.982 283.93 221.804 283.86 221.672 283.722L216.031 277.859C215.943 277.769 206.757 268.412 202.368 264.666C201.425 263.855 201.057 262.868 200.734 261.997C200.582 261.587 200.438 261.202 200.25 260.884C198.085 257.25 198.898 254.046 199.347 252.837C199.619 252.106 200.067 251.283 200.596 250.853C200.969 246.726 203.459 245.699 204.543 245.447C204.925 242.798 206.943 241.33 208.485 240.711L200.69 227.873C199.417 225.79 199.699 223.087 201.375 221.301C202.01 220.629 202.771 220.146 203.637 219.858C205.702 219.177 207.972 219.78 209.42 221.398L239.021 254.437L245.026 259.957C245.3 260.209 245.318 260.638 245.066 260.912C244.814 261.188 244.387 261.206 244.111 260.952L238.06 255.384L208.413 222.299C207.322 221.083 205.614 220.625 204.062 221.141C203.409 221.357 202.837 221.722 202.358 222.228C201.099 223.57 200.888 225.602 201.845 227.17L210.085 240.743C210.199 240.929 210.215 241.158 210.129 241.358C210.043 241.558 209.867 241.706 209.656 241.754C209.51 241.788 206.026 242.637 205.838 246.073C205.82 246.416 205.546 246.69 205.203 246.71C204.631 246.76 202.16 247.184 201.918 251.287C201.902 251.563 201.719 251.802 201.457 251.888C201.329 251.962 200.776 252.615 200.43 253.882C200.102 255.077 199.795 257.484 201.411 260.195C201.661 260.616 201.833 261.078 202 261.525C202.294 262.312 202.57 263.058 203.247 263.639C207.678 267.423 216.906 276.822 216.997 276.916L222.643 282.785C222.903 283.053 222.895 283.483 222.625 283.74C222.497 283.868 222.327 283.93 222.16 283.93Z" fill="#1E2129"/>
<path d="M213.118 259.492C213.118 259.492 215.619 266.174 207.902 266.034C207.902 266.034 206.02 265.551 203.399 264.045C199.457 261.781 197.875 256.755 200.027 252.751C200.488 251.892 200.968 251.339 201.245 251.247L213.118 259.492Z" fill="white"/>
<path d="M208.138 266.711C208.056 266.711 207.974 266.711 207.89 266.709C207.838 266.709 207.786 266.701 207.734 266.687C207.654 266.665 205.732 266.164 203.063 264.63C198.772 262.164 197.144 256.693 199.431 252.431C199.749 251.842 200.376 250.823 201.03 250.605C201.233 250.537 201.455 250.569 201.631 250.691L213.504 258.934C213.615 259.012 213.703 259.124 213.751 259.254C213.799 259.381 214.912 262.428 213.354 264.634C212.379 266.014 210.625 266.711 208.138 266.711ZM208 265.361C210.075 265.347 211.522 264.879 212.247 263.858C213.21 262.502 212.73 260.53 212.547 259.917L201.269 252.088C201.111 252.275 200.878 252.601 200.624 253.075C198.678 256.697 200.075 261.357 203.739 263.461C205.954 264.733 207.638 265.255 208 265.361Z" fill="#1E2129"/>
<path d="M216.159 258.873C212.417 264.692 200.312 253.429 200.312 253.429C199.457 247.653 204.492 246.095 205.065 246.043C205.067 246.045 218.917 254.583 216.159 258.873Z" fill="white"/>
<path d="M212.99 261.216C207.754 261.216 200.186 254.234 199.853 253.924C199.741 253.82 199.667 253.68 199.645 253.528C199.315 251.305 199.757 249.407 200.951 247.893C202.352 246.117 204.416 245.424 205.007 245.372C205.149 245.358 205.299 245.394 205.42 245.47C205.852 245.737 216.026 252.056 217.099 256.779C217.309 257.702 217.183 258.529 216.726 259.24C216.007 260.361 214.972 261.012 213.655 261.18C213.439 261.204 213.216 261.216 212.99 261.216ZM200.951 253.095C202.16 254.18 209.254 260.369 213.489 259.833C214.402 259.719 215.092 259.284 215.591 258.507C215.849 258.107 215.911 257.64 215.783 257.076C215.016 253.702 207.904 248.622 204.939 246.76C204.392 246.914 202.959 247.485 201.958 248.8C201.083 249.948 200.744 251.393 200.951 253.095Z" fill="#1E2129"/>
<path d="M217.371 255.013C217.331 255.011 217.403 255.019 217.371 255.013C213.593 254.883 203.664 246.846 203.664 246.846C203.303 242.023 209.508 241.092 209.508 241.092L219.806 248.476C222.329 250.28 220.479 255.047 217.371 255.013Z" fill="white"/>
<path d="M217.367 255.69C217.345 255.69 217.321 255.688 217.299 255.686C217.289 255.686 217.279 255.684 217.269 255.682C213.437 255.54 204.272 248.209 203.237 247.371C203.091 247.254 203.001 247.082 202.987 246.896C202.664 242.587 207.045 240.777 209.406 240.423C209.582 240.395 209.758 240.439 209.899 240.541L220.196 247.925C221.52 248.872 221.998 250.646 221.41 252.44C220.881 254.062 219.437 255.686 217.401 255.686C217.389 255.69 217.379 255.692 217.367 255.69ZM217.385 254.338C217.391 254.338 217.397 254.338 217.403 254.338C218.763 254.338 219.75 253.179 220.128 252.022C220.446 251.049 220.424 249.751 219.411 249.026L209.346 241.81C208.261 242.031 204.28 243.078 204.324 246.512C207.22 248.828 214.548 254.23 217.385 254.338Z" fill="#1E2129"/>
<path d="M228.564 260.622L227.997 259.589C225.979 255.912 225.346 251.632 226.213 247.529L226.872 244.405L221.405 245.138C218.652 245.507 216.003 243.945 214.994 241.358C214.578 240.295 215.201 239.11 216.312 238.851L227.16 236.316C230.446 235.548 233.755 237.514 234.648 240.771L238.521 254.887L244.572 260.454" fill="white"/>
<path d="M228.565 261.298C228.325 261.298 228.093 261.172 227.971 260.946L227.404 259.913C225.31 256.095 224.651 251.648 225.55 247.389L226.01 245.202L221.491 245.807C218.418 246.22 215.485 244.49 214.361 241.604C214.091 240.914 214.135 240.143 214.478 239.488C214.824 238.835 215.435 238.361 216.155 238.194L227 235.658C230.656 234.807 234.3 236.973 235.295 240.593L239.117 254.521L245.024 259.957C245.298 260.209 245.316 260.638 245.064 260.912C244.812 261.188 244.385 261.206 244.109 260.952L238.058 255.384C237.964 255.298 237.896 255.188 237.864 255.067L233.991 240.95C233.189 238.034 230.257 236.288 227.31 236.975L216.464 239.51C216.125 239.59 215.839 239.812 215.677 240.117C215.515 240.425 215.495 240.787 215.621 241.11C216.52 243.416 218.862 244.794 221.313 244.464L226.781 243.731C226.994 243.699 227.218 243.781 227.366 243.941C227.516 244.103 227.578 244.327 227.532 244.54L226.873 247.665C226.041 251.608 226.651 255.726 228.589 259.262L229.156 260.295C229.336 260.622 229.216 261.032 228.888 261.212C228.786 261.272 228.674 261.298 228.565 261.298Z" fill="#1E2129"/>
<path d="M323.134 261.174L297.499 328.578C295.855 332.909 292.958 336.497 289.318 339.006C285.67 341.517 281.277 342.952 276.648 342.952C269.211 342.952 262.264 339.25 258.125 333.073L239.061 309.537L227.695 295.503L217.397 282.789L245.991 254.467L274.435 293.805L281.119 278.8C285.145 269.402 294.113 263.068 304.313 262.394L323.134 261.174Z" fill="#FF5733"/>
<path opacity="0.4" d="M242.053 302.821C242.053 305.49 240.898 307.888 239.061 309.542L227.695 295.507C229.192 294.415 231.03 293.775 233.005 293.775C238.002 293.775 242.053 297.825 242.053 302.821Z" fill="white"/>
<path opacity="0.4" d="M268.883 310.474C272.234 310.474 274.95 307.758 274.95 304.407C274.95 301.056 272.234 298.34 268.883 298.34C265.532 298.34 262.816 301.056 262.816 304.407C262.816 307.758 265.532 310.474 268.883 310.474Z" fill="white"/>
<path opacity="0.4" d="M249.681 290.305C251.372 290.305 252.743 288.934 252.743 287.242C252.743 285.551 251.372 284.18 249.681 284.18C247.989 284.18 246.618 285.551 246.618 287.242C246.618 288.934 247.989 290.305 249.681 290.305Z" fill="white"/>
<path opacity="0.4" d="M284.635 328.924C286.313 328.924 287.674 327.563 287.674 325.885C287.674 324.207 286.313 322.847 284.635 322.847C282.957 322.847 281.597 324.207 281.597 325.885C281.597 327.563 282.957 328.924 284.635 328.924Z" fill="white"/>
<path opacity="0.4" d="M285.984 313.077C287.296 313.077 288.359 312.014 288.359 310.702C288.359 309.39 287.296 308.327 285.984 308.327C284.672 308.327 283.608 309.39 283.608 310.702C283.608 312.014 284.672 313.077 285.984 313.077Z" fill="white"/>
<path opacity="0.4" d="M265.85 331.95C267.525 331.95 268.883 330.593 268.883 328.918C268.883 327.243 267.525 325.885 265.85 325.885C264.176 325.885 262.818 327.243 262.818 328.918C262.818 330.593 264.176 331.95 265.85 331.95Z" fill="white"/>
<path d="M258.125 333.752C257.93 333.752 257.734 333.666 257.6 333.501L216.868 283.215C216.65 282.945 216.67 282.554 216.918 282.31L245.512 253.99C245.651 253.85 245.843 253.778 246.043 253.798C246.241 253.814 246.421 253.916 246.534 254.076L274.978 293.416C275.198 293.719 275.13 294.141 274.827 294.359C274.523 294.578 274.099 294.51 273.884 294.207L245.901 255.506L218.302 282.842L258.649 332.651C258.885 332.941 258.839 333.367 258.549 333.602C258.425 333.702 258.275 333.752 258.125 333.752Z" fill="#1E2129"/>
<path d="M410.604 284.074L405.13 377.487H286.094L299.696 280.36C301.426 271.009 308.668 263.649 317.986 261.765C332.352 258.863 337.418 258.701 346.068 258.541C355.841 258.355 368.191 257.099 383.906 258.625C386.091 258.837 388.345 259.106 390.666 259.436C402.739 261.158 411.441 271.902 410.604 284.074Z" fill="#FF5733"/>
<path d="M286.096 378.162C286.064 378.162 286.034 378.16 286 378.156C285.63 378.104 285.373 377.762 285.425 377.393L299.027 280.266C299.079 279.897 299.419 279.641 299.79 279.691C300.16 279.743 300.418 280.084 300.366 280.454L286.763 377.581C286.717 377.918 286.428 378.162 286.096 378.162Z" fill="#1E2129"/>
<path d="M333.588 259.468L339.252 226.983L368.633 226.709L363.063 260.517C363.063 260.517 354.255 269.799 342.212 266.692C332.531 264.193 333.588 259.468 333.588 259.468Z" fill="white"/>
<path d="M347.127 267.997C345.509 267.997 343.809 267.801 342.043 267.345C332.07 264.772 332.839 259.766 332.923 259.34L338.585 226.865C338.641 226.543 338.918 226.307 339.244 226.305L368.625 226.032C368.789 226.05 369.015 226.118 369.144 226.267C369.274 226.419 369.33 226.621 369.298 226.817L363.728 260.625C363.707 260.759 363.645 260.883 363.551 260.98C363.475 261.064 356.768 267.997 347.127 267.997ZM334.25 259.608C334.236 259.684 333.586 263.767 342.382 266.037C353.076 268.8 361.267 261.328 362.432 260.193L367.836 227.392L339.823 227.654L334.256 259.584C334.254 259.592 334.252 259.6 334.25 259.608Z" fill="#1E2129"/>
<path d="M368.265 229.12C379.796 214.374 375.08 192.229 375.08 192.229L335.776 179.52C335.119 180.157 321.766 193.004 321.264 216.656C320.851 236.142 340.269 245.475 359.471 236.545" fill="white"/>
<path d="M344.798 240.637C339.566 240.637 334.647 239.291 330.536 236.608C323.941 232.303 320.409 225.212 320.589 216.642C321.081 193.484 333.842 180.453 335.297 179.044C335.474 178.871 335.748 178.801 335.984 178.877L375.288 191.586C375.517 191.66 375.691 191.852 375.741 192.09C375.789 192.313 380.39 214.714 368.797 229.538C368.567 229.831 368.142 229.885 367.848 229.653C367.554 229.424 367.502 228.998 367.732 228.705C378.124 215.418 375.034 195.722 374.492 192.751L335.96 180.291C333.634 182.654 322.397 195.166 321.942 216.672C321.77 224.759 325.084 231.437 331.275 235.477C338.805 240.391 349.239 240.561 359.188 235.934C359.525 235.777 359.929 235.922 360.085 236.262C360.242 236.602 360.095 237.003 359.757 237.159C354.767 239.48 349.646 240.637 344.798 240.637Z" fill="#1E2129"/>
<path d="M368.391 228.181L364.601 213.693C364.601 213.693 357.831 216.128 349.281 206.439C340.73 196.752 334.517 185.233 335.047 178.814C335.576 172.396 367.67 169.161 385.046 185.097C402.423 201.043 395.81 218.899 392.05 230.696" fill="#1E2129"/>
<path d="M363.001 215.124C363.001 215.124 371.124 207.233 375.587 208.883C380.05 210.533 378.13 226.317 372.784 227.723C367.436 229.13 363.179 226.958 363.179 226.958" fill="white"/>
<path d="M369.084 228.874C365.506 228.874 363.009 227.629 362.871 227.557C362.54 227.388 362.408 226.982 362.576 226.65C362.745 226.317 363.153 226.185 363.485 226.353C363.525 226.375 367.596 228.388 372.61 227.066C375.299 226.359 377.143 221.081 377.371 216.384C377.549 212.73 376.756 210.031 375.351 209.512C372.015 208.285 365.644 213.493 363.469 215.605C363.201 215.865 362.773 215.859 362.512 215.591C362.252 215.323 362.258 214.896 362.526 214.634C362.869 214.3 371.016 206.463 375.817 208.243C377.848 208.994 378.931 212.061 378.717 216.448C378.464 221.686 376.4 227.464 372.95 228.37C371.577 228.738 370.273 228.874 369.084 228.874Z" fill="#1E2129"/>
<path d="M368.918 217.258C369.244 216.682 369.69 216.177 370.219 215.779C370.551 215.531 370.924 215.324 371.332 215.252C371.739 215.18 372.189 215.262 372.5 215.533C372.942 215.919 373.018 216.574 372.996 217.16C372.956 218.228 372.696 219.289 372.237 220.254" fill="white"/>
<path d="M372.237 220.935C372.141 220.935 372.041 220.913 371.947 220.869C371.609 220.707 371.466 220.306 371.627 219.968C372.047 219.087 372.287 218.108 372.321 217.137C372.343 216.584 372.253 216.216 372.057 216.046C371.919 215.926 371.689 215.875 371.45 215.92C371.198 215.964 370.928 216.096 370.625 216.322C370.171 216.662 369.785 217.099 369.508 217.589C369.324 217.916 368.912 218.028 368.587 217.846C368.261 217.663 368.147 217.251 368.329 216.925C368.699 216.272 369.212 215.689 369.813 215.239C370.291 214.882 370.75 214.668 371.216 214.586C371.853 214.476 372.502 214.638 372.946 215.025C373.471 215.483 373.709 216.19 373.671 217.185C373.629 218.338 373.345 219.5 372.848 220.545C372.732 220.791 372.49 220.935 372.237 220.935Z" fill="#1E2129"/>
<path d="M313.491 280.786L297.325 302.439C297.325 302.439 287.382 292.874 284.631 288.094C281.888 283.313 284.302 276.613 284.302 276.613C284.302 276.613 274.467 269.742 273.644 267.215C272.147 262.63 276.61 261.174 276.61 261.174C274.083 255.95 279.631 254.465 279.631 254.465C279.12 253.381 279.132 252.348 279.401 251.445C280.088 249.125 282.987 248.316 284.895 249.807L289.25 253.205L285.846 247.334C285.496 246.726 285.327 246.053 285.327 245.378C285.327 244.427 285.67 243.476 286.345 242.743C287.904 241.045 290.579 241.057 292.123 242.771L300.436 252.006L300.975 249.006C301.231 247.555 302.23 246.343 303.604 245.803C304.115 245.601 304.635 245.514 305.14 245.514C307.366 245.514 309.348 247.294 309.374 249.701L309.561 266.062L309.555 266.056C309.657 267.808 309.368 269.582 308.666 271.261L307.19 274.801L313.491 280.786Z" fill="white"/>
<path d="M297.325 303.115C297.152 303.115 296.984 303.049 296.858 302.925C296.448 302.531 286.813 293.238 284.046 288.429C281.589 284.148 282.989 278.562 283.505 276.876C281.451 275.422 273.798 269.868 273.003 267.423C272.124 264.732 273.107 262.988 274.085 261.997C274.645 261.434 275.264 261.054 275.72 260.822C275.142 259.338 275.122 257.991 275.664 256.809C276.371 255.262 277.861 254.435 278.748 254.062C278.467 253.147 278.467 252.202 278.752 251.251C279.132 249.97 280.095 248.998 281.393 248.582C282.74 248.15 284.202 248.41 285.309 249.275L286.913 250.526L285.259 247.673C284.859 246.98 284.648 246.187 284.648 245.38C284.648 244.225 285.073 243.126 285.844 242.287C286.709 241.342 287.938 240.803 289.216 240.803C289.222 240.803 289.228 240.803 289.234 240.803C290.523 240.809 291.758 241.36 292.621 242.319L300.01 250.528L300.306 248.888C300.602 247.222 301.768 245.797 303.353 245.176C303.916 244.954 304.517 244.84 305.137 244.84C307.814 244.84 310.015 247.018 310.047 249.695L310.235 266.054C310.235 266.076 310.235 266.098 310.233 266.12C310.325 267.98 310.007 269.796 309.288 271.52L307.991 274.629L313.957 280.294C314.204 280.53 314.238 280.916 314.033 281.189L297.867 302.843C297.751 302.999 297.573 303.097 297.381 303.113C297.363 303.115 297.345 303.115 297.325 303.115ZM282.7 249.731C282.402 249.731 282.098 249.777 281.807 249.871C280.94 250.148 280.301 250.791 280.049 251.639C279.789 252.506 279.855 253.359 280.241 254.178C280.324 254.357 280.326 254.567 280.243 254.749C280.159 254.931 279.999 255.067 279.805 255.119C279.783 255.125 277.641 255.726 276.89 257.38C276.451 258.345 276.561 259.522 277.218 260.878C277.304 261.054 277.308 261.258 277.232 261.438C277.156 261.617 277.004 261.755 276.818 261.815C276.431 261.945 273.043 263.198 274.285 267.003C274.835 268.687 280.958 273.45 284.688 276.055C284.937 276.231 285.039 276.551 284.937 276.838C284.915 276.902 282.666 283.307 285.219 287.754C287.522 291.755 295.13 299.341 297.245 301.415L312.59 280.86L306.723 275.288C306.519 275.096 306.457 274.796 306.565 274.537L308.041 270.997C308.695 269.431 308.976 267.78 308.878 266.092C308.876 266.048 308.878 266.006 308.884 265.964L308.697 249.707C308.675 247.767 307.078 246.189 305.139 246.189C304.691 246.189 304.256 246.271 303.85 246.43C302.699 246.882 301.852 247.913 301.638 249.121L301.099 252.124C301.053 252.378 300.867 252.583 300.618 252.655C300.37 252.723 300.102 252.649 299.93 252.458L291.618 243.222C291 242.537 290.151 242.157 289.23 242.153C289.226 242.153 289.222 242.153 289.216 242.153C288.304 242.153 287.46 242.525 286.841 243.2C286.3 243.791 286 244.565 286 245.38C286 245.951 286.148 246.51 286.43 246.996L289.832 252.867C289.996 253.147 289.936 253.502 289.692 253.716C289.446 253.93 289.085 253.938 288.833 253.738L284.478 250.34C283.966 249.94 283.339 249.731 282.7 249.731Z" fill="#1E2129"/>
<path d="M411.135 297.216L393.477 332.2L386.599 345.831L381.694 355.554C377.103 364.644 367.784 370.379 357.605 370.379C353.596 370.379 350.25 369.522 346.714 367.86C343.17 366.206 339.434 363.751 336.877 360.67L289.086 304.803L312.796 275.768L357.116 318.703L383.213 258.625C385.398 258.837 387.652 259.106 389.973 259.436C391.104 259.596 392.252 259.85 393.417 260.187C409.041 264.728 417.084 282.065 411.135 297.216Z" fill="#FF5733"/>
<path opacity="0.4" d="M393.477 332.2L386.599 345.831C383.654 344.75 381.552 341.931 381.552 338.615C381.552 334.369 384.996 330.925 389.242 330.925C390.802 330.925 392.262 331.399 393.477 332.2Z" fill="white"/>
<path opacity="0.4" d="M390.642 306.199C393.201 306.199 395.275 304.125 395.275 301.566C395.275 299.008 393.201 296.934 390.642 296.934C388.083 296.934 386.009 299.008 386.009 301.566C386.009 304.125 388.083 306.199 390.642 306.199Z" fill="white"/>
<path opacity="0.4" d="M362.851 362.154C367.231 362.154 370.781 358.604 370.781 354.225C370.781 349.846 367.231 346.296 362.851 346.296C358.472 346.296 354.922 349.846 354.922 354.225C354.922 358.604 358.472 362.154 362.851 362.154Z" fill="white"/>
<path opacity="0.4" d="M394.486 359.138C397.199 359.138 399.398 356.939 399.398 354.225C399.398 351.512 397.199 349.313 394.486 349.313C391.773 349.313 389.573 351.512 389.573 354.225C389.573 356.939 391.773 359.138 394.486 359.138Z" fill="white"/>
<path opacity="0.4" d="M399.082 342.275C400.709 342.275 402.027 340.956 402.027 339.33C402.027 337.704 400.709 336.385 399.082 336.385C397.456 336.385 396.138 337.704 396.138 339.33C396.138 340.956 397.456 342.275 399.082 342.275Z" fill="white"/>
<path opacity="0.4" d="M337.881 336.956C338.754 336.956 339.462 336.249 339.462 335.376C339.462 334.503 338.754 333.796 337.881 333.796C337.009 333.796 336.301 334.503 336.301 335.376C336.301 336.249 337.009 336.956 337.881 336.956Z" fill="white"/>
<path opacity="0.4" d="M314.176 320.15C316.635 320.15 318.629 318.156 318.629 315.697C318.629 313.237 316.635 311.244 314.176 311.244C311.717 311.244 309.723 313.237 309.723 315.697C309.723 318.156 311.717 320.15 314.176 320.15Z" fill="white"/>
<path opacity="0.4" d="M362.596 291.568C365.93 291.568 368.633 288.865 368.633 285.53C368.633 282.196 365.93 279.493 362.596 279.493C359.262 279.493 356.559 282.196 356.559 285.53C356.559 288.865 359.262 291.568 362.596 291.568Z" fill="white"/>
<path opacity="0.4" d="M396.783 281.505C398.053 281.505 399.083 280.475 399.083 279.205C399.083 277.935 398.053 276.906 396.783 276.906C395.513 276.906 394.484 277.935 394.484 279.205C394.484 280.475 395.513 281.505 396.783 281.505Z" fill="white"/>
<path opacity="0.4" d="M342.693 290.623C343.626 290.623 344.383 289.866 344.383 288.933C344.383 287.999 343.626 287.243 342.693 287.243C341.759 287.243 341.002 287.999 341.002 288.933C341.002 289.866 341.759 290.623 342.693 290.623Z" fill="white"/>
<path opacity="0.4" d="M348.637 279.369C349.571 279.369 350.327 278.612 350.327 277.679C350.327 276.745 349.571 275.989 348.637 275.989C347.704 275.989 346.947 276.745 346.947 277.679C346.947 278.612 347.704 279.369 348.637 279.369Z" fill="white"/>
<path opacity="0.4" d="M325.67 281.155C328.645 281.155 331.058 278.743 331.058 275.767C331.058 272.792 328.645 270.379 325.67 270.379C322.694 270.379 320.282 272.792 320.282 275.767C320.282 278.743 322.694 281.155 325.67 281.155Z" fill="white"/>
<path opacity="0.4" d="M301.391 350.321C303.613 350.321 305.414 348.52 305.414 346.298C305.414 344.076 303.613 342.274 301.391 342.274C299.169 342.274 297.367 344.076 297.367 346.298C297.367 348.52 299.169 350.321 301.391 350.321Z" fill="white"/>
<path opacity="0.4" d="M296.506 330.647C297.538 330.647 298.374 329.811 298.374 328.78C298.374 327.748 297.538 326.912 296.506 326.912C295.474 326.912 294.638 327.748 294.638 328.78C294.638 329.811 295.474 330.647 296.506 330.647Z" fill="white"/>
<path d="M357.601 371.056C357.227 371.056 356.926 370.753 356.926 370.381C356.926 370.009 357.229 369.706 357.601 369.706C367.588 369.706 376.588 364.166 381.087 355.25L410.527 296.91C410.695 296.576 411.101 296.442 411.436 296.61C411.77 296.778 411.904 297.185 411.736 297.519L382.295 355.857C377.565 365.233 368.103 371.056 357.601 371.056Z" fill="#1E2129"/>
<path d="M357.811 319.376C357.717 319.376 357.625 319.356 357.534 319.316C357.192 319.163 357.042 318.763 357.194 318.422L375.479 277.703C375.633 277.364 376.033 277.214 376.374 277.364C376.716 277.518 376.866 277.917 376.714 278.259L358.429 318.977C358.315 319.229 358.069 319.376 357.811 319.376Z" fill="#1E2129"/>
<path d="M337.572 361.349C337.382 361.349 337.192 361.269 337.058 361.111L289.274 305.244C289.062 304.996 289.058 304.631 289.264 304.377L312.967 275.34C313.087 275.192 313.263 275.102 313.453 275.092C313.658 275.08 313.828 275.152 313.964 275.284L364.465 324.742C364.733 325.004 364.737 325.431 364.475 325.699C364.214 325.967 363.786 325.971 363.518 325.709L313.547 276.768L290.668 304.797L338.085 360.234C338.327 360.518 338.295 360.946 338.011 361.187C337.883 361.295 337.727 361.349 337.572 361.349Z" fill="#1E2129"/>
<path d="M296.776 260.53C296.616 260.53 296.458 260.474 296.329 260.361L288.801 253.712C288.521 253.464 288.495 253.037 288.741 252.757C288.989 252.475 289.416 252.449 289.696 252.697L297.224 259.346C297.503 259.593 297.529 260.021 297.284 260.301C297.15 260.452 296.962 260.53 296.776 260.53Z" fill="#1E2129"/>
<path d="M293.478 266.737C293.324 266.737 293.17 266.685 293.044 266.58L279.2 254.989C278.914 254.749 278.876 254.321 279.116 254.036C279.357 253.75 279.783 253.714 280.069 253.952L293.913 265.543C294.199 265.783 294.237 266.21 293.997 266.496C293.861 266.654 293.669 266.737 293.478 266.737Z" fill="#1E2129"/>
<path d="M288.481 272.014C288.325 272.014 288.17 271.96 288.042 271.85L276.171 261.685C275.887 261.442 275.855 261.016 276.097 260.732C276.341 260.451 276.766 260.417 277.05 260.658L288.921 270.823C289.204 271.067 289.236 271.492 288.995 271.776C288.861 271.934 288.671 272.014 288.481 272.014Z" fill="#1E2129"/>
<path d="M330.694 207.741C331.263 206.546 331.075 205.267 330.273 204.885C329.471 204.503 328.359 205.162 327.79 206.358C327.22 207.553 327.409 208.832 328.211 209.214C329.012 209.596 330.124 208.936 330.694 207.741Z" fill="#1E2129"/>
<path d="M329.601 202.116C331.309 202.074 332.913 203.169 333.672 204.895L329.601 202.116Z" fill="white"/>
<path d="M333.67 205.572C333.41 205.572 333.163 205.423 333.051 205.169C332.402 203.69 331.079 202.754 329.617 202.793C329.279 202.781 328.935 202.508 328.923 202.134C328.916 201.761 329.209 201.451 329.583 201.441C331.584 201.389 333.416 202.642 334.289 204.623C334.439 204.965 334.283 205.365 333.942 205.514C333.856 205.554 333.762 205.572 333.67 205.572Z" fill="#1E2129"/>
<path d="M343.32 213.743C343.889 212.548 343.701 211.269 342.899 210.887C342.097 210.505 340.986 211.164 340.416 212.36C339.847 213.555 340.035 214.834 340.837 215.216C341.639 215.598 342.751 214.938 343.32 213.743Z" fill="#1E2129"/>
<path d="M342.227 208.119C343.935 208.077 345.539 209.172 346.298 210.898L342.227 208.119Z" fill="white"/>
<path d="M346.296 211.573C346.036 211.573 345.789 211.424 345.677 211.17C345.026 209.694 343.691 208.771 342.243 208.795C341.909 208.787 341.561 208.509 341.549 208.135C341.541 207.762 341.835 207.452 342.209 207.442C344.21 207.38 346.042 208.643 346.915 210.625C347.065 210.966 346.909 211.366 346.568 211.516C346.48 211.555 346.388 211.573 346.296 211.573Z" fill="#1E2129"/>
<path d="M335.422 209.674C334.611 211.406 332.288 216.071 331.475 217.803C330.985 218.847 330.488 219.934 330.582 221.053C330.678 222.17 331.545 223.328 332.881 223.532" fill="white"/>
<path d="M332.881 224.208C332.847 224.208 332.813 224.206 332.777 224.2C331.043 223.932 330.02 222.444 329.908 221.109C329.796 219.791 330.362 218.582 330.863 217.515C331.269 216.652 332.048 215.062 332.827 213.468C333.612 211.863 334.401 210.255 334.809 209.386C334.967 209.049 335.366 208.901 335.708 209.061C336.045 209.218 336.191 209.622 336.033 209.96C335.626 210.833 334.833 212.451 334.042 214.063C333.265 215.649 332.489 217.229 332.086 218.088C331.658 219.001 331.175 220.036 331.255 220.995C331.321 221.782 331.95 222.705 332.983 222.863C333.352 222.919 333.604 223.265 333.548 223.634C333.498 223.968 333.211 224.208 332.881 224.208Z" fill="#1E2129"/>
<path d="M338.245 228.325C337.57 228.325 336.897 228.229 336.243 228.035C335.886 227.929 335.68 227.554 335.788 227.196C335.894 226.839 336.271 226.633 336.627 226.741C338.067 227.166 339.65 227.004 340.968 226.293C342.289 225.582 343.298 224.351 343.735 222.917C343.845 222.559 344.219 222.362 344.58 222.467C344.938 222.577 345.137 222.955 345.03 223.313C344.488 225.087 343.242 226.607 341.609 227.484C340.575 228.039 339.412 228.325 338.245 228.325Z" fill="#1E2129"/>
<path d="M223.954 168.15C235.645 168.15 245.122 158.673 245.122 146.982C245.122 135.291 235.645 125.814 223.954 125.814C212.263 125.814 202.786 135.291 202.786 146.982C202.786 158.673 212.263 168.15 223.954 168.15Z" fill="#1E2129"/>
<path d="M223.954 168.828C211.907 168.828 202.108 159.029 202.108 146.982C202.108 134.936 211.907 125.137 223.954 125.137C236 125.137 245.799 134.936 245.799 146.982C245.799 159.029 235.998 168.828 223.954 168.828ZM223.954 126.489C212.655 126.489 203.461 135.681 203.461 146.982C203.461 158.283 212.653 167.475 223.954 167.475C235.253 167.475 244.447 158.281 244.447 146.982C244.447 135.683 235.253 126.489 223.954 126.489Z" fill="#1E2129"/>
<path d="M227.092 155.451L222.172 155.437C220.61 155.437 219.829 154.901 219.829 153.829C219.829 152.622 220.7 152.019 222.444 152.019C222.61 152.019 222.791 152.023 222.989 152.033V140.048C222.27 140.59 221.802 140.859 221.589 140.859C221.127 140.859 220.724 140.679 220.38 140.318C220.036 139.958 219.865 139.539 219.865 139.061C219.865 138.566 220.142 138.056 220.696 137.535L222.096 136.428L223.608 135.104C224.228 134.616 224.827 134.375 225.404 134.375C226.148 134.375 226.521 134.86 226.521 135.835C226.521 136.906 226.479 138.414 226.397 140.36C226.315 142.306 226.273 145.084 226.273 148.696V151.965H227.09C227.57 151.965 227.973 152.133 228.299 152.464C228.625 152.798 228.789 153.213 228.789 153.707C228.789 154.202 228.625 154.618 228.299 154.949C227.975 155.285 227.572 155.451 227.092 155.451Z" fill="white"/>
<path d="M340.129 94.2537L414.122 79.8379L405.591 112.136L340.129 94.2537Z" fill="#FF5733"/>
<path d="M359.861 99.6436L399.039 86.5063L368.118 101.899L365.355 116.764L359.861 99.6436Z" fill="#1E2129"/>
<path d="M365.354 116.764L381.42 105.533L368.117 101.899L365.354 116.764Z" fill="#F1BF00"/>
<path d="M83.316 140.835C94.9429 140.835 104.368 131.41 104.368 119.783C104.368 108.156 94.9429 98.7305 83.316 98.7305C71.6891 98.7305 62.2637 108.156 62.2637 119.783C62.2637 131.41 71.6891 140.835 83.316 140.835Z" fill="#43C64C"/>
<path d="M80.8009 118.061C83.4709 118.061 85.6354 115.896 85.6354 113.226C85.6354 110.556 83.4709 108.392 80.8009 108.392C78.1308 108.392 75.9663 110.556 75.9663 113.226C75.9663 115.896 78.1308 118.061 80.8009 118.061Z" fill="white"/>
<path d="M94.5935 127.266L79.938 132.89C78.0741 133.607 76.0843 132.211 76.0943 130.205C76.1262 125.712 78.8692 121.487 83.3162 119.781C87.7652 118.074 92.6257 119.385 95.6543 122.701C97.0048 124.182 96.4614 126.553 94.5935 127.266Z" fill="white"/>
<path d="M286.515 134.99C285.349 135.755 284.226 136.239 283.149 136.44C282.905 136.486 282.664 136.518 282.426 136.536C281.056 136.636 279.885 137.485 279.238 138.698C279.234 138.704 279.23 138.712 279.228 138.718C278.862 139.395 278.409 139.91 277.869 140.264C276.649 141.063 275.158 141.305 273.402 140.987C271.644 140.67 270.364 139.896 269.56 138.67C268.184 136.568 267.727 134.125 268.19 131.338C268.654 128.551 269.902 126.492 271.938 125.157C272.399 124.855 272.901 124.777 273.44 124.929C273.979 125.079 274.413 125.405 274.739 125.904C275.186 126.585 274.966 127.452 274.081 128.501C272.901 129.892 272.19 131.064 271.95 132.017C271.586 133.408 271.918 134.886 272.945 136.454C273.16 136.784 273.518 137.004 274.015 137.118C274.579 137.235 275.108 137.116 275.6 136.762C276.527 136.089 276.81 134.588 276.449 132.261C276.159 130.211 276.301 128.999 276.872 128.623C277.334 128.319 277.825 128.252 278.341 128.415C278.858 128.579 279.284 128.919 279.617 129.428C279.767 129.656 279.953 130.02 280.181 130.521C280.406 131.022 280.594 131.386 280.744 131.614C281.227 132.353 281.841 132.617 282.584 132.405C282.877 132.325 283.427 132.023 284.23 131.496C285.738 130.509 286.545 129.436 286.651 128.278C286.755 127.235 286.29 125.924 285.255 124.346C283.431 121.563 280.86 120.001 277.537 119.661C274.501 119.346 271.606 120.089 268.855 121.891C265.653 123.988 263.963 126.881 263.783 130.571C263.601 133.871 264.616 137.209 266.828 140.584C268.867 143.696 271.548 145.69 274.873 146.563C278.335 147.478 281.639 146.905 284.785 144.843C285.642 144.281 286.499 143.486 287.356 142.46C287.424 142.378 287.49 142.292 287.552 142.206L289.622 139.335C289.987 138.836 290.241 138.54 290.385 138.446C290.837 138.15 291.348 138.078 291.919 138.232C292.491 138.386 292.938 138.706 293.258 139.195C293.965 140.274 293.366 141.916 291.462 144.122C290.017 145.782 288.525 147.116 286.985 148.127C285.433 149.144 283.643 149.873 281.615 150.319C279.585 150.762 277.655 150.846 275.823 150.57C270.418 149.761 266.286 147.174 263.427 142.813C260.571 138.45 259.348 134.041 259.761 129.582C260.183 124.825 262.452 121.098 266.568 118.403C270.288 115.965 274.229 115.032 278.391 115.602C282.774 116.221 286.192 118.399 288.639 122.136C290.313 124.692 290.996 127.055 290.685 129.222C290.347 131.464 288.959 133.39 286.515 134.99Z" fill="#E6F3FC"/>
<path d="M51.7116 266.551C50.3371 266.314 49.1884 265.9 48.2615 265.311C48.0517 265.177 47.8539 265.037 47.6681 264.887C46.5973 264.024 45.165 263.845 43.8624 264.288C43.8544 264.29 43.8484 264.292 43.8404 264.296C43.1093 264.542 42.428 264.608 41.7928 264.498C40.3544 264.248 39.1018 263.407 38.035 261.975C36.9682 260.542 36.5606 259.104 36.8124 257.657C37.2419 255.182 38.5784 253.085 40.8198 251.365C43.0613 249.645 45.3807 248.993 47.78 249.411C48.3234 249.505 48.7409 249.792 49.0326 250.27C49.3223 250.747 49.4182 251.281 49.3163 251.87C49.1764 252.673 48.4253 253.157 47.0608 253.318C45.2489 253.528 43.9283 253.898 43.1033 254.429C41.8886 255.196 41.1195 256.503 40.7999 258.351C40.7319 258.738 40.8418 259.144 41.1295 259.565C41.4611 260.037 41.9286 260.311 42.5279 260.386C43.6646 260.528 44.8973 259.627 46.2238 257.679C47.4124 255.983 48.3434 255.194 49.0186 255.312C49.564 255.406 49.9676 255.692 50.2333 256.165C50.499 256.639 50.5789 257.176 50.473 257.777C50.427 258.045 50.3152 258.439 50.1374 258.96C49.9596 259.481 49.8477 259.875 49.8017 260.143C49.6499 261.012 49.9176 261.625 50.6048 261.979C50.8745 262.122 51.4819 262.276 52.4268 262.44C54.2028 262.748 55.5253 262.516 56.3923 261.743C57.1794 261.054 57.7348 259.777 58.0585 257.917C58.6278 254.639 57.8147 251.742 55.6232 249.223C53.6195 246.918 50.9984 245.483 47.758 244.922C43.9863 244.267 40.7759 245.225 38.1249 247.797C35.7376 250.084 34.1993 253.214 33.5101 257.188C32.8728 260.854 33.4701 264.142 35.3021 267.051C37.2059 270.084 40.0108 271.921 43.7166 272.565C44.7255 272.741 45.8941 272.747 47.2226 272.581C47.3285 272.567 47.4344 272.551 47.5383 272.529L51.0124 271.846C51.6197 271.732 52.0073 271.688 52.1771 271.718C52.7085 271.81 53.132 272.107 53.4436 272.611C53.7573 273.112 53.8632 273.652 53.7633 274.227C53.5415 275.497 51.9833 276.289 49.0845 276.598C46.895 276.824 44.8933 276.78 43.0793 276.464C41.2514 276.147 39.4454 275.457 37.6594 274.397C35.8734 273.336 34.4071 272.077 33.2584 270.623C29.8622 266.34 28.6116 261.629 29.5046 256.491C30.3976 251.353 32.5172 247.297 35.8654 244.322C39.4234 241.136 43.6247 239.963 48.4732 240.806C52.8543 241.568 56.3704 243.577 59.0234 246.836C61.8022 250.282 62.8111 254.205 62.046 258.608C61.5226 261.619 60.4078 263.811 58.7017 265.181C56.9177 266.595 54.5884 267.051 51.7116 266.551Z" fill="#E6F3FC"/>
<path d="M426.298 238.234L420.986 241.576C418.493 243.13 415.216 242.385 413.658 239.91L410.316 234.6C408.758 232.123 409.503 228.848 411.978 227.29L417.294 223.93C419.769 222.372 423.045 223.117 424.622 225.596L427.96 230.924C429.518 233.399 428.773 236.674 426.298 238.234Z" fill="#43C64C"/>
<path d="M277.024 220.058L273.692 222.156C272.127 223.131 270.072 222.663 269.095 221.111L266.997 217.779C266.02 216.224 266.488 214.171 268.04 213.192L271.374 211.084C272.929 210.107 274.982 210.575 275.971 212.129L278.067 215.473C279.046 217.025 278.578 219.079 277.024 220.058Z" fill="#43C64C"/>
<path d="M375.351 163.995L373.24 165.323C372.249 165.94 370.946 165.645 370.325 164.66L368.995 162.548C368.375 161.563 368.671 160.261 369.656 159.642L371.77 158.305C372.754 157.686 374.057 157.981 374.684 158.968L376.013 161.088C376.632 162.073 376.336 163.375 375.351 163.995Z" fill="#43C64C"/>
<path d="M291.328 107.648L289.216 108.977C288.226 109.594 286.923 109.299 286.302 108.314L284.971 106.202C284.352 105.217 284.648 103.915 285.632 103.295L287.746 101.959C288.731 101.34 290.033 101.635 290.661 102.622L291.989 104.742C292.611 105.727 292.313 107.029 291.328 107.648Z" fill="#43C64C"/>
<path d="M199.232 111.512L197.12 112.841C196.129 113.458 194.827 113.162 194.205 112.178L192.875 110.066C192.256 109.081 192.551 107.778 193.536 107.159L195.65 105.823C196.635 105.203 197.937 105.499 198.565 106.486L199.893 108.606C200.512 109.59 200.217 110.893 199.232 111.512Z" fill="#43C64C"/>
</svg>
