<svg width="20" height="20" viewBox="0 0 20 20" fill="none" xmlns="http://www.w3.org/2000/svg">
<g clip-path="url(#clip0_1_7161)">
<path d="M5.13897 8.61112C7.05662 8.61112 8.61119 7.05655 8.61119 5.13889C8.61119 3.22124 7.05662 1.66667 5.13897 1.66667C3.22132 1.66667 1.66675 3.22124 1.66675 5.13889C1.66675 7.05655 3.22132 8.61112 5.13897 8.61112Z" fill="white" fill-opacity="0.2"/>
<path d="M14.8611 18.3333C16.7788 18.3333 18.3334 16.7788 18.3334 14.8611C18.3334 12.9435 16.7788 11.3889 14.8611 11.3889C12.9435 11.3889 11.3889 12.9435 11.3889 14.8611C11.3889 16.7788 12.9435 18.3333 14.8611 18.3333Z" fill="white" fill-opacity="0.2"/>
<path d="M5.13897 8.61112C7.05662 8.61112 8.61119 7.05655 8.61119 5.13889C8.61119 3.22124 7.05662 1.66667 5.13897 1.66667C3.22132 1.66667 1.66675 3.22124 1.66675 5.13889C1.66675 7.05655 3.22132 8.61112 5.13897 8.61112Z" stroke="white" stroke-width="1.4" stroke-linecap="round" stroke-linejoin="round"/>
<path d="M14.8611 18.3333C16.7788 18.3333 18.3334 16.7788 18.3334 14.8611C18.3334 12.9435 16.7788 11.3889 14.8611 11.3889C12.9435 11.3889 11.3889 12.9435 11.3889 14.8611C11.3889 16.7788 12.9435 18.3333 14.8611 18.3333Z" stroke="white" stroke-width="1.4" stroke-linecap="round" stroke-linejoin="round"/>
<path d="M1.66675 18.3333L18.3334 1.66667" stroke="white" stroke-width="1.4" stroke-linecap="round" stroke-linejoin="round"/>
<path d="M12.0835 1.66667H18.3335V7.91667" stroke="white" stroke-width="1.4" stroke-linecap="round" stroke-linejoin="round"/>
</g>
<defs>
<clipPath id="clip0_1_7161">
<rect width="20" height="20" fill="white"/>
</clipPath>
</defs>
</svg>
