<svg width="24" height="24" viewBox="0 0 24 24" fill="none" xmlns="http://www.w3.org/2000/svg">
<path d="M18.0693 3.41347L22.6278 11.1278C22.9456 11.6657 22.9456 12.334 22.6278 12.872L18.0693 20.5862C17.7609 21.1082 17.1997 21.4284 16.5934 21.4284H7.407C6.80074 21.4284 6.23956 21.1082 5.93114 20.5862L1.37269 12.872C1.05481 12.334 1.05481 11.6657 1.37269 11.1278L5.93114 3.41347C6.23956 2.89152 6.80074 2.57129 7.407 2.57129H16.5934C17.1997 2.57129 17.7609 2.89152 18.0693 3.41347Z" fill="#252F4A" fill-opacity="0.13"/>
<path d="M12.0003 15.4282C9.03493 15.4282 6.50919 17.3105 5.55273 19.9455L5.93123 20.586C6.23965 21.108 6.80084 21.4282 7.40709 21.4282H16.5935C17.1997 21.4282 17.761 21.108 18.0694 20.586L18.4479 19.9455C17.4913 17.3105 14.9657 15.4282 12.0003 15.4282Z" stroke="#252F4A" stroke-width="1.5" stroke-linecap="round" stroke-linejoin="round"/>
<path d="M11.9999 12.8571C13.8934 12.8571 15.4284 11.3221 15.4284 9.42857C15.4284 7.53502 13.8934 6 11.9999 6C10.1063 6 8.57129 7.53502 8.57129 9.42857C8.57129 11.3221 10.1063 12.8571 11.9999 12.8571Z" stroke="#252F4A" stroke-width="1.5" stroke-linecap="round" stroke-linejoin="round"/>
<path d="M18.0693 3.41347L22.6278 11.1278C22.9456 11.6657 22.9456 12.334 22.6278 12.872L18.0693 20.5862C17.7609 21.1082 17.1997 21.4284 16.5934 21.4284H7.407C6.80074 21.4284 6.23956 21.1082 5.93114 20.5862L1.37269 12.872C1.05481 12.334 1.05481 11.6657 1.37269 11.1278L5.93114 3.41347C6.23956 2.89152 6.80074 2.57129 7.407 2.57129H16.5934C17.1997 2.57129 17.7609 2.89152 18.0693 3.41347Z" stroke="#252F4A" stroke-width="1.5" stroke-linecap="round" stroke-linejoin="round"/>
</svg>
