<svg width="458" height="458" viewBox="0 0 458 458" fill="none" xmlns="http://www.w3.org/2000/svg">
<path d="M411.537 380.32H83.4786C83.1122 380.32 82.8154 380.023 82.8154 379.656C82.8154 379.29 83.1122 378.993 83.4786 378.993H411.537C411.903 378.993 412.2 379.29 412.2 379.656C412.2 380.023 411.903 380.32 411.537 380.32Z" fill="#1E2129"/>
<path d="M228.186 226.087L197.951 256.322L129.357 226.087L116.27 264.445L178.499 302.247C185.118 306.268 192.869 308.023 200.575 307.246C210.149 306.281 218.926 301.485 224.909 293.948L259.636 250.205L228.186 226.087Z" fill="white"/>
<path d="M197.052 308.087C190.427 308.087 183.83 306.263 178.155 302.815L115.925 265.013C115.66 264.852 115.542 264.528 115.641 264.233L128.729 225.874C128.79 225.699 128.92 225.556 129.09 225.482C129.26 225.409 129.455 225.409 129.623 225.482L197.801 255.535L227.718 225.62C227.952 225.385 228.326 225.36 228.59 225.563L260.039 249.681C260.181 249.789 260.272 249.951 260.294 250.126C260.316 250.302 260.267 250.48 260.155 250.619L225.428 294.362C219.369 301.992 210.335 306.929 200.641 307.908C199.448 308.027 198.248 308.087 197.052 308.087ZM117.068 264.156L178.842 301.681C185.298 305.603 192.99 307.342 200.507 306.587C209.846 305.645 218.55 300.888 224.389 293.536L258.697 250.323L228.243 226.966L198.418 256.791C198.224 256.985 197.933 257.039 197.682 256.929L129.749 226.985L117.068 264.156Z" fill="#1E2129"/>
<path d="M273.605 209.907C273.605 209.907 310.086 216.381 321.598 221.123C334.233 226.325 355.95 236.059 355.95 236.059C363.419 241.038 366.706 250.35 364.016 258.917L325.207 379.519H206.07L251.055 224.237C253.891 214.465 263.553 208.322 273.605 209.907Z" fill="#FF5733"/>
<path d="M356.859 142.335C356.859 142.335 366.248 125.168 382.527 128.526C398.807 131.884 399.228 163.759 371.783 163.577C344.338 163.396 356.859 142.335 356.859 142.335Z" fill="#1E2129"/>
<path d="M325.415 133.789C325.415 133.789 294.76 144.627 288.549 159.353C282.339 174.078 297.425 178.523 295.122 182.812C292.82 187.1 283.938 189.834 286.536 199.944C289.134 210.055 316.368 215.385 332.332 216.682C348.296 217.979 325.415 133.789 325.415 133.789Z" fill="#1E2129"/>
<path d="M347.774 189.215L335.791 220.309C334.527 223.59 336.154 227.274 339.427 228.551C339.427 228.551 322.419 250.568 303.115 243.876C285.394 237.733 293.719 213.829 293.719 213.829C298.381 214.846 303.104 212.388 304.944 207.983L312.819 189.13L347.774 189.215Z" fill="white"/>
<path d="M310.526 245.792C308.043 245.792 305.491 245.402 302.899 244.504C298.389 242.94 295.119 240.116 293.178 236.114C288.622 226.706 292.909 214.142 293.094 213.611C293.204 213.296 293.534 213.111 293.862 213.182C298.213 214.128 302.617 211.838 304.333 207.729L312.209 188.875C312.312 188.628 312.554 188.469 312.821 188.469H312.823L347.774 188.553C347.992 188.553 348.195 188.661 348.32 188.841C348.443 189.02 348.47 189.249 348.391 189.453L336.408 220.547C335.278 223.478 336.74 226.792 339.667 227.934C339.861 228.009 340.01 228.172 340.065 228.375C340.122 228.577 340.078 228.793 339.951 228.958C339.803 229.15 326.73 245.792 310.526 245.792ZM294.173 214.589C293.682 216.198 292.323 221.164 292.437 226.569C292.616 235.194 296.284 240.807 303.333 243.251C320.103 249.066 335.375 232.338 338.374 228.791C335.32 227.126 333.889 223.399 335.173 220.071L346.81 189.876L313.264 189.795L305.559 208.24C303.672 212.752 298.951 215.355 294.173 214.589Z" fill="#1E2129"/>
<path d="M346.841 189.088C361.805 176.262 355.673 158.699 355.673 158.699C343.338 145.587 331.097 130.678 317.743 137.42C316.934 137.942 298.934 148.758 296.893 173.582C294.233 205.946 308.664 208.562 330.338 203.33" fill="white"/>
<path d="M315.824 206.098C310.904 206.098 306.276 205.076 302.808 202.108C297.197 197.306 295.046 187.958 296.233 173.531C298.16 150.092 314.133 138.913 317.316 136.909C317.336 136.896 317.424 136.841 317.446 136.83C330.222 130.385 341.967 143.006 353.327 155.214C354.271 156.229 355.214 157.242 356.158 158.246C356.222 158.314 356.269 158.395 356.301 158.483C356.363 158.662 362.407 176.623 347.274 189.594C346.996 189.832 346.578 189.801 346.34 189.522C346.102 189.244 346.135 188.826 346.411 188.588C360.183 176.783 355.59 160.648 355.09 159.049C354.177 158.078 353.267 157.1 352.356 156.119C340.824 143.724 329.931 132.018 318.043 138.016L318.023 138.032C314.934 139.976 299.43 150.829 297.556 173.641C296.407 187.613 298.408 196.596 303.673 201.102C308.707 205.413 316.883 205.904 330.185 202.691C330.543 202.612 330.9 202.824 330.986 203.18C331.072 203.535 330.852 203.894 330.497 203.98C325.882 205.091 320.708 206.098 315.824 206.098Z" fill="#1E2129"/>
<path d="M307.411 167.956C307.718 166.474 307.161 165.106 306.168 164.9C305.174 164.694 304.119 165.728 303.812 167.21C303.505 168.693 304.061 170.061 305.055 170.267C306.049 170.473 307.103 169.439 307.411 167.956Z" fill="#1E2129"/>
<path d="M303.962 162.169C305.765 161.423 307.925 161.934 309.443 163.464L303.962 162.169Z" fill="white"/>
<path d="M309.441 164.125C309.271 164.125 309.101 164.059 308.971 163.929C307.641 162.587 305.772 162.136 304.215 162.781C303.876 162.918 303.489 162.759 303.348 162.422C303.209 162.083 303.368 161.696 303.707 161.557C305.765 160.707 308.201 161.273 309.912 162.997C310.171 163.257 310.169 163.677 309.909 163.935C309.778 164.061 309.61 164.125 309.441 164.125Z" fill="#1E2129"/>
<path d="M323.787 173.393C324.283 171.963 323.907 170.534 322.948 170.201C321.989 169.869 320.81 170.759 320.315 172.189C319.819 173.619 320.194 175.048 321.153 175.381C322.112 175.713 323.291 174.823 323.787 173.393Z" fill="#1E2129"/>
<path d="M320.223 167.425C322.003 166.624 324.176 167.069 325.741 168.552L320.223 167.425Z" fill="white"/>
<path d="M325.741 169.215C325.576 169.215 325.413 169.154 325.285 169.033C323.914 167.733 322.033 167.339 320.496 168.029C320.162 168.182 319.77 168.033 319.62 167.698C319.47 167.364 319.618 166.971 319.954 166.822C321.985 165.908 324.436 166.399 326.199 168.073C326.464 168.326 326.475 168.746 326.223 169.011C326.091 169.147 325.917 169.215 325.741 169.215Z" fill="#1E2129"/>
<path d="M348.045 171.55C348.045 171.55 321.786 166.298 313.952 146.741C311.186 139.837 315.987 132.256 323.401 131.651C329.159 131.182 329.026 132.67 340.919 134.298C371.25 138.453 373.607 167.317 364.147 178.888C354.686 190.458 362.15 190.865 365.517 194.119C369.641 198.102 376.887 207.577 370.995 216.693C358.585 235.894 335.595 219.924 335.595 219.924L347.056 188.505L348.045 171.55Z" fill="#1E2129"/>
<path d="M343.755 173.89C343.755 173.89 353.778 167.43 358.043 170.061C362.308 172.692 357.05 188.584 351.239 188.927C345.428 189.268 341.483 186.144 341.483 186.144" fill="white"/>
<path d="M350.341 189.614C344.865 189.614 341.231 186.789 341.071 186.661C340.785 186.434 340.736 186.018 340.963 185.73C341.19 185.444 341.606 185.395 341.894 185.62C341.93 185.65 345.728 188.584 351.199 188.262C354.143 188.09 357.16 183.004 358.374 178.188C359.322 174.432 359.054 171.463 357.695 170.624C354.492 168.645 346.805 172.712 344.114 174.445C343.806 174.641 343.396 174.555 343.198 174.247C343 173.939 343.088 173.529 343.396 173.331C343.819 173.058 353.822 166.677 358.391 169.495C360.311 170.68 360.785 174.051 359.661 178.512C358.314 183.849 355.004 189.367 351.277 189.587C350.96 189.607 350.649 189.614 350.341 189.614Z" fill="#1E2129"/>
<path d="M349.421 177.323C349.877 176.797 350.441 176.366 351.07 176.068C351.464 175.881 351.892 175.744 352.328 175.755C352.764 175.766 353.209 175.943 353.475 176.289C353.851 176.779 353.792 177.471 353.649 178.07C353.387 179.166 352.898 180.206 352.224 181.108" fill="white"/>
<path d="M352.224 181.771C352.085 181.771 351.946 181.727 351.827 181.639C351.534 181.419 351.473 181.004 351.693 180.712C352.312 179.886 352.765 178.921 353.005 177.917C353.144 177.334 353.126 176.924 352.95 176.693C352.825 176.53 352.58 176.424 352.31 176.418C352.028 176.383 351.722 176.493 351.354 176.667C350.81 176.926 350.315 177.303 349.922 177.757C349.682 178.036 349.262 178.063 348.987 177.825C348.711 177.585 348.679 177.167 348.919 176.891C349.432 176.297 350.077 175.806 350.786 175.471C351.347 175.204 351.856 175.086 352.345 175.094C353.016 175.112 353.635 175.409 354.001 175.887C354.439 176.457 354.535 177.222 354.295 178.226C354.012 179.402 353.481 180.538 352.754 181.507C352.624 181.68 352.426 181.771 352.224 181.771Z" fill="#1E2129"/>
<path d="M312.411 171.876C311.451 173.84 310.491 175.804 309.531 177.768C308.952 178.953 308.362 180.186 308.45 181.465C308.538 182.744 309.509 184.081 311.03 184.341" fill="white"/>
<path d="M311.029 185.002C310.993 185.002 310.954 185.001 310.918 184.993C308.998 184.665 307.889 182.993 307.789 181.509C307.688 180.03 308.351 178.673 308.935 177.478L311.815 171.587C311.977 171.259 312.372 171.123 312.702 171.283C313.03 171.444 313.167 171.84 313.006 172.169L310.126 178.061C309.615 179.107 309.034 180.294 309.111 181.421C309.175 182.363 309.908 183.478 311.141 183.689C311.502 183.749 311.744 184.092 311.683 184.453C311.627 184.775 311.346 185.002 311.029 185.002Z" fill="#1E2129"/>
<path d="M323.482 186.967C322.841 188.762 321.468 190.285 319.748 191.107C318.028 191.93 315.982 192.043 314.183 191.417" fill="white"/>
<path d="M316.584 192.483C315.698 192.483 314.809 192.336 313.965 192.043C313.618 191.924 313.437 191.545 313.556 191.198C313.677 190.852 314.053 190.669 314.401 190.792C316.046 191.363 317.891 191.262 319.462 190.51C321.034 189.757 322.271 188.384 322.857 186.745C322.98 186.4 323.359 186.219 323.703 186.344C324.048 186.466 324.227 186.846 324.105 187.19C323.403 189.158 321.919 190.803 320.034 191.706C318.957 192.222 317.77 192.483 316.584 192.483Z" fill="#1E2129"/>
<path d="M386.96 223.528C386.849 223.528 386.735 223.508 386.627 223.462C386.174 223.277 385.958 222.76 386.143 222.31C387.915 217.971 388.146 213.111 386.794 208.623C385.442 204.136 382.565 200.212 378.691 197.574C378.218 197.252 377.725 196.944 377.232 196.634C375.294 195.416 373.29 194.157 372.194 192.025C370.743 189.202 371.319 185.419 373.772 181.645C374.369 180.725 375.03 179.837 375.672 178.975C377.047 177.127 378.348 175.381 379.07 173.346C380.017 170.68 379.827 167.58 378.561 165.049C377.295 162.519 374.926 160.507 372.226 159.668C371.76 159.523 371.498 159.027 371.645 158.562C371.79 158.096 372.286 157.838 372.751 157.979C375.902 158.959 378.665 161.306 380.143 164.257C381.62 167.209 381.844 170.827 380.737 173.936C379.925 176.222 378.484 178.158 377.09 180.029C376.467 180.866 375.822 181.733 375.254 182.605C374.261 184.131 372.13 188.027 373.766 191.213C374.64 192.915 376.357 193.992 378.172 195.134C378.685 195.454 379.194 195.775 379.685 196.11C383.892 198.975 387.017 203.237 388.485 208.11C389.952 212.983 389.701 218.263 387.777 222.975C387.638 223.321 387.308 223.528 386.96 223.528Z" fill="#1E2129"/>
<path d="M206.075 380.184C206.014 380.184 205.952 380.175 205.89 380.158C205.538 380.056 205.336 379.689 205.437 379.338L250.422 224.055C250.524 223.704 250.891 223.504 251.243 223.603C251.594 223.706 251.796 224.072 251.695 224.424L206.71 379.706C206.626 379.995 206.362 380.184 206.075 380.184Z" fill="#1E2129"/>
<path d="M280.393 211.286L258.847 206.214C248.778 203.843 238.202 206.904 230.956 214.289L211.64 234.375L250.975 270.702L277.374 238.063L280.393 211.286Z" fill="#FF5733"/>
<path d="M250.975 271.365C250.808 271.365 250.649 271.303 250.526 271.189L211.189 234.862C211.059 234.742 210.982 234.573 210.977 234.395C210.971 234.216 211.039 234.044 211.162 233.917L230.479 213.831C230.733 213.565 231.153 213.56 231.415 213.813C231.678 214.067 231.688 214.487 231.433 214.751L212.585 234.35L250.903 269.736L268.835 247.567C269.064 247.282 269.482 247.238 269.768 247.468C270.052 247.699 270.096 248.115 269.867 248.401L251.49 271.12C251.374 271.263 251.206 271.35 251.023 271.363C251.008 271.365 250.991 271.365 250.975 271.365Z" fill="#1E2129"/>
<path d="M129.933 379.521L86.3114 178.921C84.6993 171.094 86.2308 163.114 90.624 156.444C95.0153 149.773 101.742 145.215 109.563 143.605L218.587 121.403C220.579 120.993 222.614 120.786 224.635 120.786C238.741 120.786 251.049 130.825 253.895 144.655L305.191 379.656L129.933 379.521Z" fill="white"/>
<path d="M305.189 380.32L129.932 380.186C129.621 380.186 129.352 379.968 129.286 379.664L85.6639 179.062C84.0151 171.058 85.5796 162.898 90.0698 156.079C94.5582 149.262 101.434 144.602 109.429 142.955L218.455 120.753C220.49 120.335 222.569 120.123 224.636 120.123C239.055 120.123 251.636 130.384 254.547 144.521L305.841 379.514C305.883 379.71 305.835 379.915 305.709 380.071C305.579 380.228 305.388 380.32 305.189 380.32ZM130.467 378.86L304.366 378.993L253.246 144.796C250.46 131.263 238.427 121.447 224.632 121.447C222.655 121.447 220.666 121.65 218.718 122.052L109.692 144.254C102.046 145.827 95.4687 150.286 91.1745 156.807C86.8803 163.328 85.3817 171.135 86.9591 178.785L130.467 378.86Z" fill="#1E2129"/>
<path d="M386.358 294.593L378.688 366.706C377.689 376.126 372.059 384.425 363.682 388.844C359.519 391.044 354.969 392.123 350.425 392.123C344.796 392.123 339.184 390.452 334.368 387.157L278.666 349.033L271.199 344.455L271.437 344.79C272.232 345.816 272.25 347.247 271.49 348.316C270.704 349.421 269.306 349.809 268.104 349.403C267.733 349.262 267.379 349.077 267.078 348.784L254.848 337.702C252.886 335.925 251.906 333.248 252.47 330.667C252.833 329.014 253.743 327.521 255.828 327.256C255.828 327.256 255.121 321.053 259.796 320.221C259.796 320.221 259.761 313.417 266.124 313.637L251.472 300.584C251.206 300.265 250.977 299.92 250.809 299.558C250.198 298.259 250.226 296.713 250.931 295.421C252.23 293.027 255.297 292.276 257.541 293.794C262.632 297.249 290.382 315.234 297.389 319.776C297.415 319.794 297.433 319.801 297.451 319.82L333.809 342.734L342.355 286.554L386.358 294.593Z" fill="white"/>
<path d="M350.425 392.786C344.533 392.786 338.85 391.029 333.994 387.704L278.292 349.58L272.691 346.147C272.796 347.019 272.578 347.93 272.03 348.699C271.107 349.996 269.406 350.538 267.893 350.031C267.347 349.822 266.95 349.58 266.618 349.26L254.404 338.193C252.211 336.207 251.224 333.27 251.825 330.526C252.277 328.459 253.413 327.155 255.126 326.717C255.029 324.359 255.764 320.624 259.164 319.688C259.253 318.636 259.64 316.28 261.324 314.646C262.181 313.812 263.245 313.288 264.5 313.078L251.035 301.08C251.011 301.058 250.988 301.036 250.967 301.01C250.65 300.631 250.396 300.235 250.213 299.84C249.505 298.334 249.559 296.562 250.357 295.108C251.064 293.803 252.297 292.851 253.739 292.499C255.174 292.147 256.698 292.422 257.922 293.25C261.263 295.518 274.593 304.209 297.542 319.085L297.758 319.226C297.775 319.237 297.799 319.253 297.826 319.274L333.314 341.64L341.708 286.462C341.736 286.285 341.833 286.125 341.979 286.023C342.126 285.918 342.307 285.878 342.483 285.909L386.484 293.943C386.825 294.005 387.061 294.32 387.025 294.664L379.354 366.779C378.332 376.434 372.59 384.901 363.998 389.434C359.839 391.627 355.148 392.786 350.425 392.786ZM271.198 343.791C271.317 343.791 271.436 343.822 271.544 343.888L279.012 348.466L334.743 386.609C339.38 389.782 344.802 391.46 350.427 391.46C354.935 391.46 359.411 390.353 363.373 388.258C371.575 383.932 377.053 375.849 378.029 366.636L385.636 295.133L342.912 287.333L334.468 342.839C334.435 343.06 334.292 343.249 334.089 343.341C333.885 343.434 333.649 343.417 333.46 343.298L297.103 320.384C297.081 320.369 297.059 320.354 297.038 320.338L296.819 320.195C273.86 305.316 260.523 296.619 257.174 294.346C256.247 293.719 255.139 293.519 254.051 293.785C252.973 294.049 252.05 294.76 251.519 295.74C250.922 296.83 250.883 298.151 251.413 299.277C251.543 299.561 251.726 299.843 251.953 300.122L266.567 313.142C266.776 313.327 266.845 313.624 266.741 313.884C266.636 314.144 266.387 314.316 266.103 314.3C264.491 314.248 263.194 314.677 262.251 315.589C260.477 317.306 260.461 320.19 260.461 320.217C260.461 320.539 260.23 320.816 259.915 320.873C255.914 321.584 256.463 326.953 256.489 327.18C256.529 327.54 256.273 327.867 255.914 327.911C254.419 328.102 253.505 329.049 253.12 330.808C252.62 333.089 253.453 335.542 255.295 337.209L267.525 348.291C267.739 348.498 267.992 348.648 268.342 348.782C269.282 349.097 270.365 348.752 270.951 347.93C271.548 347.091 271.533 345.991 270.914 345.195L270.66 344.835C270.476 344.579 270.5 344.229 270.714 344C270.843 343.864 271.019 343.791 271.198 343.791Z" fill="#1E2129"/>
<path d="M343.924 351.94C343.773 351.94 343.621 351.889 343.497 351.784L333.388 343.245C333.108 343.009 333.073 342.589 333.309 342.311C333.545 342.033 333.963 341.996 334.243 342.232L344.352 350.771C344.633 351.008 344.667 351.427 344.431 351.706C344.299 351.859 344.112 351.94 343.924 351.94Z" fill="#1E2129"/>
<path d="M271.193 345.123C271.036 345.123 270.878 345.068 270.752 344.954L265.596 340.358C265.323 340.114 265.3 339.697 265.543 339.422C265.787 339.149 266.206 339.123 266.479 339.369L271.635 343.965C271.908 344.209 271.931 344.627 271.688 344.901C271.558 345.048 271.376 345.123 271.193 345.123Z" fill="#1E2129"/>
<path d="M268.866 328.058C268.721 328.058 268.576 328.012 268.456 327.915L259.385 320.741C259.098 320.514 259.05 320.098 259.277 319.81C259.504 319.523 259.92 319.473 260.208 319.702L269.278 326.876C269.566 327.104 269.613 327.519 269.386 327.807C269.256 327.972 269.062 328.058 268.866 328.058Z" fill="#1E2129"/>
<path d="M264.006 333.827C263.872 333.827 263.737 333.787 263.619 333.702L255.438 327.801C255.141 327.587 255.073 327.173 255.287 326.876C255.502 326.579 255.916 326.513 256.212 326.726L264.394 332.627C264.691 332.841 264.759 333.255 264.544 333.552C264.414 333.732 264.211 333.827 264.006 333.827Z" fill="#1E2129"/>
<path d="M274.498 320.25C274.366 320.25 274.23 320.21 274.115 320.128L265.741 314.172C265.442 313.959 265.372 313.545 265.585 313.247C265.797 312.948 266.212 312.878 266.51 313.091L274.884 319.047C275.183 319.259 275.252 319.673 275.04 319.972C274.91 320.153 274.706 320.25 274.498 320.25Z" fill="#1E2129"/>
<path d="M346.937 232.327L366.411 240.646C378.322 245.736 387.261 256.238 389.752 268.951C390.219 271.338 390.463 273.76 390.463 276.172V306.259L334.723 300.221L346.937 232.327Z" fill="#FF5733"/>
<path d="M390.465 306.922C390.441 306.922 390.417 306.922 390.393 306.918L334.653 300.882C334.47 300.862 334.303 300.767 334.193 300.62C334.083 300.473 334.039 300.287 334.072 300.105L340.587 263.894C340.651 263.535 340.997 263.297 341.356 263.359C341.717 263.423 341.955 263.769 341.891 264.128L335.503 299.64L389.804 305.521V276.174C389.804 275.807 390.1 275.511 390.467 275.511C390.833 275.511 391.13 275.807 391.13 276.174V306.261C391.13 306.449 391.049 306.629 390.91 306.754C390.785 306.862 390.628 306.922 390.465 306.922Z" fill="#1E2129"/>
<path d="M142.247 156.198C144.652 156.198 146.602 154.248 146.602 151.843C146.602 149.438 144.652 147.489 142.247 147.489C139.842 147.489 137.893 149.438 137.893 151.843C137.893 154.248 139.842 156.198 142.247 156.198Z" fill="#1E2129"/>
<path d="M182.526 143.795C182.586 145.481 181.425 147.009 179.719 147.362L153.558 152.785C151.653 153.183 149.793 151.959 149.396 150.054C149.352 149.854 149.33 149.652 149.323 149.458C149.262 147.773 150.424 146.236 152.129 145.891L178.29 140.468C180.195 140.071 182.062 141.295 182.452 143.2C182.496 143.402 182.518 143.603 182.526 143.795Z" fill="#1E2129"/>
<path d="M231.746 215.047C231.746 230.729 224.18 244.64 212.492 253.327C212.463 253.351 212.435 253.369 212.406 253.393C204.486 259.259 194.68 262.727 184.065 262.727C170.653 262.727 158.529 257.191 149.869 248.272C141.519 239.69 136.38 227.972 136.38 215.045C136.38 188.707 157.726 167.36 184.065 167.36C210.4 167.362 231.746 188.709 231.746 215.047Z" fill="white"/>
<path d="M166.42 194.421C166.42 194.421 163.129 185.827 155.331 186.364C147.532 186.901 145.321 201.729 158.124 203.38C170.928 205.03 166.42 194.421 166.42 194.421Z" fill="#1E2129"/>
<path d="M181.614 192.426C181.614 192.426 195.216 199.415 197.18 206.67C199.144 213.924 191.832 215.044 192.635 217.187C193.437 219.332 197.404 221.166 195.553 225.715C193.703 230.262 180.992 233.858 173.47 233.453C165.948 233.049 181.614 192.426 181.614 192.426Z" fill="#1E2129"/>
<path d="M212.492 253.327C212.463 253.351 212.436 253.369 212.406 253.393C204.487 259.259 194.68 262.727 184.065 262.727C170.653 262.727 158.529 257.191 149.869 248.273C150.862 243.563 154.306 239.583 159.102 238.242C159.308 238.186 159.513 238.133 159.723 238.085C159.723 238.085 160.02 238.004 160.55 237.865C161.079 237.726 161.834 237.53 162.752 237.292C163.988 236.971 165.513 236.579 167.156 236.174C168.713 235.782 170.38 235.381 172 235.003C175.096 234.282 178.029 233.657 179.795 233.437C181.414 233.232 184.485 232.964 187.643 232.706C192.645 232.299 197.86 231.933 197.86 231.933C199.126 231.904 200.372 232.043 201.572 232.34C201.792 232.393 202.006 232.455 202.217 232.516C206.736 233.858 209.994 237.808 210.743 242.462L212.492 253.327Z" fill="#43C64C"/>
<path d="M167.69 216.845L172.001 235.004L167.157 236.174C167.157 236.174 175.63 247.042 185.05 245.144C193.697 243.401 192.078 232.417 192.078 232.417L187.644 232.708L183.988 219.016L167.69 216.845Z" fill="white"/>
<path d="M182.774 245.811C174.216 245.811 167.132 236.859 166.81 236.445C166.718 236.326 166.691 236.171 166.74 236.028C166.79 235.887 166.909 235.779 167.053 235.744L171.47 234.677L167.262 216.947C167.229 216.806 167.268 216.658 167.365 216.55C167.462 216.442 167.608 216.387 167.751 216.407L184.045 218.576C184.223 218.6 184.368 218.728 184.413 218.9L187.977 232.243L192.049 231.975C192.278 231.961 192.482 232.124 192.515 232.351C192.531 232.464 194.092 243.77 185.137 245.574C184.34 245.735 183.551 245.811 182.774 245.811ZM167.953 236.434C169.801 238.569 177.117 246.294 184.963 244.708C192.28 243.233 191.886 234.859 191.688 232.884L187.673 233.148C187.462 233.157 187.271 233.025 187.216 232.82L183.635 219.411L168.27 217.367L172.432 234.899C172.489 235.135 172.342 235.374 172.106 235.43L167.953 236.434Z" fill="#1E2129"/>
<path d="M168.132 216.844C161.97 209.921 165.936 202.124 165.936 202.124C172.513 196.793 179.161 190.618 184.958 194.604C185.302 194.899 192.579 201.062 192.39 212.776C192.196 224.801 184.694 228.335 174.924 224.526" fill="white"/>
<path d="M181.862 226.439C179.716 226.439 177.333 225.938 174.764 224.938C174.537 224.848 174.426 224.594 174.513 224.367C174.601 224.141 174.858 224.028 175.085 224.116C180.09 226.067 184.318 226.036 187.312 224.026C190.259 222.045 191.864 218.154 191.95 212.77C192.13 201.63 185.441 195.597 184.677 194.947C179.63 191.477 173.85 196.216 167.731 201.23C167.251 201.624 166.771 202.018 166.291 202.408C165.876 203.282 162.842 210.238 168.464 216.555C168.627 216.736 168.611 217.017 168.428 217.178C168.244 217.341 167.966 217.324 167.803 217.141C161.512 210.073 165.502 202.007 165.544 201.926C165.571 201.871 165.612 201.822 165.659 201.784C166.163 201.375 166.667 200.963 167.171 200.549C173.273 195.547 179.583 190.378 185.209 194.243C186.046 194.954 193.018 201.241 192.832 212.785C192.74 218.471 191 222.612 187.803 224.76C186.136 225.878 184.133 226.439 181.862 226.439Z" fill="#1E2129"/>
<path d="M188.787 210.733C189.263 210.7 189.61 210.098 189.561 209.389C189.511 208.679 189.085 208.131 188.609 208.164C188.132 208.197 187.786 208.799 187.835 209.508C187.885 210.218 188.311 210.766 188.787 210.733Z" fill="#1E2129"/>
<path d="M189.82 207.009C189.027 206.547 187.988 206.648 187.184 207.265L189.82 207.009Z" fill="white"/>
<path d="M187.183 207.706C187.051 207.706 186.92 207.646 186.833 207.534C186.685 207.34 186.722 207.063 186.914 206.915C187.861 206.186 189.09 206.074 190.041 206.626C190.252 206.748 190.323 207.019 190.201 207.23C190.078 207.441 189.807 207.512 189.596 207.39C188.957 207.016 188.114 207.106 187.451 207.615C187.372 207.677 187.277 207.706 187.183 207.706Z" fill="#1E2129"/>
<path d="M180.965 212.092C181.433 211.997 181.699 211.356 181.558 210.658C181.418 209.961 180.924 209.472 180.456 209.567C179.988 209.661 179.722 210.303 179.863 211C180.003 211.697 180.497 212.186 180.965 212.092Z" fill="#1E2129"/>
<path d="M181.907 208.43C181.129 207.945 180.086 208.014 179.266 208.606L181.907 208.43Z" fill="white"/>
<path d="M179.266 209.047C179.128 209.047 178.993 208.983 178.907 208.864C178.764 208.666 178.809 208.39 179.007 208.249C179.978 207.547 181.209 207.472 182.142 208.056C182.349 208.185 182.411 208.458 182.283 208.665C182.153 208.873 181.882 208.936 181.675 208.806C181.048 208.415 180.204 208.478 179.524 208.965C179.445 209.022 179.355 209.047 179.266 209.047Z" fill="#1E2129"/>
<path d="M168.68 208.595C168.68 208.595 181.249 207.805 186.137 199.188C187.863 196.145 186.104 192.308 182.687 191.557C180.033 190.975 180.002 191.676 174.355 191.684C159.958 191.704 157.036 205.006 160.712 210.997C164.389 216.987 159.699 219.499 158.219 221.129C156.739 222.76 153.692 226.955 154.637 231.973C155.583 236.991 171.424 231.927 171.424 231.927L168.068 216.56L168.68 208.595Z" fill="#1E2129"/>
<path d="M170.532 209.956C170.532 209.956 166.269 206.313 164.115 207.269C161.962 208.225 163.408 215.965 166.093 216.491C168.781 217.017 170.816 215.81 170.816 215.81" fill="white"/>
<path d="M167.473 217.066C167.013 217.066 166.524 217.024 166.011 216.924C164.227 216.574 162.994 213.74 162.699 211.12C162.45 208.91 162.913 207.318 163.937 206.864C166.279 205.831 170.362 209.229 170.82 209.619C171.005 209.777 171.027 210.057 170.87 210.242C170.71 210.427 170.432 210.451 170.247 210.29C169.118 209.326 165.852 206.979 164.296 207.67C163.672 207.947 163.384 209.293 163.578 211.019C163.866 213.571 165.033 215.83 166.182 216.055C168.673 216.543 170.575 215.44 170.593 215.429C170.802 215.302 171.075 215.374 171.198 215.583C171.322 215.791 171.253 216.063 171.042 216.187C170.97 216.233 169.536 217.066 167.473 217.066Z" fill="#1E2129"/>
<path d="M167.674 211.198C167.494 210.923 167.258 210.687 166.985 210.509C166.813 210.398 166.622 210.306 166.419 210.284C166.215 210.262 165.996 210.315 165.851 210.46C165.644 210.665 165.627 210.989 165.657 211.279C165.71 211.806 165.871 212.321 166.129 212.785" fill="white"/>
<path d="M166.13 213.226C165.974 213.226 165.824 213.144 165.743 212.999C165.457 212.488 165.276 211.907 165.217 211.323C165.164 210.797 165.27 210.413 165.54 210.145C165.769 209.918 166.115 209.806 166.467 209.843C166.716 209.87 166.965 209.967 167.227 210.138C167.551 210.348 167.833 210.632 168.044 210.957C168.178 211.162 168.119 211.435 167.916 211.569C167.711 211.702 167.438 211.644 167.304 211.44C167.159 211.217 166.965 211.024 166.743 210.88C166.601 210.786 166.478 210.735 166.37 210.724C166.285 210.717 166.201 210.735 166.161 210.775C166.13 210.806 166.062 210.911 166.095 211.237C166.143 211.702 166.287 212.162 166.514 212.571C166.633 212.783 166.557 213.052 166.344 213.172C166.276 213.208 166.203 213.226 166.13 213.226Z" fill="#1E2129"/>
<path d="M185.267 210.999C185.591 211.975 185.914 212.951 186.238 213.926C186.432 214.514 186.63 215.126 186.509 215.718C186.388 216.308 185.851 216.87 185.126 216.896" fill="white"/>
<path d="M185.124 217.337C184.888 217.337 184.692 217.149 184.683 216.91C184.674 216.667 184.866 216.462 185.11 216.452C185.63 216.434 185.996 216.015 186.077 215.628C186.178 215.143 185.987 214.569 185.821 214.065L184.851 211.138C184.775 210.907 184.901 210.656 185.132 210.579C185.364 210.504 185.614 210.628 185.691 210.859L186.66 213.787C186.852 214.368 187.09 215.088 186.944 215.806C186.792 216.54 186.125 217.302 185.143 217.337C185.134 217.337 185.13 217.337 185.124 217.337Z" fill="#1E2129"/>
<path d="M179.153 217.332C179.338 218.21 179.882 219.005 180.632 219.497C181.381 219.99 182.328 220.172 183.206 219.994" fill="white"/>
<path d="M182.53 220.503C181.775 220.503 181.024 220.283 180.39 219.867C179.54 219.308 178.932 218.418 178.723 217.423C178.674 217.185 178.826 216.949 179.064 216.899C179.304 216.854 179.538 217.002 179.588 217.24C179.749 218.01 180.22 218.697 180.876 219.127C181.532 219.558 182.349 219.717 183.12 219.559C183.36 219.512 183.593 219.664 183.64 219.904C183.688 220.142 183.534 220.377 183.296 220.426C183.043 220.477 182.787 220.503 182.53 220.503Z" fill="#1E2129"/>
<path d="M147.315 230.61C147.02 230.61 146.751 230.412 146.674 230.114C146.06 227.741 146.282 225.206 147.299 222.978C148.316 220.748 150.082 218.916 152.273 217.823C152.526 217.696 152.786 217.579 153.048 217.46C153.934 217.057 154.773 216.678 155.25 215.994C156.14 214.719 155.427 212.871 155.079 212.134C154.871 211.693 154.632 211.264 154.394 210.834C153.854 209.857 153.295 208.848 153.053 207.695C152.716 206.089 153.053 204.389 153.98 203.031C154.905 201.675 156.365 200.741 157.985 200.468C158.344 200.395 158.688 200.65 158.749 201.012C158.809 201.373 158.566 201.714 158.205 201.774C156.957 201.985 155.788 202.733 155.076 203.777C154.363 204.821 154.092 206.184 154.352 207.421C154.554 208.379 155.039 209.258 155.556 210.191C155.807 210.645 156.059 211.101 156.279 211.566C157.223 213.563 157.243 215.452 156.338 216.751C155.653 217.731 154.609 218.206 153.597 218.665C153.35 218.777 153.104 218.889 152.866 219.008C150.945 219.966 149.397 221.571 148.506 223.526C147.616 225.48 147.422 227.703 147.958 229.782C148.05 230.137 147.837 230.498 147.482 230.59C147.425 230.605 147.37 230.61 147.315 230.61Z" fill="#1E2129"/>
<path opacity="0.4" d="M176.074 253.23C175.851 253.23 175.631 253.116 175.506 252.911L173.788 250.072C173.599 249.758 173.698 249.352 174.012 249.161C174.325 248.972 174.731 249.071 174.922 249.385L176.639 252.222C176.829 252.536 176.728 252.942 176.415 253.133C176.311 253.199 176.192 253.23 176.074 253.23Z" fill="white"/>
<g opacity="0.4">
<path d="M171.164 245.14C171.105 245.14 171.047 245.132 170.988 245.116C170.142 244.885 169.35 244.4 168.76 243.747C168.515 243.476 168.535 243.057 168.806 242.811C169.077 242.566 169.497 242.586 169.742 242.857C170.164 243.324 170.732 243.672 171.336 243.837C171.69 243.934 171.897 244.299 171.802 244.651C171.723 244.947 171.455 245.14 171.164 245.14Z" fill="white"/>
</g>
<g opacity="0.4">
<path d="M157.151 250.218C156.981 250.218 156.812 250.154 156.682 250.024C156.424 249.766 156.424 249.346 156.682 249.086L158.82 246.946C159.078 246.688 159.498 246.688 159.758 246.946C160.016 247.204 160.016 247.624 159.758 247.884L157.62 250.024C157.49 250.154 157.321 250.218 157.151 250.218Z" fill="white"/>
</g>
<g opacity="0.4">
<path d="M198.642 253.201C198.472 253.201 198.303 253.137 198.173 253.007C197.915 252.748 197.915 252.329 198.173 252.069L200.205 250.037C200.463 249.779 200.883 249.779 201.143 250.037C201.401 250.295 201.401 250.715 201.143 250.975L199.111 253.007C198.983 253.137 198.813 253.201 198.642 253.201Z" fill="white"/>
</g>
<path d="M184.065 263.39C170.884 263.39 158.569 258.186 149.393 248.734C140.573 239.668 135.717 227.703 135.717 215.046C135.717 188.386 157.406 166.697 184.065 166.697C210.723 166.697 232.41 188.386 232.41 215.046C232.41 230.489 225.294 244.636 212.888 253.858L212.802 253.926C204.442 260.118 194.506 263.39 184.065 263.39ZM184.065 168.024C158.137 168.024 137.041 189.117 137.041 215.047C137.041 227.358 141.766 238.993 150.343 247.811C159.269 257.004 171.245 262.064 184.065 262.064C194.218 262.064 203.882 258.882 212.01 252.86L212.49 253.325L212.095 252.794C224.162 243.824 231.082 230.064 231.082 215.046C231.083 189.117 209.992 168.024 184.065 168.024Z" fill="#1E2129"/>
<path d="M241.58 286.765L159.241 303.11C157.999 303.357 156.792 302.549 156.546 301.307L152.803 282.454C152.556 281.212 153.364 280.005 154.606 279.759L236.945 263.414C238.187 263.167 239.395 263.975 239.64 265.217L243.383 284.07C243.63 285.312 242.822 286.519 241.58 286.765Z" fill="#F8F5FF"/>
<path d="M165.684 302.28C160.204 302.28 155.294 298.411 154.188 292.838L153.86 291.185C153.25 288.113 153.873 284.988 155.613 282.385C157.354 279.781 160.005 278.012 163.077 277.401L228.215 264.471C234.556 263.211 240.739 267.347 241.998 273.688L242.325 275.339C242.936 278.411 242.313 281.536 240.572 284.14C238.832 286.743 236.181 288.513 233.109 289.123L167.97 302.055C167.204 302.207 166.439 302.28 165.684 302.28ZM230.502 265.572C229.833 265.572 229.155 265.638 228.474 265.772L163.335 278.702C160.611 279.243 158.26 280.813 156.716 283.121C155.172 285.429 154.62 288.201 155.161 290.925L155.489 292.578C156.604 298.202 162.089 301.864 167.714 300.754L232.852 287.822C235.576 287.281 237.927 285.711 239.471 283.403C241.016 281.095 241.567 278.323 241.027 275.599L240.699 273.948C239.717 269.004 235.36 265.572 230.502 265.572Z" fill="#1E2129"/>
<path d="M174.533 287.485C175.229 289.519 173.811 291.64 171.665 291.772C170.226 291.862 168.859 290.933 168.414 289.561C167.76 287.551 169.139 285.486 171.248 285.323C172.684 285.211 174.065 286.12 174.533 287.485Z" fill="#1E2129"/>
<path d="M187.027 285.004C187.723 287.038 186.305 289.159 184.16 289.291C182.72 289.381 181.353 288.452 180.908 287.08C180.254 285.07 181.633 283.006 183.742 282.842C185.178 282.733 186.558 283.641 187.027 285.004Z" fill="#1E2129"/>
<path d="M199.519 282.526C200.215 284.559 198.797 286.68 196.652 286.812C195.212 286.902 193.845 285.973 193.4 284.601C192.746 282.591 194.125 280.527 196.234 280.364C197.67 280.252 199.052 281.161 199.519 282.526Z" fill="#1E2129"/>
<path d="M212.012 280.045C212.708 282.079 211.29 284.2 209.145 284.332C207.705 284.422 206.338 283.493 205.893 282.121C205.239 280.111 206.619 278.046 208.727 277.883C210.165 277.772 211.545 278.68 212.012 280.045Z" fill="#1E2129"/>
<path d="M224.506 277.565C225.202 279.598 223.784 281.72 221.639 281.851C220.199 281.941 218.832 281.012 218.387 279.64C217.733 277.631 219.113 275.566 221.221 275.403C222.658 275.291 224.039 276.2 224.506 277.565Z" fill="#1E2129"/>
<path d="M248.036 319.286L165.697 335.631C164.455 335.879 163.248 335.071 163.002 333.829L159.259 314.976C159.012 313.734 159.82 312.526 161.062 312.281L243.401 295.936C244.643 295.688 245.851 296.496 246.096 297.738L249.839 316.591C250.086 317.834 249.278 319.041 248.036 319.286Z" fill="#F8F5FF"/>
<path d="M172.14 334.802C166.66 334.802 161.751 330.932 160.644 325.359L160.316 323.709C159.706 320.637 160.329 317.511 162.069 314.908C163.81 312.305 166.461 310.535 169.533 309.925L234.671 296.993C241.012 295.732 247.195 299.869 248.454 306.21L248.782 307.862C250.04 314.203 245.905 320.386 239.565 321.644L174.426 334.574C173.66 334.728 172.895 334.802 172.14 334.802ZM236.958 298.094C236.289 298.094 235.611 298.16 234.93 298.293L169.791 311.226C167.067 311.766 164.717 313.336 163.172 315.644C161.628 317.953 161.076 320.724 161.617 323.449L161.945 325.099C163.06 330.724 168.545 334.389 174.17 333.275L239.308 320.345C244.932 319.228 248.6 313.745 247.483 308.122L247.155 306.47C246.173 301.525 241.816 298.094 236.958 298.094Z" fill="#1E2129"/>
<path d="M240.36 354.477L189.26 364.621C188.018 364.868 186.811 364.06 186.566 362.818L182.823 343.965C182.576 342.723 183.383 341.516 184.626 341.27L235.726 331.127C236.968 330.879 238.175 331.687 238.42 332.929L242.163 351.782C242.409 353.023 241.603 354.23 240.36 354.477Z" fill="#FF5733"/>
<path d="M195.703 363.789C190.224 363.789 185.314 359.92 184.207 354.347L183.88 352.696C183.269 349.624 183.892 346.499 185.633 343.895C187.373 341.292 190.024 339.522 193.096 338.912L226.996 332.182C233.336 330.923 239.519 335.058 240.778 341.398L241.106 343.051C242.364 349.391 238.229 355.573 231.889 356.833L197.99 363.562C197.222 363.716 196.456 363.789 195.703 363.789ZM229.28 333.283C228.611 333.283 227.934 333.349 227.252 333.482L193.353 340.213C190.629 340.754 188.278 342.324 186.734 344.632C185.189 346.94 184.638 349.712 185.178 352.436L185.506 354.087C186.622 359.713 192.107 363.375 197.731 362.263L231.631 355.534C237.255 354.417 240.923 348.933 239.805 343.311L239.477 341.659C238.495 336.714 234.139 333.283 229.28 333.283Z" fill="#1E2129"/>
<path d="M180.989 320.006C181.685 322.04 180.267 324.161 178.122 324.293C176.682 324.383 175.315 323.454 174.87 322.082C174.216 320.072 175.595 318.007 177.704 317.844C179.142 317.735 180.521 318.643 180.989 320.006Z" fill="#1E2129"/>
<path d="M193.483 317.526C194.179 319.559 192.761 321.681 190.616 321.813C189.176 321.902 187.809 320.974 187.364 319.601C186.71 317.592 188.089 315.527 190.198 315.364C191.634 315.254 193.014 316.163 193.483 317.526Z" fill="#1E2129"/>
<path d="M205.975 315.047C206.671 317.081 205.253 319.202 203.108 319.334C201.668 319.424 200.301 318.495 199.856 317.123C199.202 315.113 200.582 313.048 202.69 312.885C204.126 312.773 205.508 313.682 205.975 315.047Z" fill="#1E2129"/>
<path d="M218.47 312.567C219.166 314.6 217.748 316.722 215.603 316.853C214.163 316.943 212.796 316.014 212.351 314.642C211.697 312.632 213.077 310.568 215.185 310.405C216.622 310.293 218.001 311.202 218.47 312.567Z" fill="#1E2129"/>
<path d="M230.962 310.086C231.658 312.119 230.24 314.241 228.095 314.373C226.655 314.462 225.289 313.534 224.843 312.161C224.189 310.152 225.569 308.087 227.677 307.924C229.114 307.814 230.495 308.721 230.962 310.086Z" fill="#1E2129"/>
<path d="M91.7049 253.386C93.1046 258.647 94.4768 266.836 101.429 270.357C107.764 273.565 127.898 267.58 115.589 257.029C115.589 257.029 119.005 254.921 117.769 251.235C116.532 247.547 113.037 248.135 113.037 248.135C113.037 248.135 116.611 245.768 114.959 242.723C113.306 239.679 110.593 239.396 110.593 239.396C110.946 239.329 115.36 237.88 111.349 233.241C107.755 229.082 94.1049 235.265 92.4048 236.735C88.4934 240.111 90.5599 249.084 91.7049 253.386Z" fill="white"/>
<path d="M105.98 271.876C104.087 271.876 102.374 271.577 101.13 270.947C94.6139 267.648 92.8112 260.472 91.494 255.234C91.3474 254.65 91.2064 254.087 91.0635 253.556C88.6562 244.506 88.9512 238.84 91.9703 236.233C92.9174 235.414 96.8965 233.452 100.976 232.241C104.747 231.121 109.693 230.31 111.849 232.807C113.44 234.646 114 236.288 113.516 237.685C113.276 238.376 112.815 238.891 112.327 239.263C113.333 239.746 114.596 240.668 115.541 242.408C116.644 244.44 115.788 246.309 114.696 247.549C116.074 247.851 117.646 248.785 118.397 251.026C119.329 253.803 117.906 255.965 116.635 257.075C121.138 261.243 120.54 264.484 119.194 266.501C116.928 269.892 110.86 271.876 105.98 271.876ZM92.3459 253.213C92.4888 253.752 92.6317 254.32 92.78 254.91C94.035 259.902 95.7534 266.737 101.729 269.764C105.675 271.764 115.308 269.929 118.093 265.759C119.703 263.346 118.716 260.578 115.16 257.53C114.999 257.392 114.914 257.187 114.931 256.974C114.947 256.764 115.063 256.573 115.244 256.462C115.363 256.386 118.194 254.573 117.144 251.442C116.1 248.327 113.271 248.765 113.15 248.785C112.844 248.844 112.54 248.666 112.425 248.377C112.309 248.086 112.414 247.754 112.672 247.582C112.796 247.498 115.719 245.506 114.378 243.037C112.925 240.36 110.618 240.063 110.521 240.052C110.197 240.016 109.946 239.746 109.933 239.418C109.92 239.092 110.147 238.805 110.468 238.742C110.475 238.741 111.913 238.328 112.276 237.22C112.571 236.319 112.078 235.091 110.849 233.67C109.526 232.14 106.155 232.083 101.356 233.508C97.208 234.74 93.5532 236.614 92.8387 237.233C90.2775 239.446 90.1127 244.821 92.3459 253.213Z" fill="#1E2129"/>
<path d="M105.563 260.087C105.263 260.087 104.992 259.882 104.918 259.58C104.834 259.222 105.052 258.865 105.409 258.781L115.434 256.385C115.79 256.304 116.149 256.52 116.233 256.875C116.317 257.233 116.099 257.59 115.742 257.674L105.717 260.07C105.666 260.081 105.615 260.087 105.563 260.087Z" fill="#1E2129"/>
<path d="M103.754 251.015C103.453 251.015 103.182 250.81 103.109 250.508C103.025 250.151 103.243 249.793 103.6 249.709L112.883 247.49C113.238 247.41 113.597 247.626 113.681 247.981C113.766 248.339 113.548 248.696 113.19 248.78L103.908 250.999C103.856 251.01 103.805 251.015 103.754 251.015Z" fill="#1E2129"/>
<path d="M101.645 242.194C101.345 242.194 101.074 241.989 101.001 241.686C100.916 241.329 101.134 240.972 101.491 240.888L110.437 238.75C110.793 238.669 111.152 238.885 111.236 239.241C111.32 239.598 111.102 239.955 110.745 240.039L101.799 242.177C101.748 242.188 101.697 242.194 101.645 242.194Z" fill="#1E2129"/>
<path d="M75.2992 228.423C91.5869 228.423 104.791 215.219 104.791 198.931C104.791 182.644 91.5869 169.44 75.2992 169.44C59.0114 169.44 45.8076 182.644 45.8076 198.931C45.8076 215.219 59.0114 228.423 75.2992 228.423Z" fill="#1E2129"/>
<path d="M74.405 212.052L63.043 206.239L65.4575 201.52L72.0985 204.916L81.7898 185.972L86.5109 188.386L74.405 212.052Z" fill="white"/>
<path d="M89.6836 221.903L102.966 220.06C105.58 219.697 107.234 217.061 106.423 214.549L102.542 202.541" fill="#1E2129"/>
<path d="M266.774 133.771C266.774 133.771 255.381 125.703 249.712 108.797C245.779 97.0705 243.601 83.2499 243.943 73.1702C257.343 72.4631 272.702 68.07 281.466 65.2139C288.215 71.4958 300.299 81.9492 312.158 88.2293C308.149 97.8436 300.576 109.611 292.541 118.441C282.718 129.237 266.774 133.771 266.774 133.771Z" fill="#43C64C"/>
<path d="M275.394 110.085C282.847 110.085 288.888 104.043 288.888 96.5902C288.888 89.1374 282.847 83.0957 275.394 83.0957C267.941 83.0957 261.899 89.1374 261.899 96.5902C261.899 104.043 267.941 110.085 275.394 110.085Z" fill="white"/>
<path d="M269.062 96.213L271.895 100.648L282.392 93.9468" fill="white"/>
<path d="M271.356 103.089L267.573 97.1639L270.554 95.2623L272.434 98.2063L281.441 92.4575L283.343 95.4364L271.356 103.089Z" fill="#1E2129"/>
<path d="M409.428 236.997L404.905 239.844C402.782 241.167 399.993 240.533 398.665 238.424L395.818 233.901C394.492 231.792 395.126 229.002 397.234 227.676L401.761 224.814C403.87 223.488 406.658 224.122 408.001 226.234L410.844 230.772C412.171 232.88 411.537 235.669 409.428 236.997Z" fill="#F1BF00"/>
<path d="M351.238 118.384L348.215 120.286C346.797 121.17 344.932 120.745 344.046 119.337L342.142 116.314C341.256 114.905 341.679 113.04 343.088 112.153L346.112 110.241C347.521 109.354 349.386 109.777 350.282 111.19L352.182 114.222C353.07 115.632 352.647 117.497 351.238 118.384Z" fill="#713BEE"/>
<path d="M168.245 109.251L165.222 111.153C163.804 112.038 161.939 111.613 161.053 110.204L159.149 107.181C158.262 105.772 158.686 103.907 160.094 103.021L163.119 101.108C164.528 100.221 166.393 100.644 167.289 102.057L169.189 105.089C170.079 106.5 169.654 108.365 168.245 109.251Z" fill="#5DCED8"/>
<path d="M94.1991 319.73L91.1763 321.631C89.7584 322.516 87.8934 322.091 87.0067 320.682L85.1032 317.66C84.2166 316.251 84.6398 314.386 86.0486 313.499L89.0732 311.586C90.482 310.7 92.347 311.123 93.2428 312.535L95.1426 315.567C96.033 316.978 95.6079 318.841 94.1991 319.73Z" fill="#FF5733"/>
</svg>
